<?xml version="1.0" encoding="UTF-8" standalone="no"?>
<svg
   xmlns:dc="http://purl.org/dc/elements/1.1/"
   xmlns:cc="http://creativecommons.org/ns#"
   xmlns:rdf="http://www.w3.org/1999/02/22-rdf-syntax-ns#"
   xmlns:svg="http://www.w3.org/2000/svg"
   xmlns="http://www.w3.org/2000/svg"
   viewBox="0 0 1056 816"
   height="816"
   width="1056"
   xml:space="preserve"
   id="svg2"
   version="1.1"><metadata
     id="metadata8"><rdf:RDF><cc:Work
         rdf:about=""><dc:format>image/svg+xml</dc:format><dc:type
           rdf:resource="http://purl.org/dc/dcmitype/StillImage" /></cc:Work></rdf:RDF></metadata><defs
     id="defs6"><clipPath
       id="clipPath18"
       clipPathUnits="userSpaceOnUse"><path
         style="clip-rule:evenodd"
         id="path16"
         d="M 293.44,294.88 H 767.35998 V 509.44 H 293.44 Z" /></clipPath><clipPath
       id="clipPath28"
       clipPathUnits="userSpaceOnUse"><path
         style="clip-rule:evenodd"
         id="path26"
         d="M 212.64,0 V 816 H 843.52002 V 0 Z" /></clipPath><clipPath
       id="clipPath52"
       clipPathUnits="userSpaceOnUse"><path
         style="clip-rule:evenodd"
         id="path50"
         d="M 212.64,162.39999 V 653.91998 H 843.52002 V 162.39999 Z" /></clipPath><clipPath
       id="clipPath328"
       clipPathUnits="userSpaceOnUse"><path
         style="clip-rule:evenodd"
         id="path326"
         d="M 212.64,0 V 816 H 843.52002 V 0 Z" /></clipPath></defs><g
     transform="translate(0,2.04e-5)"
     id="g10"><g
       id="g12"><g
         clip-path="url(#clipPath18)"
         id="g14"><path
           id="path20"
           style="fill:#000000;fill-opacity:1;fill-rule:nonzero;stroke:none"
           d="m 433.44,486.23999 c 0,0.16 0,0.32001 0,0.32001 h 17.76001 c 0,0 0,-0.16001 0,-0.32001 z M 304.32001,505.28 c 0.16,0.32001 0.16,0.64001 0.16,0.95999 C 310.72,505.76001 317.12,505.44 323.51999,505.12 c 0,-0.16001 0,-0.47999 0,-0.63999 C 317.12,504.79999 310.72,505.12 304.32001,505.28 Z m 201.91998,-9.12 c 0.32001,-0.48001 0.80002,-0.95999 1.28,-1.44 -3.19998,-2.72 -6.23999,-5.11999 -9.28,-7.51999 -0.31998,0.15998 -0.47998,0.47998 -0.63998,0.63999 2.88,2.72 5.75998,5.6 8.63998,8.32 z M 634.88,474.56 c 0,0.32 0,0.48001 0,0.64001 11.35999,1.12 22.71998,2.07999 34.08002,3.19998 0,-0.32 0,-0.63998 0,-0.95999 -11.20001,-0.95999 -22.72003,-1.76001 -34.08002,-2.88 z m -166.08001,23.51999 c 0,0.32 0,0.48001 0,0.96002 h 29.6 c 0,-0.48001 0,-0.64002 0,-0.96002 z m -39.84,-11.19999 0.32001,-0.95999 c -4.95999,0 -9.76001,-0.16 -14.56,0.15998 -4.79999,0 -9.6,0.48001 -14.23999,0.80001 z m 298.39999,12.16001 c 0,-0.32001 0,-0.64002 0,-0.96002 h -36.95996 c 0,0.32 0,0.64001 0,0.96002 z M 638.23999,471.84 c -0.15997,0.32 -0.15997,0.64001 -0.15997,1.11999 12.63995,1.44 25.27996,2.88001 38.07995,4.32001 0,-0.32001 0,-0.63999 0,-0.95999 C 663.67999,474.72 650.88,473.28 638.23999,471.84 Z M 501.12,408.16 c 5.76,12.79999 11.35998,25.60001 16.79998,37.91999 C 515.35998,432.64001 508.16,420.48001 501.12,408.16 Z m 181.11999,10.72 h 20.79999 c 0,-0.48001 0,-1.11999 0,-1.6 -7.19995,-4.16 -14.07996,0.32001 -20.79999,1.6 z m -11.20001,-0.32 c 13.60003,-2.72 26.08002,-4.95999 39.36004,-7.51999 -4.96002,-2.24002 -28.96002,2.56 -39.36004,7.51999 z m -1.27997,6.08001 c 12.95996,2.07999 25.91998,-1.76001 39.03998,-2.88 -13.27997,-2.08002 -26.23999,0.47998 -39.03998,2.88 z M 656,446.07999 c 0,0.80001 0,1.28 -0.15997,2.08001 h 77.44 c -2.88001,-1.28 -5.92005,-2.55999 -9.12006,-2.88 -4.31994,0 -8.63995,0.79999 -12.79999,0.79999 -18.39996,0.16 -36.95996,0 -55.35998,0 z M 431.35999,500.16 c 0,-0.16 0,-0.48001 0,-0.64001 -27.84,0.96002 -55.68,1.76001 -83.51999,2.72 0,0.48001 0,0.96002 0,1.44 28,-1.11999 55.83999,-2.23999 83.51999,-3.51999 z m 153.60003,-37.11999 c -16.48004,4.63998 -27.20001,19.19998 -38.88,32.63998 1.59997,0.16001 3.35998,0 4.15997,-0.95999 3.52002,-3.84 6.23999,-8.48001 10.08002,-11.84 8.32,-7.20001 17.27997,-13.92001 24.64001,-19.83999 z M 445.92001,317.12 c -0.64001,0.32 -1.12002,0.64001 -1.6,0.80001 16.47998,25.12 32.79999,50.07999 49.28,75.03998 C 478.72,366.88 465.76001,339.84 445.92001,317.12 Z M 598.56,456.32001 c 0.96002,-0.16001 1.76001,-0.48001 2.56,-0.80002 17.44,-3.19998 34.55999,-7.84 52.16003,-9.75998 22.87994,-2.24002 46.23999,-2.56 69.11999,-3.84 1.12,0 2.07996,-0.32 3.03998,-0.48001 -0.15997,-0.48001 -0.32,-1.11999 -0.32,-1.76001 -42.71998,0.64002 -85.27997,2.24002 -126.56,16.64002 z m 46.72003,34.07998 c -2.24005,3.04001 -6.56006,2.08002 -10.08002,2.08002 -5.28003,0.16 -10.72003,-1.60001 -15.67999,-0.48001 -2.40002,0.48001 -4.16004,0.64001 -6.40002,0.32001 -0.15998,-0.16001 -0.47999,0.47998 -0.96003,0.47998 -1.75995,0.48001 -3.35998,0.96002 -5.11999,1.12002 -2.56,0.31998 -5.12,0.31998 -7.68,0.31998 -0.95996,0.16 -2.07995,0.48001 -3.03997,0.48001 -6.56,0 -12.96003,0 -19.35999,0 0,0.63999 0,1.12 0.15998,1.44 h 134.23998 c 0.16004,-0.48001 0.16004,-0.95999 0.16004,-1.44 -4.80005,-0.32001 -9.76001,-1.11999 -14.56,-1.11999 -6.08002,0 -12.48004,0.63998 -18.72003,0.95999 -0.95996,0 -1.76001,-0.63999 -2.56,-0.63999 -4.15997,0.15998 -7.20001,-3.36001 -12.32001,-2.08001 -5.59997,1.28 -11.83996,-0.79999 -18.07995,-1.44001 z M 738.56,496.16 c 0,-0.64001 0,-1.11999 0.15997,-1.6 -15.35999,-3.04001 -30.71997,-6.23999 -46.23999,-8.79999 -16.32001,-3.04001 -32.79999,-5.44 -49.27997,-8 -13.76001,-2.24002 -27.35998,1.28 -40.96002,1.75998 -11.52002,0.48001 -22.39996,3.52002 -32.95996,8.32001 -2.88001,1.44 -5.60004,3.20001 -8.32001,4.80001 3.83997,-0.64001 7.19995,-1.76001 10.71997,-3.20001 12.16004,-4.48001 24.32001,-8.79999 37.60004,-9.11999 33.43994,-0.64002 66.39996,2.55999 98.87994,10.07998 9.92005,2.24002 20.32001,3.84 30.40003,5.76001 z M 489.44,445.76001 c 0.16001,-0.16 0.32001,-0.32001 0.48001,-0.48001 -0.32,-0.32001 -0.80001,-0.79999 -1.12002,-1.12 -22.56,-24 -48.15998,-44.64001 -76.15998,-62.08001 -5.6,-3.35999 -11.68002,-6.23999 -17.6,-9.12 -5.44,-2.56 -11.20001,-4.95999 -16.96002,-7.19998 -1.59998,-0.48001 -3.68,0.31998 -5.43998,0.47998 14.23999,8.80002 28.31998,16.48001 42.56,24 C 435.84,400.64001 454.88,413.28 472,429.12 c 5.92001,5.44 11.67999,11.04 17.44,16.64001 z m -8.79999,20.31998 C 479.67999,465.44 478.56,464.48001 477.44,464 c -20.48001,-10.56 -42.39999,-17.12 -64.95999,-21.44 -6.88,-1.28 -14.24002,-0.48001 -20.96002,-2.23999 -16.16,-3.84 -32.47998,-3.20001 -48.79999,-5.76001 -5.92001,-0.95999 -11.04001,0.64001 -16.79999,5.11999 3.19999,0 5.43998,0 7.51999,0 28.63999,-0.32 56.95999,3.20001 85.12,7.20001 21.6,3.19999 42.23999,9.60001 62.08001,19.19999 z M 391.51999,356.32001 c 36.64001,24.32 69.44,52.79999 100.32001,84.16 -0.32001,-0.64001 -0.48001,-1.12002 -0.63999,-1.28 -14.88,-20.48001 -32.32001,-38.56 -51.84002,-54.40002 -11.84,-9.59998 -24.63999,-18.23999 -36.47999,-27.84 -4,-3.19998 -6.88,-4.16 -11.36001,-0.63998 z M 470.56,430.56 c 0.32,0.32 0,0 -0.32001,-0.48001 -12.16,-11.51999 -25.75998,-21.43998 -40.47998,-29.43998 -17.28,-9.28002 -35.04001,-17.92001 -52.96002,-26.40002 -5.12,-2.39999 -10.72,-0.31998 -15.35999,2.40002 18.88001,8.15998 38.07999,15.19999 56.32001,24.15998 18.23999,9.12002 35.67999,20 52.79999,29.76001 z m 227.03998,-23.20001 c 0,-0.15998 -0.15998,-0.47999 -0.15998,-0.79999 -3.35998,-0.32001 -7.03998,-0.32001 -10.40002,-1.12 -5.59998,-1.6 -11.19995,-2.72 -16.79999,0.48001 -2.39996,1.28 -5.27997,2.07999 -8,2.87998 -18.08002,5.12002 -36,10.88 -53.11999,19.52002 -10.71998,5.28 -21.59998,10.39999 -32.47999,15.83999 -3.52001,2.07999 -6.55999,4.96 -9.92004,7.35999 0.16003,0.32001 0.32001,0.64001 0.64001,0.80002 4.32001,-2.24002 8.48005,-4.48001 12.64002,-6.88001 14.40002,-8 29.12,-15.20001 45.12,-19.20001 15.20001,-4 30.23998,-7.67999 45.44,-11.67999 8.96002,-2.23999 18.08001,-4.63999 27.03998,-7.20001 z M 487.51999,449.12 c 0.16,-0.16001 0.48001,-0.47999 0.64001,-0.63999 C 482.39999,443.84 476.79999,438.72 470.56,434.88 c -13.44,-8.64001 -27.35999,-16.32 -40.79999,-24.80001 -14.08002,-9.12 -29.60001,-14.56 -45.60001,-18.72 -8.80001,-2.23999 -16.80001,-0.63999 -24.95999,1.6 15.19998,4.96002 30.4,9.92001 45.59998,14.72 21.92001,6.72 43.68002,14.24002 63.04001,27.20001 6.55999,4.63999 13.11999,9.60001 19.67999,14.24 z m 62.39999,8.64001 c 12.79999,-14.88001 27.68,-27.36002 44.16004,-37.92001 22.23999,-14.07999 45.11999,-27.35999 70.07995,-36.63999 4.96003,-1.92001 9.92005,-4.32001 14.72003,-6.56 -5.44,-0.80001 -10.55999,0.15998 -15.52002,-0.32 -5.11999,-0.48001 -9.11999,1.91998 -13.27996,4 -3.20002,1.6 -6.23999,3.83999 -9.60004,5.44 -25.44,13.28 -49.59998,28.31998 -70.39996,48.47998 -0.32001,0.32001 -0.64002,0.64001 -0.96002,0.80002 -8.32001,5.91998 -13.91999,14.23999 -19.20002,22.72 z m 172,-19.36002 c -7.67999,-7.83999 -16.15997,-5.6 -24.47998,-4.47998 -1.11999,0.15998 -2.23999,0.31998 -3.52002,0.47998 -24.79998,3.20002 -49.76001,5.92002 -74.39996,10.08002 -17.76001,2.87998 -35.20001,7.84 -50.88001,17.44 -9.60003,5.91999 -20.64001,16.47998 -24,23.03998 6.39997,-6.23999 12,-12.95999 20.15998,-16.31998 -8.32001,8.47999 -16.47998,16.79999 -24.64002,25.43998 0.48004,0.48001 0.96003,0.80001 1.28003,1.28 0.96002,-0.96 2.08002,-1.75998 3.03998,-2.71998 4.48004,-5.12002 8.80005,-10.88 13.76001,-15.36001 12.79999,-11.35999 26.88001,-19.84 43.52002,-24.63999 31.52002,-9.44 64.15997,-12.80001 96.95996,-14.08001 7.36005,-0.32001 15.04004,-0.16001 23.20001,-0.16001 z m -401.59997,14.08002 c 0.16,0.31998 0.16,0.79999 0.47998,1.12 1.12002,0 2.40002,0.16 3.52002,0 13.11999,-1.12 26.23999,-2.72001 39.51999,-3.36002 19.36001,-0.79999 38.88,-1.59998 58.08001,3.20001 12,2.88001 23.68,6.72 35.68,10.23999 17.6,5.12 32.79998,14.72 47.04,25.76001 0.79999,0.63999 1.75998,1.28 2.56,1.91999 -1.92001,-2.87998 -4.16,-5.28 -6.72,-7.35999 C 494.23999,479.51999 487.67999,475.20001 481.28,470.72 463.35999,458.07999 442.23999,453.76001 421.44,449.92001 404.79999,446.88 387.51999,445.44 370.56,443.84 c -11.35999,-0.96 -22.72,-0.96 -34.07999,-1.28 -1.12002,-0.16001 -2.40002,0 -3.36001,0.64001 -4.32001,3.03998 -8.63999,6.23999 -12.79999,9.28 z M 481.28,463.51999 c -0.95999,-1.12 -1.12,-1.44 -1.44,-1.75998 -15.68,-9.44 -32.16001,-16.96002 -49.28,-23.04001 -24.16001,-8.48001 -49.44,-11.20001 -74.23999,-16.79999 -10.24002,-2.24002 -15.68,4.79999 -22.88001,9.43998 50.88001,2.40002 100.95999,7.84002 147.84,32.16 z m 194.07998,-97.75998 c -0.15997,-0.16 -0.15997,-0.48001 -0.15997,-0.48001 -5.76001,0.48001 -11.52002,1.11999 -17.44,1.28 C 648,366.88 640,370.72 632.15997,376.32001 c -10.23999,7.51999 -20.47998,14.88 -31.51996,21.11999 -14.55999,8.63999 -26.55999,19.51999 -36.48004,33.12 -1.27997,1.92001 -2.71997,3.83999 -4.47998,5.44 -8.96002,7.51999 -12.32001,18.56 -17.91998,28.16 1.11999,-0.95999 1.91998,-2.23999 2.88,-3.51999 6.39997,-8.80001 12,-18.24002 19.51996,-26.08001 26.24005,-27.20001 59.68006,-43.51999 92.96003,-60 6.08001,-2.88001 12.16003,-5.76001 18.23998,-8.79999 z M 492.16,483.04001 c -0.64001,-0.48001 -1.11999,-0.80002 -1.6,-1.28 -18.4,-12.96002 -39.51999,-19.84 -60.79999,-24.48001 -16.96002,-3.84 -34.88001,-3.67999 -52.32001,-3.84 -15.67999,-0.32 -31.36001,2.07999 -47.04001,1.91999 -7.51999,0 -11.67999,3.68002 -16.63998,8.64001 2.39999,0 4,0.32001 5.75998,0 28.96002,-2.39999 57.92001,-5.76001 87.04001,-3.35999 19.36001,1.59998 38.39999,3.68 56.79999,10.87998 9.44,3.68002 19.04,7.68002 28.80001,11.52002 z m 1.76001,12.31998 c -3.20001,-1.12 -5.44,-1.75998 -7.52002,-2.23999 C 470.56,489.60001 454.72,490.23999 438.72,489.92001 421.92001,489.44 405.12,489.60001 388.32001,492 c -17.12,2.23999 -34.24002,4.32001 -51.36002,6.56 -7.83999,0.95999 -16,2.08001 -23.83999,3.20001 0.16,0 0.16,0.16 0.16,0.31998 59.84,-2.23999 119.67999,-4.47998 180.64001,-6.72 z m 79.84,-53.28 c 19.20001,-8.63999 38.88,-18.56 59.35999,-26.4 20.32,-8 41.44,-13.75998 60,-19.83999 -9.76002,-0.79999 -21.76002,-1.91999 -33.76002,-2.88001 -1.11999,-0.16 -2.55999,0.32001 -3.83996,0.80002 -8.64002,3.84 -17.28003,8.47998 -26.23999,11.67999 -18.40003,6.23999 -32.96002,18.07999 -47.84003,29.76001 -3.03998,2.4 -5.59997,5.12 -7.67999,6.87998 z m 45.44,20 c 1.44,0.96002 2.56,1.6 3.67999,2.24002 -0.16003,0.47998 -0.32,0.63998 -0.47998,1.11999 4.79999,-0.32 9.59998,-0.64001 14.39997,-0.95999 0,0.16 0,0.31998 0,0.63999 -3.03998,0.48001 -6.23999,0.95999 -9.44001,1.44 0,0.32 0,0.48001 0,0.64001 h 16.96003 c -3.84003,0.95999 -7.68,0.79999 -11.35999,0.95999 -3.67999,0.32001 -7.36004,0.96 -11.04004,1.44001 0.16004,0.47998 0.16004,0.95999 0.16004,1.44 41.11999,-3.68002 79.03998,11.35998 117.76001,19.03998 -24.32001,-12.47998 -48.96003,-25.28 -73.60004,-37.75998 -1.27997,-0.64002 -2.88001,-0.96002 -4.32001,-0.64002 -11.51996,1.12 -23.20001,2.24002 -34.71997,3.36002 0,0.31998 0,0.47998 0,0.63998 h 18.71997 c 0,0.32001 0,0.64002 0,0.96002 -8.79998,1.75998 -17.59997,3.51999 -26.71997,5.43998 z M 338.88,415.35999 c 8.79999,2.08001 17.44001,4.32 26.07999,6.24002 15.36002,3.19998 30.88001,6.23999 46.4,9.27999 0.96002,0.16001 2.08001,0.16001 3.04,0.16001 6.4,0 12.96,-0.48001 19.20002,0 6.55999,0.63998 13.11999,2.23999 19.51999,3.35998 0,-0.63998 0.16,-1.11999 0.32,-1.44 C 452.16,431.84 450.72,430.88 449.28,429.92001 448.79999,429.44 448,429.12 447.35999,428.95999 434.88,422.56 422.72,416 408.79999,412.64001 396,409.60001 383.84,404.95999 371.20001,400.95999 c -1.12002,-0.31998 -2.72,-0.79999 -3.68002,-0.31998 -9.59998,4.96 -19.03998,9.75998 -28.63999,14.71998 z m 55.51999,49.44 c 0,-0.47998 0,-0.79999 0,-1.28 H 384.16 c 0,-0.31998 0,-0.47998 0,-0.79999 0.63999,0 1.44001,-0.16 2.07999,-0.32001 -12.47998,0 -24.79999,0.48001 -37.11999,1.28 -2.07999,0.16001 -4.16001,1.28 -5.76001,2.56 -4.47999,3.52002 -8.63999,7.36002 -13.12,10.88001 -9.59998,7.52001 -19.19998,15.04 -28.79999,22.55999 0.16001,0.16001 0.32001,0.48001 0.48001,0.64002 28.31998,-4.48001 56.63999,-9.12 84.95999,-13.76001 0,0 0,-0.16001 -0.16,-0.48001 -1.92001,-0.31998 -3.84,-0.63999 -6.23999,-1.12 13.12,-7.03998 27.03998,-3.67999 40.47998,-5.11999 -0.16,-0.32001 -0.16,-0.79999 -0.16,-1.12 H 397.44 c 0,-0.32001 0,-0.48001 0,-0.79999 h 15.51999 c 0,-4 2.4,-4.96002 6.72,-4.96002 -2.88,-0.47998 -4.79999,-0.95999 -6.55999,-1.44 0,-0.16 0,-0.63999 0.16,-0.95999 h 5.92001 c 0,-0.32001 0,-0.63999 0,-0.95999 -4.16,-0.48001 -8.48001,-0.96 -13.76001,-1.60001 1.60001,-0.95999 2.4,-1.28 4.16001,-2.07999 h -16.80002 c 0.48001,-0.48001 1.12002,-0.80001 1.6,-1.12002 z M 608,311.20001 c -0.64002,0.31998 -1.28003,0.63999 -1.91998,0.79999 -13.12,5.76001 -23.36005,15.35999 -34.23999,24.16 -4.16004,3.35999 -8.16004,7.35999 -10.88001,11.84 -6.24005,9.60001 -12.16003,19.67999 -17.44,29.76001 -3.84003,7.51999 -7.20001,15.19998 -9.76001,23.19998 -3.52002,10.56 -6.40003,21.44 -9.12,32.32001 -1.28003,5.28 -4.48004,10.88 0,16.16 0.32001,0.48001 0.15998,1.44 0.15998,2.23999 0,10.4 0,20.80002 0,31.20001 5.76001,-31.83999 16.32001,-61.92001 30.55999,-90.72 14.24,-29.11999 33.28003,-54.88 52.64002,-80.95999 z m -46.40002,108 c -0.15998,1.44 0.32,3.19998 -0.47998,4.31998 -2.40003,3.68002 -5.27997,6.88 -8,10.24002 32.32,-34.24002 69.91998,-60.64001 112.47998,-80.96002 -16.63996,2.88 -32.95997,5.6 -49.27997,8.64001 -1.76001,0.32001 -3.52002,1.60001 -4.96003,2.72 -9.76,7.19999 -19.35998,14.72 -29.11999,21.76001 -8,5.91999 -14.08002,13.43998 -19.67999,21.28 -0.47998,0.47998 -1.12,1.59998 -0.79999,1.91999 2.56,2.72 -0.64001,3.83999 -1.44,5.6 -0.64002,1.44 -0.96003,3.04001 -1.44001,4.48001 0.32001,0 0.64002,0 0.96003,0 0.15997,0 0.47998,0 0.63995,0 0.48004,0 0.80005,0 1.12,0 z m 35.36004,26.56 c 12.32001,-3.20001 24.32001,-7.36002 36.79999,-9.60001 16.79999,-2.88 33.76001,-4.48001 50.88,-6.55999 8.95997,-0.96 17.76001,-1.76001 26.71997,-2.72001 0,-0.48001 0,-0.80001 0,-1.27999 -5.27996,0 -10.55999,-0.48001 -15.67999,0 -19.35998,2.23999 -38.71997,4.47998 -58.08001,7.19998 -14.07996,2.08001 -27.68,6.88 -40.63996,12.96002 -5.11999,2.07999 -10.08002,4 -15.04004,6.07999 0.16004,0.48001 0.32001,0.95999 0.64002,1.44 3.84002,-1.28 7.52002,-2.88001 11.52002,-3.84 2.23999,-0.48001 2.88,-1.6 2.88,-3.67999 z M 471.84,401.44 c -6.56,-6.23999 -13.12,-12.64001 -19.68,-18.88 -11.20001,-10.72 -22.39999,-21.60001 -33.76001,-32 -4.63998,-4.16001 -9.75998,-7.51999 -14.72,-11.35999 -0.79999,-0.64001 -1.44,-1.28 -2.23999,-2.08001 5.76001,-3.35999 13.28,-2.72001 17.60001,0.95999 11.83999,9.44 23.83999,18.56002 35.19998,28.32 8.16,6.88001 15.52002,14.72001 23.20001,21.92002 1.12,1.11999 2.88001,1.75998 3.84,2.88 1.6,1.91999 2.88,4.15998 4.16,6.23999 0.32001,0.48001 0.32001,1.12 0.79999,1.60001 5.60001,6.88 11.36002,13.75998 17.12,20.95999 C 493.44,392.48001 476,369.60001 460.32001,345.60001 460,346.23999 459.84,346.72 460,346.39999 c -7.04001,-10.07998 -14.23999,-20.63998 -21.44,-31.19998 4.32,-3.04001 8.79999,-2.08001 12.79999,4 8.96002,13.59998 17.76001,27.03998 26.24002,40.95999 6.88,10.88001 13.44,21.91999 19.51999,33.12 5.92001,11.36001 11.04,23.20001 17.11999,34.56 -2.72,-10.88001 -5.11999,-21.76001 -8.31998,-32.63999 -3.04001,-10.88 -6.56002,-21.92001 -10.40002,-32.80002 -3.84,-10.72 -8.63999,-21.11999 -13.12,-31.35998 -4.47998,-10.4 -12.32,-18.88001 -16.16,-29.28 0.48001,-0.32001 0.96002,-0.64001 1.60001,-1.12 1.92001,2.4 4.48001,4.31998 5.92001,7.03998 18.72,36.96002 32.79999,75.36002 40.95996,115.84 1.12006,5.92001 2.72003,12 4.32001,17.92001 C 516.32001,391.20001 505.28,342.72 488.16,295.51999 c 0.32001,-0.31998 0.79999,-0.47998 1.28,-0.63999 1.28,1.28 3.35999,2.56 3.84,4.16001 5.6,18.88 12,37.75998 16.64001,56.95999 5.92002,24 9.75998,48.64001 11.04001,73.44 0,0.48001 0.15998,0.95999 0.47998,2.23999 2.40003,-8.32 4.47998,-15.83999 6.88001,-23.35998 8,-23.36002 18.39996,-45.28 33.27997,-65.12 12,-16 28.96002,-24.80002 45.44,-34.40002 2.40002,-1.44 5.60003,-1.59998 8.96002,-2.4 -30.23999,39.04001 -59.35999,78.4 -75.67999,126.4 5.27997,-8.15998 9.91998,-16 15.20001,-23.35999 9.91998,-13.76001 22.39996,-25.44 36.32001,-35.36001 4.31994,-2.87998 8.47998,-5.91999 12.63995,-9.12 5.92004,-4.47998 12,-7.35998 19.52002,-8.31998 14.08002,-1.6 27.84003,-3.84002 41.76001,-5.6 3.03998,-0.48001 6.23999,-0.16001 9.44,-0.16001 0.15997,0.47999 0.32001,0.79999 0.47998,1.28 -5.11999,3.35999 -10.23999,6.56 -16.32001,10.56 10.88001,0.79999 20.32001,-4.48001 29.92005,-0.79999 0,0.47998 0,0.79999 0.15997,1.28 -7.84002,3.19998 -15.52002,6.4 -23.35998,9.59998 0,0.16 0,0.48001 0,0.64001 h 29.76001 c 0,0.48001 0.15997,1.12 0.31994,1.60001 -10.07995,5.6 -20,11.67999 -32.47998,15.03998 15.20001,1.44 29.44001,2.72 43.35999,4 0,0.64001 0.16003,1.12002 0.16003,1.44 -7.04004,3.52002 -15.52002,2.88 -23.52002,6.08002 C 692.47998,404 700.96002,404 709.44,404 c 2.71997,0 5.27997,0.48001 8,0.79999 0,0.32001 0.15998,0.80002 0.15998,1.28 -1.27997,0.80001 -2.56,1.6 -4.15998,2.56002 0.64002,0.96 1.44,1.75998 2.71997,3.51999 -4.15997,0.79999 -7.83996,1.60001 -11.83996,2.4 4.15997,2.88 8.15997,5.44 12.64001,8.48001 -1.76001,0.47998 -3.20001,0.79999 -5.44,1.28 4.47998,1.28 8.15997,2.07998 11.83996,3.03998 -0.15997,0.48001 -0.15997,0.96002 -0.32,1.44 C 684,432.95999 644.32001,433.28 606.40002,445.28 c 38.56,-8.32001 77.91999,-11.51999 117.12,-15.51999 0.32001,0 0.63995,0.31998 1.27997,1.11999 -1.76001,0.47999 -3.83997,0.79999 -6.23999,1.44001 5.91998,3.83999 14.40002,2.88 16.96002,11.35998 -0.80005,0.32001 -1.60004,0.64002 -2.72003,1.12 5.44,3.04001 10.88,5.92001 16.16003,8.64001 -0.32001,0.32001 -0.48004,0.63999 -0.64001,0.95999 -25.12,-1.44 -50.08002,-2.55999 -75.03998,-4 -0.32001,0.48001 -0.32001,0.96 -0.48004,1.60001 1.28003,0.79999 2.55999,1.76001 4,2.56 21.76001,11.04001 43.52002,21.92001 65.11999,33.11999 8,4.16001 15.84003,8.64002 23.52002,13.12 0.96002,0.48001 1.76001,2.72 1.59998,3.20001 -1.12,1.12 -2.71997,2.88 -4.32001,3.04001 -4.63995,0.16 -9.43994,0.16 -14.07996,-0.32001 -18.72003,-1.11999 -37.44,-2.56 -56.16003,-3.84 -6.39996,-0.32 -12.63995,-0.16 -19.03998,-0.16 -24.47998,-0.32001 -49.11999,-0.48001 -73.59997,-0.64001 -14.40003,-0.15998 -28.64002,-0.31998 -42.88001,0 -2.56,0 -5.11999,1.6 -7.52002,2.40002 -4.64001,1.44 -9.28003,3.67999 -13.76001,4.16 -7.67999,0.63999 -15.52002,0.31998 -23.20001,-0.16 -2.23999,-0.16 -4.15997,-2.88 -6.39999,-4.16 -1.75998,-0.96002 -3.84,-2.24002 -5.75998,-2.4 -30.24002,-1.28 -60.64002,0.95999 -90.72,2.23999 -34.08002,1.44001 -68,2.72 -101.92002,4 -3.35998,0.16001 -6.88,-0.16 -10.07998,-0.80001 -4.48001,-0.96 -5.12,-2.87998 -1.92002,-6.07999 4.64002,-4.48001 9.60001,-8.79999 14.4,-12.95999 9.44,-7.52002 19.04001,-14.88001 29.6,-23.04001 -10.72,0.48001 -20.16,0.79999 -29.6,1.11999 -0.31998,-0.47998 -0.47998,-0.95999 -0.79999,-1.6 3.20001,-2.23999 6.39999,-4.79999 9.44,-7.03998 -2.56,-4.64001 -2.56,-4.64001 8.63999,-15.20001 -1.91999,0 -3.19999,0 -4.79999,0 -1.28,0 -2.72,-0.16001 -4.48001,-1.28 1.28,-1.12 2.88,-2.23999 4.32,-3.04001 1.60001,-1.11999 3.36002,-1.91998 5.44001,-3.03998 -1.44001,-0.48001 -2.4,-0.80002 -4,-1.44 4,-2.40002 7.51999,-4.48001 10.72,-6.56 3.36001,-2.08001 6.56,-4.32001 9.28,-7.52002 -3.84,-0.47998 -8,-0.79999 -12,-1.28 -0.16001,-0.47998 -0.32001,-0.95999 -0.48001,-1.44 1.6,-1.11999 3.20001,-2.72 5.12002,-3.83999 8.47998,-4.32001 16.79999,-8.47999 25.28,-12.79999 C 362.39999,400.16 362.88,399.51999 364,399.04001 358.56,397.44 353.60001,396.16 348.79999,394.72 c 0,-0.32001 -0.15998,-0.79999 -0.15998,-1.11999 1.75998,-0.80002 3.68,-1.60001 5.59998,-2.24002 2.88001,-0.79999 5.92001,-1.12 8.64001,-2.07999 6.72001,-2.4 13.60001,-4.95999 20.47999,0.16 0.16,-0.48001 0.16,-0.95999 0.16,-1.6 -9.12,-3.35999 -18.23999,-6.72 -27.35999,-10.07999 0,-0.48001 -0.16,-1.12 -0.32,-1.60001 4.64001,-1.6 9.11999,-3.20001 13.6,-4.95999 -1.92001,-4.80002 -1.6,-4.32001 3.04001,-7.04001 4.47998,-2.72 8.16,-2.39999 12.79999,0.16001 22.88,12.63998 45.11999,25.91998 65.44,42.39999 6.23999,4.95999 12.32001,10.23999 18.23999,15.20001 3.52002,3.68 6.88001,7.03998 10.24002,10.72 C 479.35999,432.16 479.84,431.84 480,431.67999 c -3.35999,-3.35998 -7.04001,-6.72 -10.56,-9.91998 -11.51999,-9.92001 -23.04001,-20 -34.56,-29.76001 -4,-3.35999 -8.16,-6.39999 -12,-9.92001 -11.20001,-10.23999 -23.52001,-18.56 -36.80001,-25.75998 -0.95999,-0.64002 -1.75998,-1.60001 -2.56,-2.4 0,-0.32 0.16,-0.64001 0.32001,-1.12002 h 12.32 c -3.36001,-2.72 -5.6,-4.47998 -8,-6.56 l -0.16,-1.44 c 5.92001,-1.28 11.51999,-2.4 17.28,-3.51999 0.16,0.64001 0.32001,1.11999 0.48001,1.76001 -4.16,0.95999 -8.32001,2.07999 -13.12,3.19998 3.68,3.04001 6.71998,5.92001 10.23999,8.16 28.16001,19.04001 53.91999,41.12 76.47999,66.56 12.48001,14.08002 23.36001,29.28 31.84002,46.24002 2.39997,4.63999 3.51996,9.91999 5.44,16 -2.23999,-3.04001 -4.16003,-5.28 -5.76001,-7.36001 -0.32,0.16 -0.48001,0.32 -0.64001,0.48001 3.52002,5.75998 7.20001,11.67999 10.56,17.44 0.32001,-0.16 0.79999,-0.16 1.28003,-0.16 -0.48004,-3.20002 -0.64002,-6.4 -1.60004,-9.12 -7.83997,-21.28 -18.23999,-40.96002 -31.99997,-58.88 -0.96002,-1.44001 -1.60001,-3.20002 -2.40002,-4.64002 1.92001,2.24002 4,4.64002 6.08001,6.88001 0.63999,0.48001 1.76001,0.64001 2.88001,1.11999 1.91998,2.72 4.31998,5.44 6.07999,8.48001 7.52001,14.23999 15.84002,28 20,43.68 0,0.48001 0.64001,0.64001 0.96002,1.11999 0,-3.35999 0.63995,-6.56 -0.16004,-9.59998 C 518.88,460 515.52002,447.35999 508.64001,436.16 c -6.72,-11.04 -13.28002,-22.08001 -20.96002,-32.32 -17.75998,-23.51999 -40.47998,-42.07999 -64,-59.68 -4.79999,-3.36001 -10.07998,-6.08001 -15.83999,-5.44 9.6,8.63999 19.36001,17.28 29.11999,25.76001 -0.16,0.31998 -0.95999,1.12 -0.95999,1.12 4.79999,4.32 9.60001,8.47998 14.39999,12.79998 1.12,0.96 2.24002,2.08002 3.36002,3.20002 C 454.88,382.88 455.84,384.16 457.12,385.28 c 6.08001,5.6 12.32,11.04001 18.39999,16.64001 1.12002,1.12 1.76001,2.87998 2.72,4.31998 C 476.16,404.64001 473.92001,403.04001 471.84,401.44 Z" /></g></g><g
       id="g22"><g
         clip-path="url(#clipPath28)"
         id="g24"><g
           id="g30"><path
             id="path32"
             style="fill:#000000;fill-opacity:1;fill-rule:nonzero;stroke:none"
             d="m 474.39999,405.60001 c 3.84,5.11999 7.84,10.23999 11.68,15.35998 -3.84,-5.11999 -7.84,-10.23999 -11.68,-15.35998 z" /></g><g
           transform="translate(450.39999,378.39999)"
           id="g34"><path
             id="path36"
             style="fill:#000000;fill-opacity:1;fill-rule:nonzero;stroke:none"
             d="M 0,0 C -1.44,-1.92 -2.72,-3.68 -4.32,-5.44 -0.48,-2.4 3.36,0.64 7.2,3.68 6.88,4 6.72,4.32 6.56,4.48 5.44,4.16 4.48,3.68 3.36,3.2 2.24,2.08 1.12,0.96 0,0 Z" /></g><g
           id="g38"><path
             id="path40"
             style="fill:#000000;fill-opacity:1;fill-rule:nonzero;stroke:none"
             d="m 560.47998,419.20001 c 0.48004,0 0.80005,0 1.12,0 -0.31995,0 -0.63996,0 -1.12,0 z" /></g><g
           transform="translate(482.07999,411.20001)"
           id="g42"><path
             id="path44"
             style="fill:#000000;fill-opacity:1;fill-rule:nonzero;stroke:none"
             d="m 0,0 c 1.44,1.28 3.2,2.4 4.32,4 3.04,4.48 5.76,9.12 8.64,13.76 C 8.64,11.84 4.32,5.92 0,0 Z" /></g></g></g><g
       id="g46"><g
         clip-path="url(#clipPath52)"
         id="g48"><g
           transform="translate(547.84003,547.84003)"
           id="g54"><path
             id="path56"
             style="fill:#000000;fill-opacity:1;fill-rule:nonzero;stroke:none"
             d="M 0,0 -0.64,1.28 -14.4,-4.48 -10.08,6.24 -5.6,-4.32 -16.32,0 -5.6,4.32 -10.08,-6.24 -14.4,4.32 -0.64,-1.44 0,0 -0.64,1.28 0,0 l 0.48,1.28 -20,8.16 9.44,-23.2 9.6,23.2 -23.2,-9.44 23.2,-9.6 -9.6,23.2 -9.44,-23.2 23.2,9.6 -3.2,1.28 z" /></g><g
           transform="translate(735.52002,367.20001)"
           id="g58"><path
             id="path60"
             style="fill:#000000;fill-opacity:1;fill-rule:nonzero;stroke:none"
             d="M 0,0 -0.48,1.28 -14.08,-4.48 -9.76,6.24 -5.44,-4.32 -16.16,0 -5.44,4.32 -9.76,-6.24 -14.24,4.32 -0.48,-1.44 0,0 -0.48,1.28 0,0 0.48,1.28 -19.360001,9.44 -9.76,-13.76 -0.32,9.44 -23.360001,0 -0.32,-9.6 -9.76,13.6 -19.360001,-9.6 3.84,0 0.48,1.28 Z" /></g><g
           transform="translate(299.51999,467.84)"
           id="g62"><path
             id="path64"
             style="fill:#000000;fill-opacity:1;fill-rule:nonzero;stroke:none"
             d="M 0,0 -0.64,1.28 -14.4,-4.32 -10.08,6.24 -5.6,-4.32 -16.16,0 -5.76,4.32 -10.08,-6.24 -14.4,4.32 -0.64,-1.28 0,0 -0.64,1.28 0,0 l 0.48,1.28 -20,8.16 9.44,-23.04 9.6,23.04 L -23.68,0 -0.32,-9.6 -10.08,13.6 -19.52,-9.6 3.68,0 0.48,1.28 Z" /></g><g
           transform="translate(572.47998,250.24)"
           id="g66"><path
             id="path68"
             style="fill:#000000;fill-opacity:1;fill-rule:nonzero;stroke:none"
             d="M 0,0 -0.48,1.28 -14.24,-4.32 -9.92,6.24 -5.6,-4.32 -16,0 -5.6,4.32 -9.92,-6.24 -14.24,4.32 -0.48,-1.28 0,0 -0.48,1.28 0,0 0.48,1.28 -19.360001,9.44 -9.92,-13.6 -0.32,9.44 -23.52,0 -0.32,-9.6 -9.92,13.6 -19.360001,-9.6 3.68,0 0.48,1.28 Z" /></g><g
           transform="translate(372.64001,301.76001)"
           id="g70"><path
             id="path72"
             style="fill:#000000;fill-opacity:1;fill-rule:nonzero;stroke:none"
             d="M 0,0 0.8,1.28 -2.24,3.2 -5.44,8.16 -8.48,3.2 -13.6,0 l 5.12,-3.04 3.04,-5.12 3.2,5.12 L 2.72,0 0.8,1.28 0,0 l -0.64,1.28 -3.68,-2.4 -1.12,-1.6 -1.12,1.6 -1.6,1.12 1.6,0.96 1.12,1.76 1.12,-1.76 3.68,-2.24 L 0,0 -0.64,1.28 Z" /></g><g
           transform="translate(442.56,338.88)"
           id="g74"><path
             id="path76"
             style="fill:#000000;fill-opacity:1;fill-rule:nonzero;stroke:none"
             d="M 0,0 0.8,1.28 -2.24,3.04 -5.44,8.16 -8.48,3.04 -13.44,0 l 4.96,-3.04 3.04,-5.12 3.2,5.12 L 2.72,0 0.8,1.28 0,0 -0.8,1.28 -4.32,-1.12 -5.44,-2.72 -6.4,-1.12 -8.16,0 -6.4,0.96 -5.44,2.72 -4.32,0.96 -0.8,-1.28 0,0 -0.8,1.28 Z" /></g><g
           transform="translate(541.28003,351.35999)"
           id="g78"><path
             id="path80"
             style="fill:#000000;fill-opacity:1;fill-rule:nonzero;stroke:none"
             d="M 0,0 0.64,1.28 -2.4,3.04 -5.44,8.16 -8.64,3.04 -13.6,0 -8.64,-3.04 -5.44,-8 -2.4,-3.04 2.72,0 0.64,1.28 0,0 -0.8,1.28 -4.48,-0.96 -5.44,-2.72 -6.56,-0.96 -8.16,0 l 1.6,1.12 1.12,1.6 0.96,-1.6 L -0.8,-1.12 0,0 -0.8,1.28 Z" /></g><g
           transform="translate(765.44,397.92001)"
           id="g82"><path
             id="path84"
             style="fill:#000000;fill-opacity:1;fill-rule:nonzero;stroke:none"
             d="M 0,0 0.64,1.28 -2.4,3.2 -5.44,8.16 -8.64,3.2 -13.6,0 -8.64,-3.04 -5.44,-8 -2.4,-3.04 2.72,0 0.64,1.28 0,0 -0.8,1.28 -4.32,-0.96 -5.44,-2.72 -6.56,-0.96 -8.16,0 -6.56,1.12 -5.44,2.88 -4.32,1.12 -0.8,-1.12 0,0 -0.8,1.28 Z" /></g><g
           transform="translate(497.76001,236.48)"
           id="g86"><path
             id="path88"
             style="fill:#000000;fill-opacity:1;fill-rule:nonzero;stroke:none"
             d="M 0,0 0.8,1.28 -2.24,3.2 -5.44,8.16 -8.48,3.2 -13.6,0 -8.48,-3.04 -5.44,-8 -2.24,-3.04 2.72,0 0.8,1.28 0,0 -0.64,1.28 -4.32,-0.96 -5.44,-2.72 -6.56,-0.96 -8.16,0 l 1.6,1.12 1.12,1.6 1.12,-1.6 3.68,-2.24 L 0,0 -0.64,1.28 Z" /></g><g
           transform="translate(530.56,299.67999)"
           id="g90"><path
             id="path92"
             style="fill:#000000;fill-opacity:1;fill-rule:nonzero;stroke:none"
             d="m 0,0 0.8,1.28 -5.92,3.52 -4.8,8 -4.96,-8 -7.839999,-4.8 7.839999,-4.8 4.96,-8 4.8,8 L 2.72,0 0.8,1.28 0,0 -0.64,1.28 -7.2,-2.88 -9.92,-7.36 -12.8,-2.88 -17.280001,0 -12.8,2.88 -9.92,7.36 -7.2,2.88 -0.64,-1.28 0,0 -0.64,1.28 Z" /></g><g
           transform="translate(703.35998,273.92001)"
           id="g94"><path
             id="path96"
             style="fill:#000000;fill-opacity:1;fill-rule:nonzero;stroke:none"
             d="m 0,0 0.64,1.12 -5.92,3.68 -4.8,7.84 -4.8,-7.84 -7.839999,-4.8 7.839999,-4.96 4.8,-7.84 4.8,7.84 L 2.72,0 0.64,1.12 0,0 l -0.8,1.12 -6.4,-4 -2.88,-4.48 -2.88,4.48 L -17.280001,0 -12.96,2.72 -10.08,7.2 -7.2,2.72 -0.8,-1.28 0,0 -0.8,1.12 Z" /></g><g
           transform="translate(336.32001,341.44)"
           id="g98"><path
             id="path100"
             style="fill:#000000;fill-opacity:1;fill-rule:nonzero;stroke:none"
             d="m 0,0 0.8,1.28 -5.92,3.52 -4.8,8 -4.96,-8 L -22.719999,0 -14.88,-4.8 -9.92,-12.64 -5.12,-4.8 2.72,0 0.8,1.28 0,0 -0.64,1.28 -7.2,-2.88 -9.92,-7.2 -12.8,-2.88 -17.440001,0 -12.8,2.88 -9.92,7.36 -7.2,2.88 -0.64,-1.12 0,0 -0.64,1.28 Z" /></g><g
           id="g102"><path
             id="path104"
             style="fill:#000000;fill-opacity:1;fill-rule:nonzero;stroke:none"
             d="m 681.59998,328.32001 -0.47998,1.44 c 0,0 -0.15998,0 -0.64002,-0.32001 -0.47998,0 -0.95996,-0.32 -1.44,-0.64001 -0.79999,-0.31998 -1.75995,-0.47998 -2.71997,-0.47998 -0.96003,0 -1.91999,0 -2.88001,0.16 -0.15997,0 -0.47998,0.16 -1.11999,0.31998 -1.28003,0.64001 -2.40003,1.6 -3.52002,2.72 -0.64002,0.64001 -1.12,1.12002 -1.59998,1.60001 -0.32001,0.32 -0.48004,0.32 -0.79999,0.48001 l -1.92004,1.27999 -0.15997,-2.23999 c 0,-0.96002 -0.16004,-1.12002 -0.47998,-1.28002 v -0.15998 c -0.32001,-0.16 -0.64002,-0.32001 -1.28003,-0.32001 -0.47998,0 -0.79999,0.16001 -0.96002,0.47999 l -1.27997,1.44 -1.12,-1.59998 c -0.16003,-0.16 -0.16003,-0.16 -0.16003,-0.32001 h -0.15998 0.15998 0.16003 l -0.16003,0.16001 V 330.88 h 0.16003 l -0.16003,0.16001 v -0.16001 0.16001 -0.16001 0.16001 c -0.47998,0 -0.95996,0 -1.59998,-0.16001 -0.15997,0 -0.32,0 -0.47998,0 H 656 l -0.32001,-0.95999 c -0.15997,-0.16 -0.15997,-0.32 -0.15997,-0.48001 -0.16004,-0.48001 -0.32001,-0.79999 -0.48004,-0.95999 0,0 0,-0.16 -0.32001,-0.48001 l 0.32001,-0.32001 V 328.16 c 0,0.16001 -0.32001,-0.16 -0.32001,-0.16 l 0.32001,-0.32001 v 0.48001 -0.32 l 0.16003,0.32 c 0,0 0,0 -0.16003,0 v -0.32 l 0.16003,0.32 c 0,0 0,0 -0.16003,0.16001 -0.47998,0 -0.79999,0.47998 -1.27997,0.79999 -0.32001,0.32 -0.64001,0.64001 -0.96002,0.95999 -0.32001,0.16 -0.32001,0.16 -0.32001,0.32 L 650.08002,332 v -2.88 c 0,-0.16001 0,-0.32001 0,-0.47999 0,-0.16 0,-0.32 0,-0.48001 0.15997,-0.16 0.15997,-0.32 0.15997,-0.32 0,-0.32001 -0.15997,-0.63999 -0.15997,-1.12 -0.48004,-1.11999 -1.12,-2.23999 -1.92005,-3.36001 -0.79999,-1.12 -1.75995,-1.91999 -2.87994,-2.71998 -1.12006,-1.12002 -2.56006,-2.08001 -4.16003,-2.72 -0.32001,0 -0.64002,0 -0.96003,-0.16 -0.15997,0 -0.31994,0 -0.63995,-0.16 L 637.91998,317.28 638.56,315.67999 c 0.15997,-0.16 0.15997,-0.32 0.15997,-0.47998 0.32001,-0.48001 0.48004,-0.96002 0.64001,-1.44 0.32001,-0.32001 0.32001,-0.64001 0.32001,-0.96002 0,-0.31998 -0.15997,-0.79999 -0.47998,-1.44 -0.32001,-0.79999 -1.11999,-1.59998 -1.91998,-2.4 -0.16003,-0.31998 -0.48004,-0.31998 -0.64002,-0.63998 l -1.28003,-1.12 1.44001,-0.96002 c 0.32001,-0.31998 0.64001,-0.47998 0.96002,-0.79999 0.79999,-0.32 1.27997,-0.79999 1.44,-1.44 0.32001,-0.16 0.32001,-0.64001 0.47998,-0.95999 0,-0.16001 0,-0.16001 0,-0.32001 0,-1.11999 -0.47998,-2.23999 -1.27997,-3.51999 -0.32,-0.48001 -0.80004,-1.12002 -1.28002,-1.92001 0,0 -0.32001,-0.48001 -0.47999,-0.79999 l -0.32,-2.24002 2.23999,0.64001 c 0,0 0,0 0.15997,0 0,0.16001 0,0.16001 0.32001,0.16001 1.44,0.79999 3.04004,1.75998 4.48004,2.88 1.27997,1.12 2.71997,2.4 3.83996,3.68 0.79999,1.11999 1.60004,2.07998 2.24,3.04 1.11999,1.43998 1.92004,3.03998 2.72003,4.63999 0.79999,1.6 1.59997,3.20001 2.39996,4.79999 0.64001,1.28 1.28003,2.40002 1.92004,3.36001 0.64002,0.48001 1.12,0.63999 1.59998,0.79999 0,0 0.16003,0 0.16003,-0.16 0.15998,0 0.15998,0 0.31995,0 V 318.88 l -0.47998,-0.48001 c 0.32001,-0.32 0.47998,-0.32 0.47998,-0.32 V 318.88 l -0.47998,-0.48001 0.64001,0.64002 h -0.96002 c 0,0 0.16004,-0.48001 0.32001,-0.64002 l 0.64001,0.64002 h -0.96002 0.32001 -0.32001 0.32001 -0.32001 c 0,0 0,0 -0.15997,-0.16001 v -0.16 c 0,-0.16 0,-0.64001 0,-0.95999 0,-0.64001 0,-1.12 0.15997,-1.44 0.16004,-0.32001 0.32001,-0.48001 0.32001,-0.80002 0.32001,-0.47998 0.47998,-0.63999 0.47998,-0.63999 l 0.80005,-0.95999 0.95996,0.79999 c 0.96002,0.48001 1.28003,1.28 1.60004,1.92001 0.32,0.15998 0.63995,0.15998 1.11999,0.15998 l -0.32001,0.96002 v -0.96002 c 0.15998,0 0.15998,0 0.32001,0 l -0.32001,0.96002 v -0.96002 1.12002 L 662.08002,317.44 c 0,-0.16 0.47998,-0.64001 0.79998,-0.64001 v 1.12002 L 662.08002,317.44 c 0.32,-0.64001 0.79998,-1.11999 1.44,-1.44 C 663.67999,315.84 664,315.84 664,315.84 l 0.79999,-0.32001 0.64001,0.64001 c 0.64002,0.63999 0.96002,1.28 0.79999,1.91999 0,0.16 0,0.48001 0,0.48001 v 0.16 c -0.15997,0.79999 -0.47998,1.44 -0.95996,2.07999 0,0.16 0,0.16 0,0.16 C 665.12,321.12 665.12,321.28 665.12,321.28 l -0.64002,-0.32001 h 0.80005 c 0,0.16001 -0.16003,0.32001 -0.16003,0.32001 l -0.64002,-0.32001 h 0.80005 -0.96002 l 0.47998,-0.79999 c 0,0 0.48004,0.48001 0.48004,0.79999 h -0.96002 l 0.47998,-0.79999 -0.32001,0.32001 0.32001,-0.32001 -0.32001,0.32001 0.32001,-0.32001 c 0,0 0,0 0.16003,0 0.15998,0 0.47998,0 0.79999,0 0.15997,0 0.32001,0 0.64001,0 0.47998,0 0.95996,0 1.59998,0 0.96002,-0.16 1.59998,-0.48001 2.23999,-0.95999 1.28003,-0.80002 2.40002,-1.76001 3.35999,-2.88 0.96002,-1.12 2.24005,-1.92002 3.52002,-2.4 3.52001,-1.6 7.20001,-2.72 11.20001,-3.36001 1.44,-0.16001 2.88,-0.48001 4.32,-0.48001 0.15998,0 0.32001,0 0.47999,0 0,0 0.47998,0 0.96002,0.32 l 1.91998,1.28 -1.91998,1.12 c -0.32001,0.16 -0.48004,0.32001 -0.64002,0.32001 -0.96002,0.48001 -1.76001,1.27999 -2.40002,2.08001 -0.63996,0.79999 -1.12,1.59998 -1.44,2.56 -0.31995,0.47998 -0.31995,1.11999 -0.31995,1.75998 l -0.48004,-0.16 h 0.48004 v 0.16 l -0.48004,-0.16 h 0.48004 -0.48004 l 0.48004,-0.15998 v 0.15998 h -0.48004 l 0.48004,-0.15998 c 0,0 0,0 0,0.15998 l 1.75995,1.76001 -2.23999,0.64001 c -0.15998,0 -0.15998,0 -0.47998,0 h -0.16004 c -0.47998,0 -1.11999,0.47998 -1.75995,1.11999 -0.96002,0.79999 -1.76001,1.91999 -2.55999,3.19999 -0.16004,0.64001 -0.48005,1.12002 -0.80005,1.92001 0,0 0,0.32001 -0.15998,0.79999 l -0.32,1.28 -1.44,-0.31998 0.47998,-1.44 L 680.15997,328 c 0,-0.32001 0.16004,-0.64001 0.32001,-1.12 0.16003,-0.64001 0.64002,-1.27999 0.96002,-2.08001 0.79999,-1.44 1.76001,-2.87998 3.03998,-4.15998 h -0.15997 c 0.96002,-0.64001 2.23999,-1.44 3.67999,-1.6 h -0.15997 l 0.15997,0.63998 -0.15997,-0.63998 0.15997,0.63998 -0.15997,-0.63998 c 0,0 0,0 0.15997,0 l 0.32001,1.28 -0.96003,0.95999 c -0.32,-0.32001 -0.79998,-0.95999 -0.95996,-1.92001 0,0 0.15998,0 0.15998,-0.15998 0,-0.64001 0,-1.6 0.47998,-2.40002 0.48004,-1.28 1.11999,-2.23999 1.76001,-3.19998 0.96002,-1.12 1.91998,-2.24002 3.20001,-2.88001 0.15997,0 0.32001,-0.16 0.47998,-0.32001 l 0.80005,1.12 -0.80005,1.28 L 693.12,312 l -0.15998,0.95999 c -0.16003,0 -0.32001,0 -0.48004,-0.16 L 693.12,312 692.96002,312.95999 693.12,312 v 0.95999 c 0,0 0,0 -0.15998,0 L 693.12,312 v 0.95999 c -0.15998,0 -0.32001,0 -0.47999,0 -1.11999,0 -2.55999,0.16001 -3.84002,0.32001 -3.67999,0.64001 -7.20001,1.76001 -10.56,3.20001 -0.95996,0.31998 -1.76001,0.95999 -2.56,1.75998 -1.11999,1.28 -2.23999,2.24002 -3.67999,3.20001 -1.28003,0.79999 -2.40002,1.44 -3.84003,1.44 -0.47998,0 -1.11999,0 -1.75995,0.16001 -0.16003,0 -0.48004,0 -0.64001,0 -0.47998,0 -0.96002,0 -1.44,-0.16001 -0.32001,0 -0.64002,-0.16 -1.12,-0.48001 -0.32001,-0.16 -0.96002,-0.79998 -0.79999,-1.44 0,-0.79999 0.15998,-1.11999 0.47998,-1.6 h 0.15998 c 0.16003,-0.47999 0.32,-0.79999 0.48004,-1.12 0,-0.16 0,-0.16 0,-0.16 l 0.15997,-0.15998 -0.15997,0.15998 0.15997,-0.15998 -0.15997,0.15998 0.95996,-0.95999 0.48004,1.44 c -0.16003,0 -0.16003,0 -0.16003,0 -0.15998,0 -0.32001,0.16 -0.32001,0.16 -0.15997,0.32001 -0.79999,0.95999 -1.59998,0.95999 -0.16003,0 -0.32,0 -0.47998,-0.16 -0.32,0 -0.80004,0 -0.96002,-0.16 -0.96002,-0.15998 -1.91998,-0.79999 -2.08002,-1.91999 -0.15997,-0.32 -0.32,-0.32 -0.47998,-0.48001 l 0.96003,-1.11999 1.11999,0.95999 c -0.16003,0 -0.16003,0 -0.16003,0 l -0.64002,-0.47998 0.64002,0.47998 c 0,0 0,0 0,0 l -0.64002,-0.47998 0.64002,0.47998 c 0,0 -0.15998,0.16 -0.15998,0.32001 -0.16003,0.32 -0.16003,0.64001 -0.16003,0.64001 0,0.16 0,0.16 0,0.16 0,0.15998 0.16003,0.31998 0.16003,0.63999 0.15998,0 0.15998,0.32 0.15998,0.48001 0,0.47998 -0.32001,1.11999 -0.64002,1.44 -0.31994,0.31998 -0.79999,0.47998 -1.27997,0.47998 0,0 -0.16003,0 -0.16003,0 l -0.15997,-1.44 0.15997,1.44 c -0.15997,0 -0.31995,0 -0.47998,0 -1.59998,0 -2.71997,-0.79999 -3.52002,-1.75998 -1.27997,-1.28 -1.91998,-2.56 -2.56,-4 -0.79999,-1.6 -1.59997,-3.20001 -2.39996,-4.80002 -0.79999,-1.44 -1.60004,-2.72 -2.40003,-4.16 -0.79998,-0.95999 -1.44,-1.91998 -2.07995,-2.72 -1.12006,-1.28 -2.24005,-2.39999 -3.68005,-3.51999 -1.12,-0.95999 -2.39997,-1.60001 -3.83997,-2.39999 l 0.32001,-0.64002 -0.16004,0.64002 h -0.15997 l 0.32001,-0.64002 -0.16004,0.64002 c 0,0 -0.15997,0 -0.32,0 l 0.48004,-1.44001 1.44,-0.16 -0.80005,0.16 0.64001,-0.48001 c 0,0.16001 0.16004,0.32001 0.16004,0.32001 l -0.80005,0.16 0.64001,-0.48001 -0.32,0.32001 0.32,-0.32001 -0.32,0.32001 0.32,-0.32001 c 0.48005,0.64002 0.96003,1.28 1.44001,2.08002 0.96002,1.44 1.60003,3.19998 1.60003,4.95999 0,0.16 0,0.32001 0,0.48001 0,0.79999 -0.32,1.59998 -0.64001,2.23999 -0.64001,1.12 -1.60004,1.91999 -2.56,2.56 -0.16003,0 -0.48004,0.16 -0.79999,0.48001 l -0.80004,-1.12002 1.11999,-0.96 c 0.16003,0.16001 0.32001,0.32001 0.48004,0.48001 0.95996,0.79999 2.08002,1.76001 2.71997,3.51999 0.32001,0.64002 0.64002,1.60001 0.64002,2.4 0,0.80002 -0.15998,1.44 -0.64002,2.08001 -0.15997,0.47999 -0.47998,1.12 -0.47998,1.44001 -0.15997,0.16 -0.15997,0.32 -0.32,0.47998 l -1.27997,-0.47998 0.31994,-1.44001 c 0.16004,0 0.32001,0 0.64002,0.16001 0.32001,0.16 0.79999,0.16 1.28003,0.31998 2.07995,0.64001 3.67999,1.92001 5.11999,3.04 1.12,0.96 2.23999,2.08002 3.20001,3.20002 0.79999,1.27999 1.75995,2.55999 2.39997,4.16 0,0.63998 0.16003,1.44 0.16003,2.07999 0,0.16 0,0.48001 0,0.64001 0,0 0,0 0,0.16 0,0.15998 0,0.15998 0,0.47999 h -1.28003 L 650.71997,328 c 0.16003,0 0.16003,0 0.16003,-0.16 l 0.32001,0.64001 L 650.88,328 c 0,-0.16 0,-0.16 0,-0.16 l 0.32001,0.64001 L 650.88,328 c 0.32001,-0.32001 0.64002,-0.64001 0.96003,-0.95999 0.63995,-0.48001 1.27997,-0.96002 2.07995,-1.44 0.32001,0 0.64002,-0.16001 1.12,-0.16001 0.64001,-0.16 1.28003,0.16001 1.76001,0.63999 0.16003,0.16 0.48004,0.48001 0.79999,1.12002 0.32,0.47998 0.32,0.95999 0.48004,1.28 0.15997,0.16 0.15997,0.31998 0.15997,0.47998 L 656.96002,329.44 657.12,328 c 0.16003,0 0.32,0.16 0.47998,0.16 0.48004,0 1.11999,0 1.60003,0 0.64002,0 1.59998,0.32001 2.08002,1.12 v -0.16 c 0.15997,0.32 0.15997,0.32 0.31995,0.48001 l -1.12,0.79998 -1.12,-0.95999 c 0.79999,-1.11999 2.24,-1.44 3.20002,-1.44 0,0 0,0 0,0 1.11999,0 2.23999,0.32001 3.20001,1.12 0.95996,0.95999 1.27997,2.23999 1.27997,3.20001 l -1.27997,0.16 -0.96002,-1.28 c 0.32001,0 0.32001,-0.16 0.48004,-0.16 v 0 0.16 -0.16 c 0,0 0,0 0,0 v 0.16 -0.16 c 0.47998,-0.48001 1.11999,-0.96002 1.59997,-1.44 1.12,-1.28 2.56,-2.4 4.32001,-3.20002 0.47998,-0.32 1.27997,-0.79998 2.23999,-0.79998 0.96002,0 1.91998,0 2.71997,0 0.16004,0 0.16004,0 0.16004,0 1.44,0 2.55999,0.16 4,0.79998 0.32,0.16001 0.79999,0.32001 1.27997,0.48001 l -0.15998,0.32001 0.15998,-0.32001 -0.15998,0.32001 0.15998,-0.32001 c 0,0 0,0.16001 0.32,0.16001 l -0.32,1.28 L 680.15997,328 Z" /></g><g
           id="g106"><path
             id="path108"
             style="fill:#000000;fill-opacity:1;fill-rule:nonzero;stroke:none"
             d="m 297.28,407.20001 -0.16,-1.28 v 0 l 0.16,0.31998 -0.16,-0.31998 0.16,0.31998 -0.16,-0.31998 c 0.32,-0.16 0.64001,-0.32 0.80001,-0.32 0.95999,-0.64002 1.91999,-0.64002 2.87998,-0.64002 0,0 0,0 0,0 0.64001,0 1.28,0 1.92001,0 0.79999,0 1.44,0.48001 1.76001,0.64002 1.12,0.47998 2.07999,1.27999 2.87998,2.07998 0.32,0.32001 0.64001,0.64002 1.12002,1.12 L 308,409.12 l 0.48001,-0.47999 c 0,0 0,0 0,0.15998 L 308,409.12 l 0.48001,-0.47999 c 0,0 0,0.15998 0,0.15998 l -0.64001,1.12002 h -1.60001 c 0.16,-0.80001 0.48001,-1.76001 1.12,-2.56002 0.64001,-0.47999 1.6,-0.79999 2.40002,-0.79999 h 0.16 c 0.79999,0 1.75998,0.32 2.4,1.11999 l -1.12,0.96002 -1.12002,-0.80001 c 0,-0.16001 0.16,-0.16001 0.32,-0.32001 0.32001,-0.47998 1.12,-0.95999 1.76001,-0.95999 0.32001,0 0.63999,0 0.96,0 0.16,0 0.16,0 0.32,0 V 408 l -1.11999,-0.48001 c 0,-0.16 0,-0.31998 0,-0.31998 0,-0.16 0.16,-0.64001 0.47998,-0.96002 0.16,-0.47998 0.48001,-0.63998 0.64001,-0.63998 0.16001,-0.64002 0.79999,-0.80002 1.28,-0.80002 0.48001,0 0.79999,0.16 0.95999,0.16 0.64002,0.32001 1.12,0.64002 1.44001,1.12 0.32,0.16 0.64001,0.48001 0.80001,0.48001 l -0.16,0.16 0.16,-0.16 -0.16,0.16 0.16,-0.16 -0.80001,1.28 h -1.44001 c 0,-0.16001 0,-0.32001 0,-0.32001 0,-0.16 0,-0.16 0,-0.16 0,-0.15998 -0.16,-0.15998 -0.16,-0.47999 0,-0.48001 0.16,-0.95999 0.32001,-1.44 v 0.16001 c 0.48001,-1.28 0.95999,-2.24002 1.76001,-3.04001 0.63998,-0.79999 1.27999,-1.60001 2.07998,-2.23999 0.96002,-0.80002 2.08002,-1.60001 3.52002,-2.08002 0.47998,-0.16 0.63999,-0.16 0.95999,-0.31998 0.16001,0 0.16001,0 0.32001,0 l 0.31998,1.43998 -1.28,0.48001 c 0,-0.16001 0,-0.16001 -0.16,-0.32001 -0.15998,-0.16 -0.15998,-0.47998 -0.31998,-0.95999 -0.32001,-0.48001 -0.48001,-0.95999 -0.48001,-1.60001 0,-0.63998 0.16,-1.28 0.48001,-1.75998 0.47998,-1.12002 1.28,-1.92001 1.91998,-2.40002 0.16001,-0.15998 0.16001,-0.31998 0.32001,-0.31998 l 1.11999,0.95999 -0.95999,1.12 c -0.16,-0.16001 -0.32,-0.32001 -0.48001,-0.32001 -0.63998,-0.47998 -1.28,-0.95999 -1.75998,-1.75998 C 322.88,392 322.56,391.35999 322.56,390.72 c 0,-0.16 0,-0.16 0,-0.32001 0,-1.27999 0.64001,-2.55999 1.11999,-3.51999 0.48001,-0.64001 0.80002,-0.95999 1.12,-1.44 l 0.48001,0.48001 -0.48001,-0.32 c 0,-0.16001 0,-0.16001 0,-0.16001 l 0.48001,0.48001 -0.48001,-0.32 0.80002,0.32 h -0.96 c 0,-0.16 0,-0.32 0.15998,-0.32 l 0.80002,0.32 h -0.96 l 1.28,0.15998 0.47998,1.44 h -0.16 l -0.31998,-0.95999 0.47998,0.95999 c 0,0 -0.16,0 -0.16,0 l -0.31998,-0.95999 0.47998,0.95999 c -0.95999,0.32001 -1.6,0.96002 -2.39999,1.44 -0.79999,0.80002 -1.60001,1.44 -2.39999,2.24002 -0.48001,0.63999 -0.80002,1.28 -1.28,1.75998 -0.64002,0.80002 -1.12,1.76001 -1.60001,2.72 -0.48001,1.12 -0.95999,2.24002 -1.6,3.20001 -0.47999,0.79999 -0.96,1.76001 -1.76001,2.72001 v 0.16 -0.16 c -0.47999,0.63998 -1.43998,1.27999 -2.71998,1.27999 0,0 -0.16,0 -0.32,0 0,0 0,0 -0.16001,0 l 0.16001,-1.44 -0.16001,1.44 c -0.32,0 -0.64001,0 -0.95999,-0.48001 -0.48001,-0.32 -0.64001,-0.79998 -0.64001,-1.27999 0,-0.16001 0.16,-0.32001 0.16,-0.47999 0,-0.16 0,-0.32 0,-0.48001 l 0.32001,0.16001 H 310.72 V 400.16 l 0.32001,0.16001 H 310.72 c 0,0 0,-0.16001 0,-0.16001 0,-0.16 0,-0.16 -0.16,-0.32 l 0.79999,-0.32001 L 310.72,400 c 0,0 0,0 -0.16,-0.16 l 0.79999,-0.32001 L 310.72,400 c 0,0 0,0 0,-0.16 l 0.95999,-0.79999 0.80002,1.11999 h -0.16 0.16 v 0 h -0.16 0.16 v 0 c -0.16,0.96 -0.96002,1.60001 -1.76001,1.60001 -0.16,0.16 -0.48001,0.16 -0.64001,0.16 -0.15998,0.15998 -0.31998,0.15998 -0.47998,0.15998 -0.64002,0 -1.28,-0.47998 -1.44001,-0.95999 h 0.16001 -0.16001 0.16001 l 0.16,-0.32001 -0.16,0.48001 c 0,0 0,0 0,-0.16 l 0.16,-0.32001 -0.16,0.48001 -0.16001,-0.16 0.32001,-1.28 1.12,0.95999 -0.48001,-0.31998 h 0.64001 c 0,0.16 -0.16,0.31998 -0.16,0.31998 L 309.12,400.48001 h 0.64001 c 0,0 0,0 0,0.16 0,0 0,0.15998 0.31998,0.47999 l -1.28,0.64001 1.28,-0.64001 -1.28,0.80001 1.28,-0.80001 c 0,0.32 0.32,0.64001 0.48001,1.27999 0,0.48001 -0.48001,1.28 -0.95999,1.44001 -0.32001,0.16 -0.64002,0.16 -0.80002,0.32 -0.31998,0.16001 -0.79999,0.16001 -0.95999,0.16001 -0.32001,0 -0.48001,0 -0.48001,0 -0.47999,-0.16001 -0.96,-0.16001 -1.28,-0.16001 -0.79999,-0.16 -1.91999,-0.32 -2.72,-0.95999 -0.79999,-0.80002 -1.75998,-1.44 -2.56,-2.24002 C 300.32001,400.48001 299.84,400.16 299.20001,400 c -2.08001,-0.95999 -4.32001,-1.76001 -6.72,-2.07999 -0.80002,-0.16 -1.60001,-0.32 -2.56,-0.32 0,0 0,0 -0.16,0 v -1.12 l 0.63998,0.95999 c -0.32,0.16001 -0.47998,0.16001 -0.63998,0.16001 v -1.12 l 0.63998,0.95999 -0.79998,-1.11999 0.63998,-1.28 c 0.32001,0.16 0.32001,0.16 0.32001,0.16 1.11999,0.47998 1.76001,1.12 2.39999,2.07999 0.48001,0.64001 0.96002,1.28 1.28,2.23999 0.16,0.64001 0.32001,1.12002 0.32001,1.60001 0,0.16 0,0.16 0,0.16 0,0.95999 -0.48001,1.6 -0.79999,1.76001 l -0.96002,-1.12 0.48001,-1.28 c 0,0 0,0 0,0 l -0.16,0.96 0.16,-0.96 c 0,0 0,0 0,0 l -0.16,0.96 0.16,-0.96 -0.32001,1.43998 0.32001,-1.43998 c 1.11999,0.15998 1.92001,0.63999 2.39999,1.28 0.96002,0.95999 1.60001,1.91999 2.08002,2.72 0.31998,0.47999 0.47998,0.96 0.79999,1.43998 0.16,0.48001 0.16,0.80001 0.16,0.96002 l -1.44,0.16 -0.16,-1.28 0.16,1.28 -1.28,0.47998 c 0,-0.16 0,-0.47998 0,-0.47998 v 0 0 0 c 0,0 0,0 0,0 v 0 0 0 c -0.32001,-0.48001 -0.48001,-0.80002 -0.64001,-1.12002 -0.47999,-0.95999 -0.96,-1.59998 -1.59998,-2.07999 -0.32001,-0.32001 -0.64001,-0.64001 -0.96002,-0.64001 -0.15998,0 -0.31998,0 -0.31998,0 L 290.07999,402.72 291.84,400.95999 292,401.12 l -0.16,-0.16001 0.16,0.16001 -0.16,-0.16001 0.80001,0.32001 h -0.96002 c 0,-0.16 0.16001,-0.16 0.16001,-0.32001 l 0.80001,0.32001 h -0.96002 0.96002 l -0.96002,0.16 c 0,0 0,0 0,-0.16 h 0.96002 l -0.96002,0.16 c 0,-0.32 0,-0.79999 0,-0.95999 -0.32,-0.48001 -0.63998,-0.96002 -0.95999,-1.44 -0.48001,-0.64002 -0.79999,-1.12 -1.44,-1.28 -0.16,-0.16 -0.32001,-0.32001 -0.32001,-0.32001 l -2.07999,-1.11999 2.07999,-1.28 c 0,-0.16001 0.32001,-0.16001 0.48001,-0.32001 0.16001,0 0.32001,0 0.32001,0 0.16,0 0.16,0 0.16,0 1.12,0 2.07999,0.16 3.03998,0.32001 2.56,0.47998 5.12,1.28 7.52002,2.39999 0.95999,0.32001 1.59998,0.79999 2.39999,1.60001 0.63999,0.63998 1.28,1.28 2.24,1.75998 0.32,0.32001 0.64001,0.48001 1.11999,0.48001 0.48001,0 0.80002,0.16 1.12,0.16 0.16,0 0.32,0 0.48001,0 0.16,0 0.16,0 0.32,0 0.16001,-0.16 0.16001,-0.16 0.16001,-0.16 l 0.16,0.79999 L 308,401.60001 c 0.16,-0.32001 0.32001,-0.32001 0.32001,-0.32001 l 0.16,0.79999 -0.48001,-0.47998 0.79999,0.79998 h -1.12 c 0,-0.32 0.16001,-0.63998 0.32001,-0.79998 l 0.79999,0.79998 h -1.12 0.80002 l -0.80002,0.48001 c 0,-0.16 0,-0.32 0,-0.48001 h 0.80002 L 307.67999,402.88 308,402.72 l -0.32001,0.16 0.32001,-0.16 -0.32001,0.16 c 0,0 0,0 0,-0.16 v -0.16 c -0.32,-0.32001 -0.63998,-0.79999 -0.79999,-1.60001 0,-0.16 0,-0.31998 0,-0.47998 0,-0.32001 0.16001,-1.12002 0.63999,-1.60001 l 0.64001,-0.64001 0.79999,0.32001 c 0,0 0.16001,0 0.64002,0.16 0.32,0.32001 0.79998,0.63999 1.11999,0.95999 l -1.11999,0.64002 v -1.12 c 0.47998,0 1.11999,0.31998 1.11999,0.47998 l -1.11999,0.64002 v -1.12 1.12 l -0.16001,-1.12 c 0,0 0.16001,0 0.16001,0 v 1.12 l -0.16001,-1.12 c 0.16001,0 0.48001,-0.16 0.63999,-0.16 l 0.16,0.47998 -0.31998,-0.31998 c 0.15998,-0.16 0.15998,-0.16 0.15998,-0.16 l 0.16,0.47998 -0.31998,-0.31998 0.31998,0.31998 h -0.47998 c 0,-0.16 0.16,-0.31998 0.16,-0.31998 l 0.31998,0.31998 h -0.47998 c 0.16,-0.47998 0.47998,-1.12 1.11999,-1.59998 L 312,397.12 l 0.79999,0.95999 c 0,0 0,0 0,0.16 0,0 0.16,0.16 0.32001,0.32001 0.16,0.16 0.16,0.48001 0.32,0.48001 0,0.31998 0.16001,0.79999 0.16001,1.28 0,0.32 -0.16001,0.47998 -0.16001,0.79999 l -1.28,-0.47999 1.28,0.47999 c 0,0 0,0.16 0,0.16 l -0.79999,-0.16 H 313.44 v 0.16 l -0.79999,-0.16 h 0.79999 -1.11999 l 0.63998,-0.79999 c 0.32001,0.32 0.48001,0.63998 0.48001,0.79999 h -1.11999 l 0.63998,-0.79999 -0.63998,0.63998 0.16,-0.79999 c 0,0 0.31998,0 0.47998,0.16001 l -0.63998,0.63998 0.16,-0.79999 -0.16,0.63999 0.16,-0.63999 -0.16,0.63999 0.16,-0.63999 c 0,0 0,0 0.16,0 0.15998,0 0.31998,0 0.79999,-0.48001 0.48001,-0.47998 0.79999,-1.28 1.12,-2.07998 0.48001,-0.96 1.11999,-2.08002 1.6,-3.20002 0.48001,-0.95999 1.12,-1.91998 1.91999,-3.04 0.32,-0.63999 0.80001,-1.28 1.44,-2.07999 0.80002,-0.79999 1.76001,-1.76001 2.56,-2.4 1.12002,-0.95999 2.08001,-1.44 3.04001,-2.08001 0.16,0 0.32,0 0.32,0 0.16001,0 0.16001,0 0.16001,0 l 0.16,0.32001 -0.16,-0.32001 0.16,0.32001 -0.16,-0.32001 2.07998,-0.63999 -0.32,2.23999 c 0,0.32001 -0.31998,0.64002 -0.31998,0.64002 -0.32001,0.47998 -0.64002,0.95999 -0.80002,1.28 -0.47998,0.79999 -0.79999,1.44 -0.79999,2.07998 V 390.56 c 0,0.16 0,0.32 0.16001,0.48001 0.16,0.31998 0.32,0.47998 0.79998,0.79999 0.32001,0.16 0.64002,0.32 0.64002,0.48001 l 1.44,0.95999 -1.12002,1.11999 C 327.04001,394.56 327.04001,394.72 326.88,394.88 c -0.64001,0.47999 -0.95999,0.96 -1.27999,1.44001 -0.16001,0.32 -0.16001,0.47998 -0.16001,0.63998 0,0.16001 0,0.32001 0,0.48001 0.32001,0.32001 0.48001,0.63999 0.48001,0.95999 0,0.16001 0.15998,0.16001 0.15998,0.32001 l 0.80001,1.60001 -1.76,0.32 c -0.16001,0 -0.32001,0 -0.32001,0 -0.31998,0.15998 -0.47998,0.15998 -0.63999,0.31998 -0.95999,0.16001 -1.76001,0.80002 -2.55999,1.60001 -0.80002,0.48001 -1.28,1.11999 -1.76001,1.76001 -0.63999,0.63998 -0.96,1.28 -1.28,2.07998 0,0.16001 -0.16001,0.32001 -0.16001,0.48001 0,0.16001 0,0.16001 0,0.32001 0,0 0.16001,0.15998 0.16001,0.31998 0,0.16 -0.16001,0.16 -0.16001,0.32001 v 2.72 L 316.16,408.95999 c 0,0 0,0 -0.16,-0.16 l 0.95999,-1.12 -0.95999,1.12 c -0.32001,-0.31998 -0.48001,-0.47998 -0.64001,-0.63999 -0.31998,-0.32 -0.47999,-0.48001 -0.79999,-0.48001 l 0.16,-0.47998 v 0.47998 c -0.16,0 -0.16,0 -0.16,0 l 0.16,-0.47998 v 0.47998 -0.95999 l 0.63999,0.63999 c 0,0.16 -0.31998,0.32 -0.63999,0.32 V 406.72 l 0.63999,0.63999 c 0,0.16 -0.15998,0.16 -0.15998,0.32 l -0.32001,-0.32 0.32001,0.32 -0.32001,-0.32 0.32001,0.32 c 0,0 -0.16,0.16001 -0.16,0.48001 0,0.16001 -0.16001,0.16001 -0.16001,0.32001 l -0.48001,0.79999 h -0.79998 c -0.16001,0 -0.16001,0.16 -0.32001,0.16 -0.48001,0 -0.79999,0 -1.12,0 v -0.64001 l 0.48001,0.48001 c -0.16,0 -0.32,0.16 -0.48001,0.16 v -0.64001 l 0.48001,0.48001 c 0,0 -0.16,0 -0.16,0.16 l -1.12002,1.60001 -1.28,-1.60001 c 0,0 0,0 -0.31998,-0.16 -0.16,0 -0.16,0.16 -0.48001,0.32001 0,0 0,0 -0.16,0.47998 l -0.16001,2.56002 -2.07999,-1.6 c 0,0 0,0 -0.48001,-0.32001 -0.16,-0.32001 -0.63998,-0.64001 -0.95999,-0.95999 -0.79999,-0.80002 -1.44,-1.28 -2.23999,-1.60001 -0.32001,-0.32 -0.64001,-0.32 -0.64001,-0.32 -0.63999,-0.16001 -1.12,-0.16001 -1.76001,-0.16001 -0.63999,0 -1.12,0.16001 -1.59998,0.48001 -0.32001,0.16001 -0.64001,0.16001 -0.96002,0.32001 -0.31998,0.16 -0.47998,0.16 -0.63998,0.16 l -1.28,0.31998 -0.32001,-1.28 z" /></g><g
           transform="translate(552.64001,381.12)"
           id="g110"><path
             id="path112"
             style="fill:#000000;fill-opacity:1;fill-rule:nonzero;stroke:none"
             d="M 0,0 0.64,1.12 0,1.6 -0.48,2.4 -1.6,4.32 -3.36,1.6 -4.16,1.12 -6.08,0 -3.36,-1.76 -2.88,-2.4 -1.6,-4.48 0,-1.76 0.64,-1.12 2.72,0 0.64,1.12 0,0 -0.8,1.12 -1.76,0.48 h -0.32 l -0.8,-1.44 1.28,-0.8 1.12,0.8 L -1.12,0 -1.28,0.48 -2.56,1.12 -3.36,0 l 0.8,-1.12 0.96,0.48 0.32,0.32 0.8,1.28 L -1.6,1.76 -2.88,0.96 -2.24,0 -2.08,-0.32 -0.8,-1.12 0,0 -0.8,1.12 Z" /></g><g
           transform="translate(309.60001,438.07999)"
           id="g114"><path
             id="path116"
             style="fill:#000000;fill-opacity:1;fill-rule:nonzero;stroke:none"
             d="M 0,0 0.8,1.12 0,1.6 -0.48,2.4 -1.6,4.32 -3.36,1.6 -4.16,1.12 -6.08,0 -3.36,-1.76 -2.88,-2.56 -1.6,-4.48 0,-1.76 0.8,-1.28 2.72,0 0.8,1.12 0,0 -0.64,1.12 -1.76,0.48 -2.08,0.32 l -0.8,-1.28 1.28,-0.8 1.12,0.8 L -1.12,0 -1.28,0.32 -2.72,1.12 -3.36,0 l 0.64,-1.28 1.12,0.64 0.32,0.16 0.8,1.44 -1.12,0.8 -1.28,-0.8 0.64,-1.12 0.16,-0.32 1.44,-0.8 L 0,0 -0.64,1.12 Z" /></g><g
           transform="translate(467.04001,256.79999)"
           id="g118"><path
             id="path120"
             style="fill:#000000;fill-opacity:1;fill-rule:nonzero;stroke:none"
             d="M 0,0 0.8,1.12 0,1.6 -0.48,2.4 -1.76,4.32 -3.52,1.6 -4.16,1.12 -6.24,0 -3.52,-1.76 -3.04,-2.56 -1.76,-4.48 0,-1.76 0.8,-1.28 2.72,0 0.8,1.12 0,0 -0.8,1.12 -1.92,0.48 -2.08,0.32 l -0.96,-1.28 1.28,-0.8 1.28,0.8 -0.8,0.96 v 0.32 l -1.44,0.8 -0.8,-1.12 0.8,-1.28 1.12,0.64 0.32,0.32 0.8,1.12 L -1.76,1.6 -3.04,0.8 -2.4,-0.16 -2.08,-0.32 -0.8,-1.28 0,0 -0.8,1.12 Z" /></g><g
           transform="translate(724.79999,395.20001)"
           id="g122"><path
             id="path124"
             style="fill:#000000;fill-opacity:1;fill-rule:nonzero;stroke:none"
             d="M 0,0 0.8,1.12 -0.16,1.6 -0.48,2.4 -1.76,4.32 -3.36,1.6 -4.16,1.12 -6.08,0 l 2.72,-1.6 0.48,-0.96 1.12,-1.76 1.6,2.72 L 0.8,-1.12 2.72,0 0.8,1.12 0,0 -0.64,1.12 -1.76,0.48 -2.08,0.32 -2.88,-1.12 -1.76,-1.76 -0.48,-1.12 -1.28,0 V 0.32 L -2.72,1.12 -3.36,0 l 0.64,-1.12 1.12,0.64 h 0.32 L -0.48,0.96 -1.76,1.6 -2.88,0.96 -2.4,0 -2.08,-0.48 -0.64,-1.12 0,0 -0.64,1.12 Z" /></g><g
           transform="translate(715.03998,333.76001)"
           id="g126"><path
             id="path128"
             style="fill:#000000;fill-opacity:1;fill-rule:nonzero;stroke:none"
             d="M 0,0 0.8,1.12 0,1.6 -0.48,2.4 -1.6,4.32 -3.36,1.6 -4,1.12 -6.08,0 -3.36,-1.6 -2.88,-2.4 -1.6,-4.32 0,-1.6 0.8,-1.12 2.72,0 0.8,1.12 0,0 -0.8,1.12 -1.76,0.48 -2.08,0.32 -2.88,-0.96 -1.6,-1.6 -0.48,-0.96 -1.12,0 -1.28,0.32 -2.56,1.12 -3.36,0 l 0.8,-1.12 0.96,0.48 0.32,0.16 0.8,1.44 L -1.6,1.6 -2.88,0.96 -2.24,0 -2.08,-0.48 -0.8,-1.12 0,0 -0.8,1.12 Z" /></g><g
           transform="translate(720.32001,464.95999)"
           id="g130"><path
             id="path132"
             style="fill:#000000;fill-opacity:1;fill-rule:nonzero;stroke:none"
             d="M 0,0 0.64,1.28 0,1.76 -0.64,2.56 -1.76,4.48 -3.36,1.76 -4.16,1.28 -6.08,0 -3.36,-1.6 -2.88,-2.4 -1.76,-4.32 0,-1.6 0.64,-1.12 2.72,0 0.64,1.28 0,0 -0.8,1.28 -1.76,0.64 -2.24,0.48 l -0.64,-1.44 1.12,-0.8 1.12,0.8 -0.48,1.12 -0.32,0.32 -1.28,0.8 -0.64,-1.28 0.64,-1.12 1.12,0.64 0.16,0.16 0.8,1.28 -1.12,0.8 L -2.88,0.96 -2.24,0 V -0.32 L -0.8,-1.12 0,0 -0.8,1.28 Z" /></g><g
           transform="translate(465.76001,364.32001)"
           id="g134"><path
             id="path136"
             style="fill:#000000;fill-opacity:1;fill-rule:nonzero;stroke:none"
             d="M 0,0 0.64,1.28 -0.16,1.76 -0.64,2.56 -1.76,4.48 -3.52,1.76 -4.32,1.28 -6.24,0 l 2.72,-1.6 0.48,-0.64 1.28,-2.08 1.6,2.72 0.8,0.48 L 2.72,0 0.64,1.28 0,0 -0.8,1.28 -1.92,0.64 -2.24,0.48 l -0.8,-1.44 1.28,-0.64 1.12,0.64 -0.64,1.12 -0.16,0.32 -1.28,0.8 -0.8,-1.28 0.8,-1.12 0.96,0.64 0.32,0.16 0.8,1.28 -1.12,0.8 L -3.04,0.96 -2.4,0 -2.24,-0.32 -0.8,-1.12 0,0 -0.8,1.28 Z" /></g><g
           transform="translate(620.47998,370.56)"
           id="g138"><path
             id="path140"
             style="fill:#000000;fill-opacity:1;fill-rule:nonzero;stroke:none"
             d="M 0,0 0.8,1.28 -1.12,2.4 -3.52,6.08 -5.76,2.4 -9.6,0 l 3.84,-2.24 2.24,-3.84 2.4,3.84 L 2.56,0 0.8,1.28 0,0 -0.8,1.28 -3.2,-0.32 -3.52,-0.64 v 0.16 L -3.68,-0.32 -4.16,0 v 0.16 l 0.48,0.16 0.16,0.32 h 0.16 L -3.2,0.32 -0.8,-1.12 0,0 -0.8,1.28 Z" /></g><g
           transform="translate(592.47998,285.28)"
           id="g142"><path
             id="path144"
             style="fill:#000000;fill-opacity:1;fill-rule:nonzero;stroke:none"
             d="M 0,0 0.64,1.28 -1.12,2.4 -3.52,6.08 -5.92,2.4 -9.6,0 l 3.68,-2.24 2.4,-3.84 2.4,3.84 L 2.72,0 0.64,1.28 0,0 -0.8,1.28 -3.36,-0.16 -3.52,-0.64 -3.68,-0.48 -3.84,-0.16 -4.32,0 -4,0.16 -3.84,0.32 -3.52,0.8 -3.36,0.64 V 0.32 L -0.8,-1.12 0,0 -0.8,1.28 Z" /></g><g
           transform="translate(729.12,308.64001)"
           id="g146"><path
             id="path148"
             style="fill:#000000;fill-opacity:1;fill-rule:nonzero;stroke:none"
             d="M 0,0 0.8,1.12 -1.12,2.24 -3.36,6.08 -5.76,2.24 -9.44,0 -5.76,-2.4 -3.36,-6.08 -1.12,-2.4 2.72,0 0.8,1.12 0,0 -0.64,1.12 -3.2,-0.32 -3.36,-0.8 -3.52,-0.48 -3.68,-0.32 -4.16,0 H -4 l 0.32,0.32 0.32,0.32 v 0 L -3.2,0.32 -0.64,-1.12 0,0 -0.64,1.12 Z" /></g><g
           transform="translate(376,412.16)"
           id="g150"><path
             id="path152"
             style="fill:#000000;fill-opacity:1;fill-rule:nonzero;stroke:none"
             d="M 0,0 0.64,1.28 -1.12,2.4 -3.36,6.24 -5.76,2.4 -9.6,0 l 3.84,-2.24 2.4,-3.84 2.24,3.84 L 2.72,0 0.64,1.28 0,0 -0.8,1.28 -3.2,-0.16 -3.36,-0.64 -3.52,-0.48 -3.84,-0.16 -4.16,0 -4,0.16 -3.84,0.32 -3.36,0.8 V 0.64 L -3.2,0.32 -0.8,-1.12 0,0 -0.8,1.28 Z" /></g><g
           transform="translate(671.52002,464.95999)"
           id="g154"><path
             id="path156"
             style="fill:#000000;fill-opacity:1;fill-rule:nonzero;stroke:none"
             d="M 0,0 0.8,1.28 -1.12,2.4 -3.52,6.24 -5.76,2.4 -9.44,0 l 3.68,-2.24 2.24,-3.84 2.4,3.84 L 2.72,0 0.8,1.28 0,0 -0.8,1.28 -3.2,-0.16 -3.52,-0.64 v 0.16 L -3.68,-0.16 -4.16,0 -4,0.16 -3.68,0.48 -3.52,0.8 -3.36,0.64 -3.2,0.48 -0.8,-1.12 0,0 -0.8,1.28 Z" /></g><g
           id="g158"><path
             id="path160"
             style="fill:#000000;fill-opacity:1;fill-rule:nonzero;stroke:none"
             d="m 577.12,316.48001 c 2.72003,0 2.72003,-4.32001 0,-4.32001 -2.71998,0 -2.71998,4.32001 0,4.32001 z" /></g><g
           id="g162"><path
             id="path164"
             style="fill:#000000;fill-opacity:1;fill-rule:nonzero;stroke:none"
             d="m 549.59998,316.48001 c 2.72003,0 2.72003,-4.32001 0,-4.32001 -2.71998,0 -2.71998,4.32001 0,4.32001 z" /></g><g
           id="g166"><path
             id="path168"
             style="fill:#000000;fill-opacity:1;fill-rule:nonzero;stroke:none"
             d="m 534.40002,425.12 c 2.71998,0 2.71998,-4.32001 0,-4.32001 -2.72003,0 -2.72003,4.32001 0,4.32001 z" /></g><g
           id="g170"><path
             id="path172"
             style="fill:#000000;fill-opacity:1;fill-rule:nonzero;stroke:none"
             d="m 516.15997,339.04001 c 2.72003,0 2.72003,-4.16001 0,-4.16001 -2.71997,0 -2.71997,4.16001 0,4.16001 z" /></g><g
           id="g174"><path
             id="path176"
             style="fill:#000000;fill-opacity:1;fill-rule:nonzero;stroke:none"
             d="m 658.40002,402.88 c 2.71998,0 2.71998,-4.16 0,-4.16 -2.72003,0 -2.72003,4.16 0,4.16 z" /></g><g
           id="g178"><path
             id="path180"
             style="fill:#000000;fill-opacity:1;fill-rule:nonzero;stroke:none"
             d="m 446.07999,244.96001 c 2.72,0 2.72,-4.32001 0,-4.32001 -2.72,0 -2.72,4.32001 0,4.32001 z" /></g><g
           id="g182"><path
             id="path184"
             style="fill:#000000;fill-opacity:1;fill-rule:nonzero;stroke:none"
             d="m 414.56,316.48001 c 2.72,0 2.72,-4.32001 0,-4.32001 -2.72,0 -2.72,4.32001 0,4.32001 z" /></g><g
           id="g186"><path
             id="path188"
             style="fill:#000000;fill-opacity:1;fill-rule:nonzero;stroke:none"
             d="m 490.07999,270.72 c 2.72,0 2.72,-4.16 0,-4.16 -2.72,0 -2.72,4.16 0,4.16 z" /></g><g
           id="g190"><path
             id="path192"
             style="fill:#000000;fill-opacity:1;fill-rule:nonzero;stroke:none"
             d="m 517.91998,258.88 c 2.72003,0 2.72003,-4.32 0,-4.32 -2.71997,0 -2.71997,4.32 0,4.32 z" /></g><g
           id="g194"><path
             id="path196"
             style="fill:#000000;fill-opacity:1;fill-rule:nonzero;stroke:none"
             d="m 691.67999,353.44 c 2.72003,0 2.72003,-4.16 0,-4.16 -2.71997,0 -2.71997,4.16 0,4.16 z" /></g><g
           id="g198"><path
             id="path200"
             style="fill:#000000;fill-opacity:1;fill-rule:nonzero;stroke:none"
             d="m 416.32001,425.12 c 2.72,0 2.72,-4.32001 0,-4.32001 -2.72,0 -2.72,4.32001 0,4.32001 z" /></g><g
           id="g202"><path
             id="path204"
             style="fill:#000000;fill-opacity:1;fill-rule:nonzero;stroke:none"
             d="m 749.12,343.51999 c 2.72003,0 2.72003,-4.16 0,-4.16 -2.71998,0 -2.71998,4.16 0,4.16 z" /></g><g
           id="g206"><path
             id="path208"
             style="fill:#000000;fill-opacity:1;fill-rule:nonzero;stroke:none"
             d="m 525.59998,375.35999 c 2.72003,0 2.88,-4.15998 0,-4.15998 -2.71998,0 -2.71998,4.15998 0,4.15998 z" /></g><g
           id="g210"><path
             id="path212"
             style="fill:#000000;fill-opacity:1;fill-rule:nonzero;stroke:none"
             d="m 490.07999,369.12 c 2.72,0 2.72,-4.16001 0,-4.16001 -2.72,0 -2.72,4.16001 0,4.16001 z" /></g><g
           id="g214"><path
             id="path216"
             style="fill:#000000;fill-opacity:1;fill-rule:nonzero;stroke:none"
             d="m 524.96002,402.88 c 2.71997,0 2.71997,-4.16 0,-4.16 -2.72003,0 -2.72003,4.16 0,4.16 z" /></g><g
           id="g218"><path
             id="path220"
             style="fill:#000000;fill-opacity:1;fill-rule:nonzero;stroke:none"
             d="m 695.84003,461.28 c 2.71997,0 2.71997,-4.16 0,-4.16 -2.72003,0 -2.72003,4.16 0,4.16 z" /></g><g
           id="g222"><path
             id="path224"
             style="fill:#000000;fill-opacity:1;fill-rule:nonzero;stroke:none"
             d="m 351.51999,362.07999 c 2.72,0 2.72,-4.15998 0,-4.15998 -2.72,0 -2.72,4.15998 0,4.15998 z" /></g><g
           id="g226"><path
             id="path228"
             style="fill:#000000;fill-opacity:1;fill-rule:nonzero;stroke:none"
             d="m 337.28,487.20001 c 2.72,0 2.72,-4.32001 0,-4.32001 -2.72,0 -2.72,4.32001 0,4.32001 z" /></g><g
           id="g230"><path
             id="path232"
             style="fill:#000000;fill-opacity:1;fill-rule:nonzero;stroke:none"
             d="m 369.92001,332.48001 c 2.72,0 2.72,-4.16 0,-4.16 -2.72,0 -2.72,4.16 0,4.16 z" /></g><g
           id="g234"><path
             id="path236"
             style="fill:#000000;fill-opacity:1;fill-rule:nonzero;stroke:none"
             d="m 469.76001,331.04001 c 2.72,0 2.72,-4.32001 0,-4.32001 -2.72,0 -2.72,4.32001 0,4.32001 z" /></g><g
           id="g238"><path
             id="path240"
             style="fill:#000000;fill-opacity:1;fill-rule:nonzero;stroke:none"
             d="m 468.48001,390.88 c 2.72,0 2.72,-4.16 0,-4.16 -2.72,0 -2.72,4.16 0,4.16 z" /></g><g
           id="g242"><path
             id="path244"
             style="fill:#000000;fill-opacity:1;fill-rule:nonzero;stroke:none"
             d="m 347.04001,294.07999 c 2.72,0 2.72,-4.31998 0,-4.31998 -2.72,0 -2.72,4.31998 0,4.31998 z" /></g><g
           id="g246"><path
             id="path248"
             style="fill:#000000;fill-opacity:1;fill-rule:nonzero;stroke:none"
             d="m 304.79999,372.79999 c 2.72,0 2.72,-4.31998 0,-4.31998 -2.72,0 -2.72,4.31998 0,4.31998 z" /></g><g
           id="g250"><path
             id="path252"
             style="fill:#000000;fill-opacity:1;fill-rule:nonzero;stroke:none"
             d="m 392.32001,366.39999 c 2.72,0 2.72,-4.16 0,-4.16 -2.72,0 -2.72,4.16 0,4.16 z" /></g><g
           id="g254"><path
             id="path256"
             style="fill:#000000;fill-opacity:1;fill-rule:nonzero;stroke:none"
             d="m 544,280.32001 c 2.71997,0 2.71997,-4.32001 0,-4.32001 -2.71997,0 -2.71997,4.32001 0,4.32001 z" /></g><g
           id="g258"><path
             id="path260"
             style="fill:#000000;fill-opacity:1;fill-rule:nonzero;stroke:none"
             d="m 658.40002,294.56 c 2.71998,0 2.71998,-4.32001 0,-4.32001 -2.72003,0 -2.72003,4.32001 0,4.32001 z" /></g><g
           id="g262"><path
             id="path264"
             style="fill:#000000;fill-opacity:1;fill-rule:nonzero;stroke:none"
             d="m 665.44,258.88 c 2.71997,0 2.71997,-4.32 0,-4.32 -2.72003,0 -2.72003,4.32 0,4.32 z" /></g><g
           id="g266"><path
             id="path268"
             style="fill:#000000;fill-opacity:1;fill-rule:nonzero;stroke:none"
             d="m 737.28003,427.84 c 2.71997,0 2.71997,-4.32001 0,-4.32001 -2.72003,0 -2.72003,4.32001 0,4.32001 z" /></g><g
           id="g270"><path
             id="path272"
             style="fill:#000000;fill-opacity:1;fill-rule:nonzero;stroke:none"
             d="m 588.96002,393.60001 c 2.71997,0 2.71997,-4.32001 0,-4.32001 -2.72003,0 -2.72003,4.32001 0,4.32001 z" /></g><g
           id="g274"><path
             id="path276"
             style="fill:#000000;fill-opacity:1;fill-rule:nonzero;stroke:none"
             d="m 425.92001,496.16 c 2.72,0 2.72,-4.16 0,-4.16 -2.72,0 -2.72,4.16 0,4.16 z" /></g><g
           id="g278"><path
             id="path280"
             style="fill:#000000;fill-opacity:1;fill-rule:nonzero;stroke:none"
             d="m 542.23999,229.28 c 2.72003,0 2.72003,-4.31999 0,-4.31999 -2.71997,0 -2.71997,4.31999 0,4.31999 z" /></g><g
           id="g282"><path
             id="path284"
             style="fill:#000000;fill-opacity:1;fill-rule:nonzero;stroke:none"
             d="m 600.64001,240.64 c 2.71997,0 2.71997,-4.16 0,-4.16 -2.72003,0 -2.72003,4.16 0,4.16 z" /></g><g
           transform="translate(430.07999,268.64001)"
           id="g286"><path
             id="path288"
             style="fill:#000000;fill-opacity:1;fill-rule:nonzero;stroke:none"
             d="M 0,0 0.16,1.44 C -9.28,2.72 -14.08,4 -16.799999,6.88 -19.68,9.6 -20.959999,14.56 -22.24,23.84 L -23.68,33.599998 -24.959999,23.84 C -26.4,14.56 -27.52,9.6 -30.4,6.88 -33.119999,4 -38.080002,2.72 -47.360001,1.44 L -57.279999,0 -47.360001,-1.28 C -38.080002,-2.72 -33.119999,-4 -30.4,-6.72 c 2.88,-2.72 4,-7.68 5.440001,-16.96 L -23.68,-33.599998 -22.24,-23.68 c 1.280001,9.28 2.56,14.24 5.440001,16.96 C -14.08,-4 -9.28,-2.72 0.16,-1.28 L 10.08,0 0.16,1.44 0,0 -0.32,1.44 C -9.6,0 -15.2,-1.12 -18.879999,-4.64 c -3.68,-3.68 -4.800001,-9.28 -6.08,-18.720001 L -23.68,-23.52 l 1.44,0.159999 C -23.68,-13.92 -24.799999,-8.32 -28.48,-4.64 -32.16,-1.12 -37.599998,0 -47.040001,1.44 l -0.16,-1.44 0.16,-1.28 C -37.599998,0 -32.16,1.12 -28.48,4.8 c 3.680001,3.68 4.8,9.12 6.24,18.560001 L -23.68,23.68 -24.959999,23.360001 C -23.68,13.92 -22.559999,8.48 -18.879999,4.8 -15.2,1.12 -9.6,0 -0.32,-1.28 L 0,0 -0.32,1.44 Z" /></g><g
           transform="translate(459.67999,288.79999)"
           id="g290"><path
             id="path292"
             style="fill:#000000;fill-opacity:1;fill-rule:nonzero;stroke:none"
             d="M 0,0 0.32,1.44 C -2.08,1.76 -3.04,2.08 -3.2,2.56 -3.68,2.72 -4,3.68 -4.32,6.08 L -5.76,15.84 -7.04,6.08 C -7.36,3.68 -7.68,2.72 -8.16,2.56 -8.48,2.08 -9.44,1.76 -11.68,1.44 L -21.6,0 l 9.92,-1.28 c 2.24,-0.48 3.2,-0.64 3.52,-1.12 0.48,-0.32 0.8,-1.28 1.12,-3.52 l 1.28,-9.92 1.44,9.92 c 0.32,2.24 0.64,3.2 1.12,3.52 0.16,0.48 1.12,0.64 3.52,1.12 L 10.08,0 0.32,1.44 0,0 V 1.44 C -2.4,1.12 -4,0.8 -5.28,-0.32 -6.56,-1.76 -6.72,-3.2 -7.04,-5.6 l 1.28,-0.16 1.44,0.16 c -0.32,2.4 -0.48,3.84 -1.76,5.28 -1.28,1.12 -2.88,1.44 -5.28,1.76 L -11.52,0 l 0.16,-1.28 c 2.4,0.32 4,0.48 5.28,1.76 1.28,1.28 1.44,2.88 1.76,5.12 L -5.76,5.76 -7.04,5.6 C -6.72,3.36 -6.56,1.76 -5.28,0.48 -4,-0.8 -2.4,-0.96 0,-1.28 V 0 1.44 Z" /></g><g
           transform="translate(770.88,470.88)"
           id="g294"><path
             id="path296"
             style="fill:#000000;fill-opacity:1;fill-rule:nonzero;stroke:none"
             d="M 0,0 0.32,1.28 C -4.16,1.92 -6.24,2.56 -7.2,3.68 -8.32,4.64 -8.96,6.72 -9.6,11.2 L -10.88,20.959999 -12.32,11.2 c -0.64,-4.48 -1.28,-6.56 -2.4,-7.52 -0.96,-1.12 -3.04,-1.76 -7.36,-2.4 L -32,0 l 9.92,-1.44 c 4.32,-0.64 6.4,-1.28 7.36,-2.4 1.12,-0.96 1.76,-3.04 2.4,-7.52 l 1.44,-9.760001 1.28,9.760001 c 0.64,4.48 1.28,6.56 2.4,7.52 0.96,1.12 3.04,1.76 7.52,2.4 L 10.08,0 0.32,1.28 0,0 v 1.28 c -4.48,-0.64 -7.2,-1.12 -9.28,-3.04 -1.92,-2.08 -2.4,-4.8 -3.04,-9.12 l 1.44,-0.16 1.28,0.16 c -0.64,4.32 -1.12,7.04 -2.88,9.12 -2.24,1.92 -4.960001,2.4 -9.28,3.04 L -21.92,0 l 0.16,-1.44 c 4.319999,0.64 7.04,1.12 9.28,3.04 1.76,2.08 2.24,4.8 2.88,9.12 l -1.28,0.16 -1.44,-0.16 C -11.68,6.4 -11.2,3.68 -9.28,1.6 -7.2,-0.32 -4.48,-0.8 0,-1.44 V 0 1.28 Z" /></g><g
           transform="translate(781.44,431.67999)"
           id="g298"><path
             id="path300"
             style="fill:#000000;fill-opacity:1;fill-rule:nonzero;stroke:none"
             d="M 0,0 0.16,1.28 C 0,1.28 0,1.28 0,1.28 L -0.16,0.48 0.32,0.96 C 0.32,1.12 0,1.28 0,1.28 L -0.16,0.48 0.32,0.96 0,0.64 0.48,0.8 c 0,0 0,0 -0.16,0.16 L 0,0.64 0.48,0.8 c 0,0 0,0.16 -0.16,0.32 L -0.96,10.88 -2.4,1.12 c 0,-0.16 0,-0.32 0,-0.32 l 0.8,-0.32 -0.32,0.8 C -2.24,1.12 -2.4,0.8 -2.4,0.8 l 0.8,-0.32 -0.32,0.8 0.16,-0.32 -0.16,0.32 c 0,0 0,0 0,0 l 0.16,-0.32 -0.16,0.32 c 0,0 0,0 -0.16,0 L -12,0 -2.08,-1.6 c 0.16,0 0.16,0 0.16,0 l 0.32,0.96 -0.8,-0.48 c 0.16,-0.16 0.48,-0.48 0.48,-0.48 l 0.32,0.96 -0.8,-0.48 0.48,0.16 -0.48,-0.16 c 0,0 0,0 0,0 l 0.48,0.16 -0.48,-0.16 c 0,0 0,0 0,-0.16 l 1.44,-9.76 1.28,9.76 c 0.16,0.16 0.16,0.16 0.16,0.16 L -0.32,-0.8 0,-1.6 c 0.32,0.16 0.48,0.48 0.48,0.48 L -0.32,-0.8 0,-1.6 -0.16,-1.12 0,-1.6 -0.16,-1.12 0,-1.6 c 0,0 0,0 0.16,0 L 10.08,0 0.16,1.28 0,0 -0.16,1.28 C -0.64,1.12 -1.12,1.12 -1.76,0.64 -2.4,0 -2.24,-0.48 -2.4,-0.8 l 1.44,-0.32 1.28,0.32 c 0,0.32 0,0.8 -0.48,1.44 -0.64,0.48 -1.12,0.48 -1.6,0.64 L -1.92,0 -1.76,-1.6 c 0.48,0.16 0.96,0.16 1.6,0.64 0.48,0.8 0.48,1.28 0.48,1.6 L -0.96,0.8 -2.4,0.64 c 0.16,-0.32 0,-0.8 0.64,-1.6 0.64,-0.48 1.12,-0.48 1.6,-0.64 L 0,0 -0.16,1.28 Z" /></g><g
           transform="translate(277.92001,425.60001)"
           id="g302"><path
             id="path304"
             style="fill:#000000;fill-opacity:1;fill-rule:nonzero;stroke:none"
             d="M 0,0 0.16,1.44 C 0.16,1.44 0,1.6 0,1.6 L -0.32,0.64 0.48,1.12 C 0.32,1.28 0,1.6 0,1.6 L -0.32,0.64 0.48,1.12 0.16,0.96 h 0.32 c 0,0 0,0 0,0.16 L 0.16,0.96 h 0.32 c 0,0.16 0,0.16 0,0.16 L -0.96,11.04 -2.4,1.12 c 0,0 0,-0.16 0,-0.16 l 0.8,-0.32 -0.48,0.8 C -2.08,1.28 -2.4,0.96 -2.4,0.96 l 0.8,-0.32 -0.48,0.8 0.32,-0.32 -0.16,0.48 c 0,-0.16 0,0 -0.16,-0.16 L -1.76,1.12 -1.92,1.6 c 0,-0.16 -0.16,-0.16 -0.16,-0.16 L -11.84,0 -2.08,-1.28 c 0.16,-0.16 0.16,-0.16 0.16,-0.16 l 0.32,0.96 -0.8,-0.48 c 0.16,-0.16 0.48,-0.48 0.48,-0.48 l 0.32,0.96 -0.8,-0.48 0.32,0.16 H -2.4 v -0.16 l 0.32,0.16 H -2.4 c 0,-0.16 0,-0.16 0,-0.16 l 1.44,-9.92 1.44,9.92 c 0,0 0,0.16 0,0.16 l -0.8,0.32 0.48,-0.8 c 0.16,0 0.32,0.32 0.32,0.48 l -0.8,0.32 0.48,-0.8 -0.32,0.32 L 0,-1.44 c 0,0 0,0 0.16,0.16 L -0.16,-0.96 0,-1.44 c 0,0 0.16,0 0.16,0.16 L 10.08,0 0.16,1.44 0,0 -0.16,1.44 c -0.32,0 -0.8,0 -1.6,-0.64 -0.48,-0.64 -0.48,-1.12 -0.64,-1.44 l 1.44,-0.32 1.44,0.32 C 0.32,-0.32 0.32,0.16 -0.16,0.8 -0.8,1.44 -1.28,1.44 -1.6,1.44 L -1.92,0 -1.6,-1.28 c 0.32,0 0.8,0 1.44,0.64 C 0.32,0 0.32,0.48 0.48,0.8 L -0.96,1.12 -2.4,0.8 c 0.16,-0.32 0.16,-0.8 0.64,-1.44 0.8,-0.64 1.28,-0.64 1.6,-0.64 L 0,0 -0.16,1.44 Z" /></g><g
           transform="translate(581.28003,358.07999)"
           id="g306"><path
             id="path308"
             style="fill:#000000;fill-opacity:1;fill-rule:nonzero;stroke:none"
             d="m 0,0 0.32,1.44 c -1.76,0.16 -2.4,0.48 -2.56,0.64 -0.16,0 -0.32,0.64 -0.64,2.4 L -4.16,14.24 -5.6,4.48 C -5.76,2.72 -6.08,2.08 -6.24,2.08 -6.24,1.92 -6.88,1.6 -8.48,1.44 L -18.4,0 -8.48,-1.44 c 1.6,-0.16 2.24,-0.48 2.24,-0.64 0.16,0 0.48,-0.64 0.64,-2.24 l 1.44,-9.76 1.28,9.76 c 0.32,1.6 0.48,2.24 0.64,2.24 0.16,0.16 0.8,0.48 2.56,0.64 L 10.08,0 0.32,1.44 0,0 -0.32,1.44 C -1.92,1.28 -3.04,0.96 -4.16,0 -5.12,-0.96 -5.28,-2.24 -5.6,-4 l 1.44,-0.16 1.28,0.16 c -0.16,1.76 -0.32,3.04 -1.28,4 -1.12,0.96 -2.4,1.28 -4,1.44 L -8.48,0 -8.16,-1.44 c 1.6,0.32 2.88,0.48 4,1.6 0.96,0.96 1.12,2.08 1.28,3.84 L -4.16,4.16 -5.6,4 c 0.32,-1.76 0.48,-2.88 1.44,-3.84 1.12,-1.12 2.24,-1.28 3.84,-1.6 L 0,0 -0.32,1.44 Z" /></g><g
           transform="translate(369.92001,471.84)"
           id="g310"><path
             id="path312"
             style="fill:#000000;fill-opacity:1;fill-rule:nonzero;stroke:none"
             d="M 0,0 V 1.28 C -2.56,1.76 -3.68,2.08 -4,2.4 -4.48,2.88 -4.8,4 -5.28,6.56 L -6.56,16.32 -8,6.56 C -8.32,4 -8.64,2.88 -9.28,2.4 -9.6,2.08 -10.72,1.76 -13.28,1.28 L -23.200001,0 -13.28,-1.6 c 2.56,-0.32 3.68,-0.64 4,-1.12 0.64,-0.48 0.96,-1.6 1.28,-4.16 l 1.44,-9.759999 1.28,9.759999 c 0.48,2.56 0.8,3.68 1.28,4.16 0.32,0.48 1.44,0.8 4,1.12 L 9.92,0 0,1.28 V 0 L -0.32,1.28 C -2.88,0.96 -4.64,0.64 -5.92,-0.64 -7.36,-2.08 -7.52,-3.84 -8,-6.4 l 1.44,-0.16 1.28,0.16 c -0.32,2.56 -0.64,4.32 -1.92,5.76 -1.44,1.28 -3.04,1.6 -5.76,1.92 V 0 -1.6 c 2.72,0.48 4.32,0.8 5.76,2.08 1.28,1.28 1.6,3.2 1.92,5.6 L -6.56,6.4 -8,6.08 c 0.48,-2.4 0.64,-4.32 2.08,-5.6 1.28,-1.28 3.04,-1.6 5.6,-2.08 L 0,0 -0.32,1.28 Z" /></g><g
           transform="translate(627.35998,336.95999)"
           id="g314"><path
             id="path316"
             style="fill:#000000;fill-opacity:1;fill-rule:nonzero;stroke:none"
             d="m 0,0 0.16,1.28 c -0.64,0.16 -1.12,0.32 -1.28,0.32 -0.48,0.16 -0.32,0 -0.48,0.16 0,0.16 -0.16,0.64 -0.16,1.6 l -1.6,9.76 -1.28,-9.76 C -4.8,2.72 -4.8,2.24 -4.96,2.08 c 0,-0.48 0,-0.32 -0.16,-0.48 -0.16,0 -0.64,-0.16 -1.6,-0.32 L -16.48,0 -6.72,-1.44 c 0.64,-0.16 1.12,-0.16 1.28,-0.16 0.48,-0.32 0.32,-0.16 0.48,-0.32 0,-0.16 0.16,-0.64 0.32,-1.6 l 1.28,-9.76 1.6,9.76 c 0,0.64 0,1.12 0.16,1.44 0.16,0.32 0,0.16 0.16,0.32 0.16,0.16 0.8,0.16 1.6,0.32 L 9.92,0 0.16,1.28 0,0 -0.16,1.28 C -1.6,1.12 -2.56,1.12 -3.36,0.16 -4.48,-0.8 -4.48,-1.76 -4.64,-3.2 h 1.28 1.6 C -2.08,-1.76 -2.24,-0.8 -3.04,0.16 -4,1.12 -4.96,1.12 -6.24,1.28 L -6.56,0 -6.24,-1.44 c 1.28,0.16 2.24,0.32 3.2,1.12 0.8,0.96 0.96,1.92 1.28,3.36 L -3.36,3.2 -4.64,3.04 c 0.16,-1.44 0.16,-2.4 1.28,-3.36 0.8,-0.8 1.76,-0.96 3.2,-1.12 L 0,0 -0.16,1.28 Z" /></g><g
           transform="translate(639.35998,256.79999)"
           id="g318"><path
             id="path320"
             style="fill:#000000;fill-opacity:1;fill-rule:nonzero;stroke:none"
             d="M 0,0 0.16,1.28 C -4,1.92 -6.08,2.56 -7.2,3.52 -8.16,4.64 -8.8,6.72 -9.44,10.88 L -10.72,20.799999 -12.16,10.88 C -12.64,6.72 -13.28,4.64 -14.4,3.52 -15.36,2.56 -17.440001,1.92 -21.76,1.28 L -31.52,0 l 9.76,-1.44 c 4.319999,-0.48 6.4,-1.12 7.36,-2.24 1.12,-0.96 1.76,-3.2 2.24,-7.36 l 1.44,-9.759999 1.28,9.759999 c 0.64,4.16 1.28,6.4 2.24,7.36 1.12,1.12 3.2,1.76 7.36,2.24 L 10.08,0 0.16,1.28 0,0 -0.16,1.28 C -4.48,0.8 -7.2,0.16 -9.12,-1.76 c -1.92,-1.76 -2.4,-4.48 -3.04,-8.96 h 1.44 1.28 c -0.48,4.48 -0.96,7.2 -2.88,8.96 -1.92,1.92 -4.639999,2.56 -8.960001,3.04 l -0.16,-1.28 0.16,-1.44 c 4.320002,0.64 7.040001,1.12 8.960001,3.04 1.92,1.92 2.4,4.64 2.88,8.96 l -1.28,0.16 -1.44,-0.16 c 0.64,-4.32 1.12,-7.04 3.04,-8.96 1.92,-1.92 4.64,-2.4 8.96,-3.04 L 0,0 -0.16,1.28 Z" /></g></g></g><g
       id="g322"><g
         clip-path="url(#clipPath328)"
         id="g324"><g
           id="g330"><path
             id="path332"
             style="fill:#000000;fill-opacity:1;fill-rule:nonzero;stroke:none"
             d="m 294.88,564.15997 h 18.88001 L 314.72,563.03998 V 546.88 h -20.79999 v 16.15998 z m -0.95999,-19.67999 H 314.72 v -14.23999 l -0.95999,-0.95996 H 294.88 l -0.95999,0.95996 z m -10.72,21.76001 v -2.08002 h 4.15998 l 1.12002,-1.11999 v -32.79999 l -1.12002,-0.95996 h -4.15998 v -2.24005 H 325.44 v 2.24005 h -4.16 l -1.12,0.95996 v 32.79999 l 1.12,1.11999 h 4.16 v 2.08002 z m 70.72,-1.59998 c 4.63999,0 8.15998,-1.60003 10.56,-4.64001 2.39999,-3.20001 3.67999,-7.52002 3.67999,-13.28003 0,-5.75995 -1.28,-10.23999 -3.67999,-13.27997 -2.40002,-3.20001 -5.92001,-4.64001 -10.56,-4.79999 -4.48001,0.15998 -8,1.59998 -10.56002,4.79999 -2.4,3.03998 -3.51999,7.52002 -3.68,13.27997 0.16001,5.76001 1.28,10.08002 3.68,13.28003 2.56002,3.03998 6.08001,4.64001 10.56002,4.64001 z m 0,2.71997 c -4.16,0 -7.68002,-0.95996 -10.88,-2.55999 -3.04001,-1.76001 -5.44,-4.15998 -7.20001,-7.20001 -1.60001,-3.19996 -2.56,-6.71998 -2.56,-10.88001 0,-4.15997 0.95999,-7.83997 2.56,-10.87994 1.76001,-3.20002 4.16,-5.60004 7.20001,-7.20002 3.19998,-1.76001 6.72,-2.55999 10.88,-2.55999 4.15998,0 7.84,0.79998 10.87998,2.55999 3.04001,1.59998 5.44,4 7.20001,7.20002 1.76001,3.03997 2.56,6.71997 2.56,10.87994 0,4.16003 -0.79999,7.68005 -2.56,10.88001 -1.76001,3.04003 -4.16,5.44 -7.20001,7.20001 -3.03998,1.60003 -6.72,2.55999 -10.87998,2.55999 z M 394.72,564.15997 h 13.76001 l 0.47998,-1.11999 -10.88,-16.95996 -4.47998,4.95996 v 12 z m -1.11999,-16.79999 15.35998,-17.11999 -0.47998,-0.95996 H 394.72 l -1.11999,0.95996 z M 382.88,566.23999 v -2.08002 h 4.32001 l 1.12,-1.11999 v -32.79999 l -1.12,-0.95996 H 382.88 v -2.24005 h 34.88001 v 2.24005 H 413.28 l -11.51999,12.79999 13.91998,20.95996 1.60001,1.11999 h 3.20001 v 2.08002 z m 64.47999,-2.08002 c 3.36001,0 5.92001,-0.95996 7.68002,-2.87994 1.91998,-1.92005 2.72,-4.64002 2.72,-8.48004 v -22.56 l -1.12,-0.95996 H 437.44 l -1.11999,0.95996 v 22.56 c 0,3.84002 0.95999,6.55999 2.88,8.48004 1.75998,1.91998 4.47998,2.87994 8.15998,2.87994 z m -1.43998,3.20001 c -9.92001,0 -14.88,-4.95996 -15.04001,-14.55999 v -22.56 l -0.95999,-0.95996 h -4.32 v -2.24005 h 40.16 v 2.24005 h -4.16 l -1.12,0.95996 v 22.56 c 0,9.60003 -4.80002,14.55999 -14.56,14.55999 z m 43.68,0 c -1.44001,0 -2.88001,-0.15997 -4.16001,-0.32 -1.28,-0.15998 -2.56,-0.32001 -3.83999,-0.47998 -1.28,-0.15998 -2.88001,-0.32001 -4.48001,-0.32001 H 476 l -1.60001,-16 1.92002,-0.15997 c 0.95999,5.27996 2.39999,8.95996 4.47998,11.51996 2.08001,2.40002 4.96002,3.68005 8.80002,3.52002 2.72,0 5.11999,-0.64002 6.72,-2.08002 1.75998,-1.27997 2.55999,-3.19995 2.72,-5.59998 0,-1.76001 -0.80002,-3.35998 -2.08002,-4.79999 -1.44,-1.28003 -3.35998,-2.55999 -6.07999,-3.52001 l -5.6,-2.24 c -3.20001,-1.28002 -5.60001,-2.72003 -7.04001,-4.32 C 476.64001,540.79999 476,538.71997 476,536.15997 c 0,-3.03997 1.12,-5.59997 3.35999,-7.35998 2.08001,-1.76001 4.96002,-2.71997 8.80001,-2.71997 1.12,0 2.23999,0 3.35999,0.15997 1.12002,0.16003 2.24002,0.32001 3.36001,0.64001 1.12,0.15998 2.56,0.15998 4.16001,0.15998 H 500.16 l 1.60001,13.28003 -1.92001,0.15997 c -0.79999,-4 -2.23999,-7.03998 -4.16001,-9.12 -1.75998,-2.07995 -4.32,-3.20001 -7.51999,-3.20001 -2.23999,0 -4,0.64002 -5.28,1.76001 -1.27999,1.28003 -1.92001,2.88001 -2.08001,4.79999 0,1.76001 0.64001,3.20001 1.92001,4.48004 1.28,1.27997 3.35999,2.56 6.07999,3.67999 l 5.6,2.24 c 3.52002,1.44 6.08002,2.88 7.68,4.64001 1.6,1.76001 2.40002,3.83997 2.40002,6.23999 -0.16,3.52002 -1.44,6.23999 -4,8.32001 -2.56,1.91998 -6.24002,3.03997 -10.88,3.03997 z m 88.63998,-20.95996 h 6.40002 c 2.88001,0 5.12,-0.80004 6.56,-2.24005 1.59998,-1.59997 2.39997,-3.67999 2.39997,-6.39996 0,-2.88001 -0.79999,-4.96002 -2.39997,-6.40003 -1.44,-1.44 -3.67999,-2.07995 -6.56,-2.07995 h -5.28003 l -1.11999,0.95996 z m -10.71997,19.83997 v -2.08002 h 4.32001 l 1.11999,-1.11999 v -32.79999 l -1.11999,-0.95996 h -4.32001 v -2.24005 h 17.11999 c 4.64002,0.16003 8.32001,0.96002 10.88001,2.88 2.56,1.92005 3.83996,4.48004 4,7.84003 -0.16004,3.35999 -1.44,5.91998 -4,7.83997 -2.56,1.92004 -6.23999,2.88 -10.88001,2.88 h -6.40002 v 14.56 l 1.11999,1.11999 h 10.72004 v 2.08002 z m 61.11999,-1.59998 c 4.64002,0 8.15998,-1.60003 10.56,-4.64001 2.39997,-3.20001 3.67999,-7.52002 3.67999,-13.28003 0,-5.75995 -1.28002,-10.23999 -3.67999,-13.27997 -2.40002,-3.20001 -5.91998,-4.64001 -10.56,-4.79999 -4.48004,0.15998 -8,1.59998 -10.40002,4.79999 -2.56,3.03998 -3.67999,7.52002 -3.83997,13.27997 0.15998,5.76001 1.27997,10.08002 3.83997,13.28003 2.40002,3.03998 5.91998,4.64001 10.40002,4.64001 z m 0,2.71997 c -4.16003,0 -7.67999,-0.95996 -10.88,-2.55999 -3.04004,-1.76001 -5.44,-4.15998 -7.20001,-7.20001 -1.59998,-3.19996 -2.56,-6.71998 -2.56,-10.88001 0,-4.15997 0.96002,-7.83997 2.56,-10.87994 1.76001,-3.20002 4.15997,-5.60004 7.20001,-7.20002 3.20001,-1.76001 6.71997,-2.55999 10.88,-2.55999 4.15998,0 7.83997,0.79998 10.88001,2.55999 3.19995,1.59998 5.59998,4 7.19995,7.20002 1.76001,3.03997 2.56006,6.71997 2.56006,10.87994 0,4.16003 -0.80005,7.68005 -2.56006,10.88001 -1.59997,3.04003 -4,5.44 -7.19995,7.20001 -3.04004,1.60003 -6.72003,2.55999 -10.88001,2.55999 z M 669.44,564.15997 h 13.76001 l 0.47998,-1.11999 -10.88,-16.95996 -4.47998,4.95996 v 12 z m -1.11999,-16.79999 15.35998,-17.11999 -0.47998,-0.95996 H 669.44 l -1.11999,0.95996 z m -10.72003,18.88001 v -2.08002 h 4.32 l 1.12,-1.11999 v -32.79999 l -1.12,-0.95996 h -4.32 v -2.24005 h 34.88 v 2.24005 h -4.32001 l -11.67999,12.79999 13.92004,20.95996 1.59998,1.11999 h 3.20001 v 2.08002 z m 64.48004,-2.08002 c 3.35998,0 5.91998,-0.95996 7.67999,-2.87994 1.91998,-1.92005 2.71997,-4.64002 2.71997,-8.48004 v -22.56 l -0.95996,-0.95996 h -19.36005 l -1.11999,0.95996 v 22.56 c 0,3.84002 0.96002,6.55999 2.88,8.48004 1.76001,1.91998 4.48004,2.87994 8.16004,2.87994 z m -1.44001,3.20001 c -9.92004,0 -14.88,-4.95996 -14.88,-14.55999 v -22.56 l -1.12,-0.95996 h -4.32 v -2.24005 h 40.32 v 2.24005 h -4.32 l -1.12,0.95996 v 22.56 c 0,9.60003 -4.79999,14.55999 -14.56,14.55999 z m 43.68,0 c -1.44001,0 -2.88001,-0.15997 -4.16004,-0.32 -1.27997,-0.15998 -2.55999,-0.32001 -3.83996,-0.47998 -1.28003,-0.15998 -2.88001,-0.32001 -4.47998,-0.32001 h -1.12006 l -1.59997,-16 1.91998,-0.15997 c 0.96002,5.27996 2.40002,8.95996 4.48004,11.51996 2.07996,2.40002 4.95996,3.68005 8.79999,3.52002 2.88,0 5.11999,-0.64002 6.71997,-2.08002 1.76001,-1.27997 2.72003,-3.19995 2.72003,-5.59998 0,-1.76001 -0.64001,-3.35998 -2.08002,-4.79999 -1.27997,-1.28003 -3.35998,-2.55999 -6.08001,-3.52001 L 760,546.88 c -3.20001,-1.28002 -5.59998,-2.72003 -7.03998,-4.32 -1.44,-1.76001 -2.24005,-3.84003 -2.24005,-6.40003 0,-3.03997 1.12006,-5.59997 3.36005,-7.35998 2.07995,-1.76001 4.95996,-2.71997 8.79998,-2.71997 1.12,0 2.24,0 3.35999,0.15997 1.11999,0.16003 2.23999,0.32001 3.35999,0.64001 1.11999,0.15998 2.55999,0.15998 4.16003,0.15998 H 774.88 l 1.59998,13.28003 -1.91998,0.15997 c -0.79999,-4 -2.23999,-7.03998 -4.15998,-9.12 -1.76001,-2.07995 -4.32,-3.20001 -7.52002,-3.20001 -2.23999,0 -4,0.64002 -5.28002,1.76001 -1.27997,1.28003 -1.91999,2.88001 -2.07996,4.79999 0,1.76001 0.63995,3.20001 1.91998,4.48004 1.27997,1.27997 3.35999,2.56 6.08002,3.67999 l 5.59998,2.24 c 3.52001,1.44 6.08001,2.88 7.67999,4.64001 1.60003,1.76001 2.40002,3.83997 2.40002,6.23999 -0.16003,3.52002 -1.44,6.23999 -4,8.32001 -2.56,1.91998 -6.23999,3.03997 -10.88,3.03997 z" /></g><g
           id="g334"><path
             id="path336"
             style="fill:#000000;fill-opacity:1;fill-rule:nonzero;stroke:none"
             d="m 499.35999,600.79999 c 1.28002,0 2.24002,-0.47998 3.04,-1.44001 0.64002,-0.79998 0.96,-2.07995 1.12,-3.83996 -0.16,-1.60004 -0.47998,-2.88001 -1.12,-3.84003 -0.79998,-0.96002 -1.75998,-1.27997 -3.04,-1.27997 -1.43998,0 -2.4,0.31995 -3.03998,1.27997 -0.80002,0.96002 -1.12,2.23999 -1.12,3.84003 0,1.76001 0.31998,3.03998 1.12,3.83996 0.63998,0.96003 1.6,1.44001 3.03998,1.44001 z m 0,0.79999 c -1.28,0 -2.23999,-0.31995 -3.19999,-0.79999 -0.95999,-0.47998 -1.6,-1.12 -2.08001,-2.08002 -0.47998,-0.95996 -0.79999,-1.91998 -0.79999,-3.19995 0,-1.12 0.32001,-2.23999 0.79999,-3.20001 0.48001,-0.79999 1.12002,-1.44001 2.08001,-2.08002 0.96,-0.47998 1.91999,-0.64001 3.19999,-0.64001 1.12002,0 2.24002,0.16003 3.04,0.64001 0.96,0.64001 1.60001,1.28003 2.24002,2.08002 0.47999,0.96002 0.63999,2.08001 0.63999,3.20001 0,1.27997 -0.16,2.23999 -0.63999,3.19995 -0.64001,0.96002 -1.28002,1.60004 -2.24002,2.08002 -0.79998,0.48004 -1.91998,0.79999 -3.04,0.79999 z m 13.60003,-0.95997 H 518.56 l 0.15997,-0.32 v -4.64002 h -6.07996 v 4.64002 z M 512.64001,594.88 h 6.07996 v -4 L 518.56,590.56 h -5.59998 l -0.32001,0.32 z m -3.04,6.40003 v -0.64002 H 510.88 l 0.32001,-0.32 V 590.88 L 510.88,590.56 h -1.27999 v -0.64002 h 12.31997 V 590.56 h -1.27997 l -0.32,0.32 v 9.44001 l 0.32,0.32 h 1.27997 v 0.64002 z M 541.12,596.96002 h 0.47998 l -0.47998,4.32001 h -7.03998 v -0.64002 c 1.27996,-0.96002 2.39996,-1.92004 3.20001,-2.88 0.79999,-0.79999 1.43994,-1.60004 1.91998,-2.40003 0.32001,-0.79998 0.47998,-1.76 0.47998,-2.55999 0,-0.79999 -0.15997,-1.44001 -0.47998,-1.91999 -0.32001,-0.47998 -0.79999,-0.64001 -1.44,-0.64001 -0.47998,0 -0.96002,0.16003 -1.28003,0.64001 C 536.15997,591.20001 536,591.84003 536,592.64001 v 1.44001 l -1.59998,0.32 v -1.60003 c 0,-0.95996 0.31995,-1.76001 0.95996,-2.39997 0.64002,-0.48004 1.44001,-0.80004 2.56,-0.80004 1.12,0 2.08002,0.16003 2.56,0.80004 0.64002,0.47998 0.96002,1.27997 0.96002,2.39997 0,0.64001 -0.15997,1.44 -0.47998,2.23999 -0.48004,0.64001 -0.96002,1.44 -1.76001,2.24005 -0.79999,0.79999 -1.76001,1.59997 -3.04004,2.56 V 600 H 540 Z m 9.91998,4 c 0.96002,0 1.60003,-0.48004 2.08002,-1.44 0.47998,-0.96002 0.64001,-2.23999 0.64001,-4 0,-1.76001 -0.16003,-3.04004 -0.64001,-4 -0.47999,-0.80005 -1.12,-1.28003 -2.08002,-1.28003 -0.79999,0 -1.44,0.47998 -1.91998,1.28003 -0.47999,0.95996 -0.64002,2.23999 -0.64002,4 0,1.76001 0.16003,3.03998 0.64002,4 0.47998,0.95996 1.11999,1.44 1.91998,1.44 z m 0,0.63996 c -1.27997,0 -2.39997,-0.63996 -3.19995,-1.59998 -0.64002,-1.12 -1.12006,-2.56 -1.12006,-4.47998 0,-1.92004 0.48004,-3.36005 1.12006,-4.32001 0.79998,-1.11999 1.91998,-1.60003 3.19995,-1.60003 1.44,0 2.56,0.48004 3.20001,1.60003 0.79999,0.95996 1.28003,2.39997 1.28003,4.32001 0,1.91998 -0.48004,3.35998 -1.28003,4.47998 -0.64001,0.96002 -1.76001,1.59998 -3.20001,1.59998 z m 16.32,-4.63996 h 0.48005 l -0.48005,4.32001 h -7.03997 v -0.64002 c 1.27997,-0.96002 2.23999,-1.92004 3.03997,-2.88 0.96003,-0.79999 1.60004,-1.60004 1.92005,-2.40003 0.47998,-0.79998 0.63995,-1.76 0.63995,-2.55999 0,-0.79999 -0.15997,-1.44001 -0.47998,-1.91999 -0.32,-0.47998 -0.79999,-0.64001 -1.44,-0.64001 -0.64002,0 -0.96002,0.16003 -1.28003,0.64001 -0.31995,0.32001 -0.47998,0.96003 -0.47998,1.76001 v 1.44001 l -1.76001,0.32 0.16003,-1.60003 c 0,-0.95996 0.32001,-1.76001 0.95997,-2.39997 0.64001,-0.48004 1.44,-0.80004 2.55999,-0.80004 1.12006,0 1.92005,0.16003 2.56,0.80004 0.64001,0.47998 0.96002,1.27997 0.96002,2.39997 0,0.64001 -0.32001,1.44 -0.64001,2.23999 -0.32001,0.64001 -0.95996,1.44 -1.75995,2.24005 -0.80005,0.79999 -1.76001,1.59997 -2.88001,2.56 V 600 h 3.83997 z m 12,0 H 580 l -0.47998,4.32001 h -7.04004 v -0.64002 c 1.28003,-0.96002 2.23999,-1.92004 3.04004,-2.88 0.95996,-0.79999 1.59998,-1.60004 1.91998,-2.40003 0.47998,-0.79998 0.64002,-1.76 0.64002,-2.55999 0,-0.79999 -0.16004,-1.44001 -0.48004,-1.91999 -0.31995,-0.47998 -0.79999,-0.64001 -1.44001,-0.64001 -0.63995,0 -0.95996,0.16003 -1.27997,0.64001 -0.32,0.32001 -0.47998,0.96003 -0.47998,1.76001 v 1.44001 l -1.76001,0.32 0.15998,-1.60003 c 0,-0.95996 0.32001,-1.76001 0.96002,-2.39997 0.64001,-0.48004 1.44,-0.80004 2.56,-0.80004 1.11999,0 1.91998,0.16003 2.55999,0.80004 0.64002,0.47998 0.96003,1.27997 0.96003,2.39997 0,0.64001 -0.32001,1.44 -0.64002,2.23999 -0.32001,0.64001 -0.96002,1.44 -1.76001,2.24005 -0.79999,0.79999 -1.76001,1.59997 -2.88,2.56 V 600 h 3.84002 z" /></g></g></g></g></svg>