<?xml version="1.0" encoding="UTF-8" standalone="no"?>
<svg
   xmlns:dc="http://purl.org/dc/elements/1.1/"
   xmlns:cc="http://creativecommons.org/ns#"
   xmlns:rdf="http://www.w3.org/1999/02/22-rdf-syntax-ns#"
   xmlns:svg="http://www.w3.org/2000/svg"
   xmlns="http://www.w3.org/2000/svg"
   xmlns:sodipodi="http://sodipodi.sourceforge.net/DTD/sodipodi-0.dtd"
   xmlns:inkscape="http://www.inkscape.org/namespaces/inkscape"
   viewBox="0 0 496.75385 356.04825"
   height="356.04825"
   width="496.75385"
   xml:space="preserve"
   id="svg2"
   version="1.1"
   sodipodi:docname="20220629_191557.svg"
   inkscape:version="1.0.2 (e86c8708, 2021-01-15)"><sodipodi:namedview
     pagecolor="#ffffff"
     bordercolor="#666666"
     borderopacity="1"
     objecttolerance="10"
     gridtolerance="10"
     guidetolerance="10"
     inkscape:pageopacity="0"
     inkscape:pageshadow="2"
     inkscape:window-width="1335"
     inkscape:window-height="770"
     id="namedview1001"
     showgrid="false"
     fit-margin-top="0"
     fit-margin-left="0"
     fit-margin-right="0"
     fit-margin-bottom="0"
     inkscape:zoom="0.90337569"
     inkscape:cx="270.79132"
     inkscape:cy="158.93783"
     inkscape:window-x="355"
     inkscape:window-y="1120"
     inkscape:window-maximized="0"
     inkscape:current-layer="svg2" /><metadata
     id="metadata8"><rdf:RDF><cc:Work
         rdf:about=""><dc:format>image/svg+xml</dc:format><dc:type
           rdf:resource="http://purl.org/dc/dcmitype/StillImage" /><dc:title></dc:title></cc:Work></rdf:RDF></metadata><defs
     id="defs6"><clipPath
       id="clipPath66"
       clipPathUnits="userSpaceOnUse"><path
         id="path64"
         d="M 0,348 H 447 V 0 H 0 Z" /></clipPath><clipPath
       id="clipPath302"
       clipPathUnits="userSpaceOnUse"><path
         id="path300"
         d="M 0,348 H 447 V 0 H 0 Z" /></clipPath></defs><g
     transform="matrix(1.3333333,0,0,-1.3333333,-50.316396,404.98319)"
     id="g10"><g
   transform="translate(237.4967,74.8989)"
   id="g12"><path
     id="path14"
     style="fill:none;stroke:#ffffff;stroke-width:2;stroke-linecap:butt;stroke-linejoin:miter;stroke-miterlimit:10;stroke-dasharray:none;stroke-opacity:1"
     d="M 0,0 -11.949,4.935 -7.036,-7.036 -2.101,4.913 -14.073,0 -2.123,-4.935 -7.036,7.036 -11.971,-4.913 Z" /></g><g
   transform="translate(370.6665,202.9473)"
   id="g16"><path
     id="path18"
     style="fill:none;stroke:#ffffff;stroke-width:2;stroke-linecap:butt;stroke-linejoin:miter;stroke-miterlimit:10;stroke-dasharray:none;stroke-opacity:1"
     d="M 0,0 -11.949,4.935 -7.036,-7.036 -2.101,4.913 -14.073,0 -2.123,-4.935 -7.036,7.036 -11.971,-4.913 Z" /></g><g
   transform="translate(61.4951,131.5715)"
   id="g20"><path
     id="path22"
     style="fill:none;stroke:#ffffff;stroke-width:2;stroke-linecap:butt;stroke-linejoin:miter;stroke-miterlimit:10;stroke-dasharray:none;stroke-opacity:1"
     d="M 0,0 -11.949,4.935 -7.036,-7.036 -2.101,4.913 -14.073,0 -2.123,-4.935 -7.036,7.036 -11.971,-4.913 Z" /></g><g
   transform="translate(255.0649,285.8248)"
   id="g24"><path
     id="path26"
     style="fill:none;stroke:#ffffff;stroke-width:2;stroke-linecap:butt;stroke-linejoin:miter;stroke-miterlimit:10;stroke-dasharray:none;stroke-opacity:1"
     d="M 0,0 -11.949,4.935 -7.036,-7.036 -2.101,4.913 -14.073,0 -2.123,-4.935 -7.036,7.036 -11.971,-4.913 Z" /></g><g
   transform="translate(113.3866,249.305)"
   id="g28"><path
     id="path30"
     style="fill:none;stroke:#ffffff;stroke-width:2;stroke-linecap:butt;stroke-linejoin:miter;stroke-miterlimit:10;stroke-dasharray:none;stroke-opacity:1"
     d="M 0,0 -2.383,-1.465 -3.849,-3.849 -5.314,-1.465 -7.697,0 l 2.383,1.465 1.465,2.384 1.466,-2.384 z" /></g><g
   transform="translate(162.971,223.0026)"
   id="g32"><path
     id="path34"
     style="fill:none;stroke:#ffffff;stroke-width:2;stroke-linecap:butt;stroke-linejoin:miter;stroke-miterlimit:10;stroke-dasharray:none;stroke-opacity:1"
     d="M 0,0 -2.383,-1.465 -3.849,-3.849 -5.314,-1.465 -7.697,0 l 2.383,1.465 1.465,2.384 1.466,-2.384 z" /></g><g
   transform="translate(232.8618,214.1213)"
   id="g36"><path
     id="path38"
     style="fill:none;stroke:#ffffff;stroke-width:2;stroke-linecap:butt;stroke-linejoin:miter;stroke-miterlimit:10;stroke-dasharray:none;stroke-opacity:1"
     d="M 0,0 -2.383,-1.465 -3.849,-3.849 -5.314,-1.465 -7.697,0 l 2.383,1.465 1.465,2.384 1.466,-2.384 z" /></g><g
   transform="translate(391.79,181.0618)"
   id="g40"><path
     id="path42"
     style="fill:none;stroke:#ffffff;stroke-width:2;stroke-linecap:butt;stroke-linejoin:miter;stroke-miterlimit:10;stroke-dasharray:none;stroke-opacity:1"
     d="M 0,0 -2.383,-1.465 -3.849,-3.849 -5.314,-1.465 -7.697,0 l 2.383,1.465 1.465,2.384 1.466,-2.384 z" /></g><g
   transform="translate(202.0928,295.5414)"
   id="g44"><path
     id="path46"
     style="fill:none;stroke:#ffffff;stroke-width:2;stroke-linecap:butt;stroke-linejoin:miter;stroke-miterlimit:10;stroke-dasharray:none;stroke-opacity:1"
     d="M 0,0 -2.383,-1.465 -3.849,-3.849 -5.314,-1.465 -7.697,0 l 2.383,1.465 1.465,2.384 1.466,-2.384 z" /></g><g
   transform="translate(225.3567,250.7772)"
   id="g48"><path
     id="path50"
     style="fill:none;stroke:#ffffff;stroke-width:2;stroke-linecap:butt;stroke-linejoin:miter;stroke-miterlimit:10;stroke-dasharray:none;stroke-opacity:1"
     d="m 0,0 -4.406,-2.709 -2.71,-4.407 -2.709,4.407 -4.406,2.709 4.406,2.709 2.709,4.407 2.71,-4.407 z" /></g><g
   transform="translate(347.8048,269.0985)"
   id="g52"><path
     id="path54"
     style="fill:none;stroke:#ffffff;stroke-width:2;stroke-linecap:butt;stroke-linejoin:miter;stroke-miterlimit:10;stroke-dasharray:none;stroke-opacity:1"
     d="m 0,0 -4.406,-2.709 -2.71,-4.407 -2.709,4.407 -4.406,2.709 4.406,2.709 2.709,4.407 2.71,-4.407 z" /></g><g
   transform="translate(87.6237,221.1617)"
   id="g56"><path
     id="path58"
     style="fill:none;stroke:#ffffff;stroke-width:2;stroke-linecap:butt;stroke-linejoin:miter;stroke-miterlimit:10;stroke-dasharray:none;stroke-opacity:1"
     d="m 0,0 -4.406,-2.709 -2.71,-4.407 -2.709,4.407 -4.406,2.709 4.406,2.709 2.709,4.407 2.71,-4.407 z" /></g><g
   id="g60"><g
     clip-path="url(#clipPath66)"
     id="g62"><g
       transform="translate(332.3534,230.4413)"
       id="g68"><path
         id="path70"
         style="fill:none;stroke:#ffffff;stroke-width:2;stroke-linecap:butt;stroke-linejoin:miter;stroke-miterlimit:10;stroke-dasharray:none;stroke-opacity:1"
         d="M 0,0 C -0.138,0.036 -0.26,0.053 -0.37,0.099 -0.695,0.234 -1.021,0.367 -1.336,0.523 -2.092,0.897 -2.899,1.008 -3.728,1 -4.402,0.994 -5.077,0.978 -5.749,0.939 -6.185,0.915 -6.578,0.723 -6.966,0.535 -8.028,0.021 -8.918,-0.72 -9.746,-1.547 c -0.367,-0.366 -0.747,-0.718 -1.126,-1.071 -0.089,-0.082 -0.199,-0.141 -0.354,-0.248 -0.051,0.632 -0.191,1.166 -0.652,1.565 -0.453,0.394 -0.986,0.573 -1.565,0.555 -0.572,-0.018 -1.125,-0.153 -1.562,-0.701 -0.076,0.113 -0.128,0.196 -0.187,0.273 -0.177,0.234 -0.42,0.346 -0.709,0.357 -0.371,0.014 -0.742,0.021 -1.114,0.032 -0.125,0.004 -0.25,0.015 -0.396,0.023 -0.047,0.128 -0.089,0.245 -0.133,0.361 -0.103,0.274 -0.183,0.56 -0.319,0.816 -0.102,0.193 -0.271,0.353 -0.423,0.516 -0.251,0.27 -0.538,0.251 -0.855,0.108 -0.461,-0.207 -0.861,-0.499 -1.235,-0.832 -0.241,-0.215 -0.47,-0.442 -0.706,-0.662 -0.033,-0.031 -0.074,-0.055 -0.144,-0.107 0,0.226 -0.019,0.417 0.003,0.604 0.059,0.496 -0.011,0.98 -0.166,1.444 -0.333,0.994 -0.876,1.874 -1.521,2.694 -0.62,0.787 -1.323,1.493 -2.097,2.127 -0.996,0.815 -2.052,1.536 -3.274,1.977 -0.283,0.102 -0.584,0.153 -0.878,0.225 -0.121,0.029 -0.244,0.053 -0.393,0.086 0.05,0.114 0.087,0.202 0.127,0.288 0.165,0.355 0.335,0.706 0.494,1.064 0.371,0.834 0.285,1.648 -0.086,2.464 -0.391,0.863 -1.039,1.505 -1.726,2.122 -0.121,0.11 -0.235,0.228 -0.391,0.379 0.227,0.163 0.413,0.315 0.617,0.439 0.596,0.36 1.113,0.799 1.447,1.42 0.19,0.355 0.302,0.733 0.32,1.146 0.053,1.202 -0.357,2.269 -0.956,3.271 -0.29,0.483 -0.664,0.916 -1,1.372 -0.044,0.06 -0.086,0.122 -0.103,0.224 0.068,-0.021 0.141,-0.032 0.203,-0.064 1.048,-0.534 2.048,-1.135 2.962,-1.887 0.947,-0.779 1.844,-1.608 2.635,-2.542 0.555,-0.655 1.055,-1.359 1.554,-2.059 0.689,-0.965 1.265,-1.999 1.801,-3.054 0.585,-1.15 1.157,-2.307 1.729,-3.463 0.452,-0.913 0.913,-1.822 1.614,-2.575 0.547,-0.589 1.196,-0.976 2.043,-0.898 0.049,0.004 0.098,0.004 0.146,0.01 0.332,0.043 0.444,0.203 0.365,0.525 -0.028,0.114 -0.063,0.226 -0.101,0.337 -0.136,0.407 -0.027,0.792 0.103,1.174 0.047,0.139 0.103,0.276 0.169,0.407 0.036,0.073 0.1,0.132 0.16,0.208 0.331,-0.23 0.49,-0.547 0.595,-0.879 0.12,-0.381 0.364,-0.585 0.738,-0.669 0.257,-0.058 0.513,-0.12 0.768,-0.187 0.158,-0.042 0.258,0.015 0.34,0.15 0.146,0.239 0.349,0.422 0.6,0.546 0.093,0.046 0.196,0.07 0.303,0.106 0.274,-0.282 0.286,-0.606 0.237,-0.94 -0.063,-0.424 -0.247,-0.801 -0.48,-1.156 -0.016,-0.024 -0.032,-0.049 -0.049,-0.073 -0.412,-0.579 -0.279,-0.795 0.421,-0.939 0.396,-0.082 0.817,-0.062 1.227,-0.055 0.39,0.007 0.779,0.054 1.168,0.087 0.804,0.067 1.534,0.301 2.197,0.795 0.906,0.674 1.756,1.402 2.526,2.227 0.589,0.631 1.306,1.083 2.093,1.428 2.482,1.088 5.05,1.886 7.731,2.322 1.054,0.172 2.107,0.293 3.175,0.266 0.054,-0.001 0.108,0 0.172,-0.04 C 8.195,11.809 8.056,11.722 7.912,11.643 7.128,11.215 6.476,10.642 5.941,9.922 5.473,9.29 5.056,8.635 4.773,7.897 4.589,7.416 4.499,6.919 4.467,6.41 4.449,6.127 4.603,5.914 4.814,5.706 4.739,5.687 4.695,5.67 4.65,5.664 3.887,5.569 3.282,5.163 2.728,4.671 1.903,3.941 1.313,3.03 0.793,2.074 0.551,1.629 0.357,1.157 0.165,0.688 0.082,0.485 0.059,0.257 0,0 Z" /></g><g
       transform="translate(59.9889,174.4982)"
       id="g72"><path
         id="path74"
         style="fill:none;stroke:#ffffff;stroke-width:2;stroke-linecap:butt;stroke-linejoin:miter;stroke-miterlimit:10;stroke-dasharray:none;stroke-opacity:1"
         d="m 0,0 c 0.091,0.024 0.171,0.035 0.244,0.065 0.214,0.089 0.429,0.177 0.637,0.28 0.498,0.246 1.03,0.32 1.576,0.314 C 2.901,0.655 3.346,0.644 3.789,0.619 4.076,0.603 4.335,0.477 4.591,0.353 c 0.7,-0.339 1.286,-0.828 1.832,-1.373 0.242,-0.241 0.493,-0.473 0.743,-0.705 0.058,-0.054 0.131,-0.093 0.233,-0.164 0.033,0.417 0.126,0.768 0.429,1.032 0.299,0.259 0.65,0.377 1.032,0.365 0.377,-0.011 0.741,-0.101 1.029,-0.461 0.051,0.074 0.085,0.128 0.123,0.179 0.117,0.155 0.277,0.228 0.468,0.236 0.244,0.009 0.489,0.013 0.734,0.021 0.082,0.002 0.165,0.009 0.261,0.015 0.031,0.084 0.059,0.161 0.088,0.238 0.068,0.18 0.12,0.369 0.21,0.537 0.067,0.127 0.178,0.233 0.278,0.341 0.166,0.177 0.355,0.165 0.564,0.071 0.304,-0.137 0.568,-0.329 0.814,-0.549 0.159,-0.141 0.31,-0.291 0.465,-0.436 0.022,-0.021 0.049,-0.036 0.095,-0.07 0,0.149 0.013,0.275 -0.002,0.398 -0.039,0.327 0.007,0.646 0.11,0.951 0.219,0.655 0.577,1.236 1.002,1.776 0.409,0.519 0.872,0.984 1.382,1.401 0.656,0.538 1.353,1.013 2.158,1.304 0.186,0.067 0.385,0.1 0.579,0.148 0.079,0.019 0.16,0.035 0.259,0.057 -0.034,0.075 -0.058,0.133 -0.084,0.189 -0.109,0.234 -0.221,0.466 -0.326,0.701 -0.244,0.55 -0.188,1.087 0.057,1.625 0.258,0.569 0.685,0.992 1.137,1.398 0.081,0.073 0.156,0.15 0.258,0.25 -0.149,0.107 -0.272,0.208 -0.406,0.289 -0.393,0.238 -0.734,0.527 -0.954,0.936 -0.126,0.234 -0.199,0.483 -0.211,0.755 -0.035,0.793 0.235,1.496 0.63,2.156 0.191,0.319 0.438,0.604 0.659,0.904 0.029,0.04 0.057,0.081 0.068,0.148 C 20.26,15.002 20.212,14.995 20.171,14.974 19.481,14.622 18.822,14.226 18.219,13.73 17.595,13.217 17.004,12.67 16.483,12.055 16.117,11.623 15.787,11.159 15.458,10.698 15.004,10.062 14.625,9.38 14.271,8.685 13.886,7.927 13.509,7.165 13.132,6.402 12.834,5.801 12.53,5.202 12.068,4.705 11.707,4.317 11.28,4.062 10.722,4.114 10.69,4.117 10.657,4.116 10.625,4.121 c -0.218,0.028 -0.292,0.133 -0.24,0.346 0.018,0.075 0.042,0.148 0.066,0.222 0.09,0.268 0.018,0.522 -0.068,0.774 C 10.352,5.554 10.315,5.644 10.272,5.73 10.248,5.779 10.206,5.818 10.166,5.868 9.949,5.716 9.844,5.507 9.775,5.288 9.695,5.037 9.534,4.903 9.288,4.847 9.119,4.809 8.95,4.768 8.782,4.724 8.678,4.697 8.612,4.734 8.558,4.823 8.462,4.981 8.328,5.101 8.162,5.183 8.101,5.213 8.033,5.229 7.963,5.253 7.782,5.067 7.774,4.853 7.807,4.633 7.848,4.354 7.969,4.105 8.123,3.871 8.134,3.855 8.144,3.839 8.155,3.823 8.427,3.441 8.339,3.299 7.878,3.204 7.617,3.15 7.339,3.164 7.069,3.168 6.812,3.173 6.556,3.204 6.299,3.225 5.77,3.27 5.288,3.424 4.851,3.749 4.255,4.194 3.694,4.673 3.187,5.217 2.798,5.633 2.326,5.931 1.807,6.158 0.171,6.876 -1.521,7.401 -3.288,7.689 -3.983,7.802 -4.676,7.882 -5.381,7.864 -5.416,7.863 -5.452,7.864 -5.494,7.837 -5.401,7.783 -5.309,7.725 -5.215,7.674 -4.697,7.392 -4.268,7.014 -3.916,6.539 -3.607,6.122 -3.332,5.691 -3.146,5.205 -3.024,4.888 -2.965,4.56 -2.944,4.224 -2.932,4.038 -3.034,3.897 -3.173,3.761 -3.124,3.748 -3.094,3.737 -3.064,3.733 -2.562,3.671 -2.163,3.402 -1.798,3.079 -1.254,2.597 -0.866,1.997 -0.523,1.367 -0.363,1.074 -0.235,0.763 -0.109,0.453 -0.054,0.32 -0.039,0.169 0,0 Z" /></g><g
       transform="translate(240.977,193.0497)"
       id="g76"><path
         id="path78"
         style="fill:none;stroke:#ffffff;stroke-width:2;stroke-linecap:butt;stroke-linejoin:miter;stroke-miterlimit:10;stroke-dasharray:none;stroke-opacity:1"
         d="M 0,0 -0.752,-0.462 -1.214,-1.214 -1.676,-0.462 -2.428,0 l 0.752,0.462 0.462,0.752 0.462,-0.752 z" /></g><g
       transform="translate(68.7156,152.7261)"
       id="g80"><path
         id="path82"
         style="fill:none;stroke:#ffffff;stroke-width:2;stroke-linecap:butt;stroke-linejoin:miter;stroke-miterlimit:10;stroke-dasharray:none;stroke-opacity:1"
         d="M 0,0 -0.752,-0.462 -1.214,-1.214 -1.676,-0.462 -2.428,0 l 0.752,0.462 0.462,0.752 0.462,-0.752 z" /></g><g
       transform="translate(180.2726,281.2292)"
       id="g84"><path
         id="path86"
         style="fill:none;stroke:#ffffff;stroke-width:2;stroke-linecap:butt;stroke-linejoin:miter;stroke-miterlimit:10;stroke-dasharray:none;stroke-opacity:1"
         d="M 0,0 -0.752,-0.462 -1.214,-1.214 -1.676,-0.462 -2.428,0 l 0.752,0.462 0.462,0.752 0.462,-0.752 z" /></g><g
       transform="translate(363.0128,183.0884)"
       id="g88"><path
         id="path90"
         style="fill:none;stroke:#ffffff;stroke-width:2;stroke-linecap:butt;stroke-linejoin:miter;stroke-miterlimit:10;stroke-dasharray:none;stroke-opacity:1"
         d="M 0,0 -0.752,-0.462 -1.214,-1.214 -1.676,-0.462 -2.428,0 l 0.752,0.462 0.462,0.752 0.462,-0.752 z" /></g><g
       transform="translate(356.141,226.6353)"
       id="g92"><path
         id="path94"
         style="fill:none;stroke:#ffffff;stroke-width:2;stroke-linecap:butt;stroke-linejoin:miter;stroke-miterlimit:10;stroke-dasharray:none;stroke-opacity:1"
         d="M 0,0 -0.752,-0.462 -1.214,-1.214 -1.676,-0.462 -2.428,0 l 0.752,0.462 0.462,0.752 0.462,-0.752 z" /></g><g
       transform="translate(359.8169,133.5675)"
       id="g96"><path
         id="path98"
         style="fill:none;stroke:#ffffff;stroke-width:2;stroke-linecap:butt;stroke-linejoin:miter;stroke-miterlimit:10;stroke-dasharray:none;stroke-opacity:1"
         d="M 0,0 -0.752,-0.462 -1.214,-1.214 -1.676,-0.462 -2.428,0 l 0.752,0.462 0.462,0.752 0.462,-0.752 z" /></g><g
       transform="translate(179.3018,204.9069)"
       id="g100"><path
         id="path102"
         style="fill:none;stroke:#ffffff;stroke-width:2;stroke-linecap:butt;stroke-linejoin:miter;stroke-miterlimit:10;stroke-dasharray:none;stroke-opacity:1"
         d="M 0,0 -0.752,-0.462 -1.214,-1.214 -1.676,-0.462 -2.428,0 l 0.752,0.462 0.462,0.752 0.462,-0.752 z" /></g><g
       transform="translate(289.021,200.5197)"
       id="g104"><path
         id="path106"
         style="fill:none;stroke:#ffffff;stroke-width:2;stroke-linecap:butt;stroke-linejoin:miter;stroke-miterlimit:10;stroke-dasharray:none;stroke-opacity:1"
         d="M 0,0 -1.504,-0.925 -2.428,-2.428 -3.353,-0.925 -4.856,0 l 1.503,0.924 0.925,1.504 0.924,-1.504 z" /></g><g
       transform="translate(269.154,260.9482)"
       id="g108"><path
         id="path110"
         style="fill:none;stroke:#ffffff;stroke-width:2;stroke-linecap:butt;stroke-linejoin:miter;stroke-miterlimit:10;stroke-dasharray:none;stroke-opacity:1"
         d="M 0,0 -1.504,-0.924 -2.428,-2.428 -3.353,-0.924 -4.856,0 l 1.503,0.924 0.925,1.504 0.924,-1.504 z" /></g><g
       transform="translate(366.0946,244.4424)"
       id="g112"><path
         id="path114"
         style="fill:none;stroke:#ffffff;stroke-width:2;stroke-linecap:butt;stroke-linejoin:miter;stroke-miterlimit:10;stroke-dasharray:none;stroke-opacity:1"
         d="M 0,0 -1.504,-0.924 -2.428,-2.428 -3.353,-0.924 -4.856,0 l 1.503,0.924 0.925,1.504 0.924,-1.504 z" /></g><g
       transform="translate(115.7318,171.0132)"
       id="g116"><path
         id="path118"
         style="fill:none;stroke:#ffffff;stroke-width:2;stroke-linecap:butt;stroke-linejoin:miter;stroke-miterlimit:10;stroke-dasharray:none;stroke-opacity:1"
         d="M 0,0 -1.504,-0.924 -2.428,-2.428 -3.353,-0.924 -4.856,0 l 1.503,0.924 0.925,1.504 0.924,-1.504 z" /></g><g
       transform="translate(325.2502,133.5675)"
       id="g120"><path
         id="path122"
         style="fill:none;stroke:#ffffff;stroke-width:2;stroke-linecap:butt;stroke-linejoin:miter;stroke-miterlimit:10;stroke-dasharray:none;stroke-opacity:1"
         d="M 0,0 -1.504,-0.924 -2.428,-2.428 -3.353,-0.924 -4.856,0 l 1.503,0.924 0.925,1.504 0.924,-1.504 z" /></g><g
       transform="translate(258.3099,238.9004)"
       id="g124"><path
         id="path126"
         style="fill:#ffffff;fill-opacity:1;fill-rule:nonzero;stroke:none"
         d="M 0,0 C 1.93,0 1.934,3 0,3 -1.93,3 -1.934,0 0,0" /></g><g
       transform="translate(238.829,238.9004)"
       id="g128"><path
         id="path130"
         style="fill:#ffffff;fill-opacity:1;fill-rule:nonzero;stroke:none"
         d="M 0,0 C 1.93,0 1.934,3 0,3 -1.93,3 -1.934,0 0,0" /></g><g
       transform="translate(228.0612,161.8849)"
       id="g132"><path
         id="path134"
         style="fill:#ffffff;fill-opacity:1;fill-rule:nonzero;stroke:none"
         d="M 0,0 C 1.93,0 1.934,3 0,3 -1.93,3 -1.934,0 0,0" /></g><g
       transform="translate(215.0967,222.8904)"
       id="g136"><path
         id="path138"
         style="fill:#ffffff;fill-opacity:1;fill-rule:nonzero;stroke:none"
         d="M 0,0 C 1.93,0 1.934,3 0,3 -1.93,3 -1.934,0 0,0" /></g><g
       transform="translate(315.9867,177.5564)"
       id="g140"><path
         id="path142"
         style="fill:#ffffff;fill-opacity:1;fill-rule:nonzero;stroke:none"
         d="M 0,0 C 1.93,0 1.934,3 0,3 -1.93,3 -1.934,0 0,0" /></g><g
       transform="translate(165.3796,289.6336)"
       id="g144"><path
         id="path146"
         style="fill:#ffffff;fill-opacity:1;fill-rule:nonzero;stroke:none"
         d="M 0,0 C 1.93,0 1.934,3 0,3 -1.93,3 -1.934,0 0,0" /></g><g
       transform="translate(143.0707,238.9004)"
       id="g148"><path
         id="path150"
         style="fill:#ffffff;fill-opacity:1;fill-rule:nonzero;stroke:none"
         d="M 0,0 C 1.93,0 1.934,3 0,3 -1.93,3 -1.934,0 0,0" /></g><g
       transform="translate(196.6121,271.2668)"
       id="g152"><path
         id="path154"
         style="fill:#ffffff;fill-opacity:1;fill-rule:nonzero;stroke:none"
         d="M 0,0 C 1.93,0 1.934,3 0,3 -1.93,3 -1.934,0 0,0" /></g><g
       transform="translate(216.3715,279.7292)"
       id="g156"><path
         id="path158"
         style="fill:#ffffff;fill-opacity:1;fill-rule:nonzero;stroke:none"
         d="M 0,0 C 1.93,0 1.934,3 0,3 -1.93,3 -1.934,0 0,0" /></g><g
       transform="translate(339.5394,212.6213)"
       id="g160"><path
         id="path162"
         style="fill:#ffffff;fill-opacity:1;fill-rule:nonzero;stroke:none"
         d="M 0,0 C 1.93,0 1.934,3 0,3 -1.93,3 -1.934,0 0,0" /></g><g
       transform="translate(144.3455,161.8849)"
       id="g164"><path
         id="path166"
         style="fill:#ffffff;fill-opacity:1;fill-rule:nonzero;stroke:none"
         d="M 0,0 C 1.93,0 1.934,3 0,3 -1.93,3 -1.934,0 0,0" /></g><g
       transform="translate(380.2811,219.6617)"
       id="g168"><path
         id="path170"
         style="fill:#ffffff;fill-opacity:1;fill-rule:nonzero;stroke:none"
         d="M 0,0 C 1.93,0 1.934,3 0,3 -1.93,3 -1.934,0 0,0" /></g><g
       transform="translate(221.8746,197.1519)"
       id="g172"><path
         id="path174"
         style="fill:#ffffff;fill-opacity:1;fill-rule:nonzero;stroke:none"
         d="M 0,0 C 1.93,0 1.934,3 0,3 -1.93,3 -1.934,0 0,0" /></g><g
       transform="translate(196.6121,201.4835)"
       id="g176"><path
         id="path178"
         style="fill:#ffffff;fill-opacity:1;fill-rule:nonzero;stroke:none"
         d="M 0,0 C 1.93,0 1.934,3 0,3 -1.93,3 -1.934,0 0,0" /></g><g
       transform="translate(221.3796,177.5564)"
       id="g180"><path
         id="path182"
         style="fill:#ffffff;fill-opacity:1;fill-rule:nonzero;stroke:none"
         d="M 0,0 C 1.93,0 1.934,3 0,3 -1.93,3 -1.934,0 0,0" /></g><g
       transform="translate(342.5541,136.2026)"
       id="g184"><path
         id="path186"
         style="fill:#ffffff;fill-opacity:1;fill-rule:nonzero;stroke:none"
         d="M 0,0 C 1.93,0 1.934,3 0,3 -1.93,3 -1.934,0 0,0" /></g><g
       transform="translate(98.4528,206.5027)"
       id="g188"><path
         id="path190"
         style="fill:#ffffff;fill-opacity:1;fill-rule:nonzero;stroke:none"
         d="M 0,0 C 1.93,0 1.934,3 0,3 -1.93,3 -1.934,0 0,0" /></g><g
       transform="translate(88.2544,117.9044)"
       id="g192"><path
         id="path194"
         style="fill:#ffffff;fill-opacity:1;fill-rule:nonzero;stroke:none"
         d="M 0,0 C 1.93,0 1.934,3 0,3 -1.93,3 -1.934,0 0,0" /></g><g
       transform="translate(111.4359,227.5369)"
       id="g196"><path
         id="path198"
         style="fill:#ffffff;fill-opacity:1;fill-rule:nonzero;stroke:none"
         d="M 0,0 C 1.93,0 1.934,3 0,3 -1.93,3 -1.934,0 0,0" /></g><g
       transform="translate(182.1809,228.5469)"
       id="g200"><path
         id="path202"
         style="fill:#ffffff;fill-opacity:1;fill-rule:nonzero;stroke:none"
         d="M 0,0 C 1.93,0 1.934,3 0,3 -1.93,3 -1.934,0 0,0" /></g><g
       transform="translate(181.2669,186.106)"
       id="g204"><path
         id="path206"
         style="fill:#ffffff;fill-opacity:1;fill-rule:nonzero;stroke:none"
         d="M 0,0 C 1.93,0 1.934,3 0,3 -1.93,3 -1.934,0 0,0" /></g><g
       transform="translate(95.2658,254.7508)"
       id="g208"><path
         id="path210"
         style="fill:#ffffff;fill-opacity:1;fill-rule:nonzero;stroke:none"
         d="M 0,0 C 1.93,0 1.934,3 0,3 -1.93,3 -1.934,0 0,0" /></g><g
       transform="translate(65.3081,199.0197)"
       id="g212"><path
         id="path214"
         style="fill:#ffffff;fill-opacity:1;fill-rule:nonzero;stroke:none"
         d="M 0,0 C 1.93,0 1.934,3 0,3 -1.93,3 -1.934,0 0,0" /></g><g
       transform="translate(127.2605,203.4069)"
       id="g216"><path
         id="path218"
         style="fill:#ffffff;fill-opacity:1;fill-rule:nonzero;stroke:none"
         d="M 0,0 C 1.93,0 1.934,3 0,3 -1.93,3 -1.934,0 0,0" /></g><g
       transform="translate(234.856,264.506)"
       id="g220"><path
         id="path222"
         style="fill:#ffffff;fill-opacity:1;fill-rule:nonzero;stroke:none"
         d="M 0,0 C 1.93,0 1.934,3 0,3 -1.93,3 -1.934,0 0,0" /></g><g
       transform="translate(315.9867,254.501)"
       id="g224"><path
         id="path226"
         style="fill:#ffffff;fill-opacity:1;fill-rule:nonzero;stroke:none"
         d="M 0,0 C 1.93,0 1.934,3 0,3 -1.93,3 -1.934,0 0,0" /></g><g
       transform="translate(320.9543,279.7292)"
       id="g228"><path
         id="path230"
         style="fill:#ffffff;fill-opacity:1;fill-rule:nonzero;stroke:none"
         d="M 0,0 C 1.93,0 1.934,3 0,3 -1.93,3 -1.934,0 0,0" /></g><g
       transform="translate(371.8966,159.9727)"
       id="g232"><path
         id="path234"
         style="fill:#ffffff;fill-opacity:1;fill-rule:nonzero;stroke:none"
         d="M 0,0 C 1.93,0 1.934,3 0,3 -1.93,3 -1.934,0 0,0" /></g><g
       transform="translate(266.7259,184.2178)"
       id="g236"><path
         id="path238"
         style="fill:#ffffff;fill-opacity:1;fill-rule:nonzero;stroke:none"
         d="M 0,0 C 1.93,0 1.934,3 0,3 -1.93,3 -1.934,0 0,0" /></g><g
       transform="translate(151.118,111.4941)"
       id="g240"><path
         id="path242"
         style="fill:#ffffff;fill-opacity:1;fill-rule:nonzero;stroke:none"
         d="M 0,0 C 1.93,0 1.934,3 0,3 -1.93,3 -1.934,0 0,0" /></g><g
       transform="translate(233.5812,300.7374)"
       id="g244"><path
         id="path246"
         style="fill:#ffffff;fill-opacity:1;fill-rule:nonzero;stroke:none"
         d="M 0,0 C 1.93,0 1.934,3 0,3 -1.93,3 -1.934,0 0,0" /></g><g
       transform="translate(275.0121,292.5515)"
       id="g248"><path
         id="path250"
         style="fill:#ffffff;fill-opacity:1;fill-rule:nonzero;stroke:none"
         d="M 0,0 C 1.93,0 1.934,3 0,3 -1.93,3 -1.934,0 0,0" /></g><g
       transform="translate(154.0519,272.7668)"
       id="g252"><path
         id="path254"
         style="fill:none;stroke:#ffffff;stroke-width:2;stroke-linecap:butt;stroke-linejoin:miter;stroke-miterlimit:10;stroke-dasharray:none;stroke-opacity:1"
         d="m 0,0 c -13.295,-1.891 -14.828,-3.424 -16.719,-16.72 -1.892,13.296 -3.425,14.829 -16.72,16.72 13.295,1.891 14.828,3.424 16.72,16.719 C -14.828,3.424 -13.295,1.891 0,0 Z" /></g><g
       transform="translate(175.1355,258.4746)"
       id="g256"><path
         id="path258"
         style="fill:none;stroke:#ffffff;stroke-width:2;stroke-linecap:butt;stroke-linejoin:miter;stroke-miterlimit:10;stroke-dasharray:none;stroke-opacity:1"
         d="M 0,0 C -3.265,-0.464 -3.642,-0.841 -4.106,-4.106 -4.571,-0.841 -4.947,-0.464 -8.212,0 -4.947,0.464 -4.571,0.841 -4.106,4.106 -3.642,0.841 -3.265,0.464 0,0 Z" /></g><g
       transform="translate(395.7436,129.4733)"
       id="g260"><path
         id="path262"
         style="fill:none;stroke:#ffffff;stroke-width:2;stroke-linecap:butt;stroke-linejoin:miter;stroke-miterlimit:10;stroke-dasharray:none;stroke-opacity:1"
         d="M 0,0 C -6.204,-0.883 -6.919,-1.598 -7.802,-7.802 -8.685,-1.598 -9.4,-0.883 -15.604,0 -9.4,0.883 -8.685,1.598 -7.802,7.802 -6.919,1.598 -6.204,0.883 0,0 Z" /></g><g
       transform="translate(403.1665,157.2874)"
       id="g264"><path
         id="path266"
         style="fill:none;stroke:#ffffff;stroke-width:2;stroke-linecap:butt;stroke-linejoin:miter;stroke-miterlimit:10;stroke-dasharray:none;stroke-opacity:1"
         d="M 0,0 C -0.537,-0.076 -0.598,-0.138 -0.675,-0.675 -0.751,-0.138 -0.813,-0.076 -1.35,0 -0.813,0.076 -0.751,0.138 -0.675,0.675 -0.598,0.138 -0.537,0.076 0,0 Z" /></g><g
       transform="translate(46.2235,161.4727)"
       id="g268"><path
         id="path270"
         style="fill:none;stroke:#ffffff;stroke-width:2;stroke-linecap:butt;stroke-linejoin:miter;stroke-miterlimit:10;stroke-dasharray:none;stroke-opacity:1"
         d="M 0,0 C -0.537,-0.076 -0.598,-0.138 -0.675,-0.675 -0.751,-0.138 -0.813,-0.076 -1.35,0 -0.813,0.076 -0.751,0.138 -0.675,0.675 -0.598,0.138 -0.537,0.076 0,0 Z" /></g><g
       transform="translate(261.2685,209.3786)"
       id="g272"><path
         id="path274"
         style="fill:none;stroke:#ffffff;stroke-width:2;stroke-linecap:butt;stroke-linejoin:miter;stroke-miterlimit:10;stroke-dasharray:none;stroke-opacity:1"
         d="M 0,0 C -2.353,-0.335 -2.624,-0.606 -2.959,-2.959 -3.293,-0.606 -3.565,-0.335 -5.917,0 -3.565,0.335 -3.293,0.606 -2.959,2.959 -2.624,0.606 -2.353,0.335 0,0 Z" /></g><g
       transform="translate(111.37,128.8173)"
       id="g276"><path
         id="path278"
         style="fill:none;stroke:#ffffff;stroke-width:2;stroke-linecap:butt;stroke-linejoin:miter;stroke-miterlimit:10;stroke-dasharray:none;stroke-opacity:1"
         d="M 0,0 C -3.664,-0.521 -4.086,-0.944 -4.608,-4.608 -5.129,-0.944 -5.551,-0.521 -9.215,0 -5.551,0.521 -5.129,0.944 -4.608,4.608 -4.086,0.944 -3.664,0.521 0,0 Z" /></g><g
       transform="translate(293.9245,224.3904)"
       id="g280"><path
         id="path282"
         style="fill:none;stroke:#ffffff;stroke-width:2;stroke-linecap:butt;stroke-linejoin:miter;stroke-miterlimit:10;stroke-dasharray:none;stroke-opacity:1"
         d="M 0,0 C -1.832,-0.261 -2.043,-0.472 -2.304,-2.304 -2.564,-0.472 -2.776,-0.261 -4.608,0 -2.776,0.261 -2.564,0.472 -2.304,2.304 -2.043,0.472 -1.832,0.261 0,0 Z" /></g><g
       transform="translate(302.4573,281.2292)"
       id="g284"><path
         id="path286"
         style="fill:none;stroke:#ffffff;stroke-width:2;stroke-linecap:butt;stroke-linejoin:miter;stroke-miterlimit:10;stroke-dasharray:none;stroke-opacity:1"
         d="M 0,0 C -6.066,-0.863 -6.766,-1.563 -7.629,-7.629 -8.492,-1.563 -9.191,-0.863 -15.258,0 -9.191,0.863 -8.492,1.562 -7.629,7.629 -6.766,1.562 -6.066,0.863 0,0 Z" /></g></g></g><text
   id="text290"
   style="font-variant:normal;font-weight:normal;font-stretch:normal;font-size:38px;font-family:'PP Grafier';-inkscape-font-specification:PPGrafier-Regular;writing-mode:lr-tb;fill:#ffffff;fill-opacity:1;fill-rule:nonzero;stroke:none"
   transform="matrix(1,0,0,-1,48.1997,61.7891)"><tspan
     id="tspan288"
     y="0"
     x="0 35.150002 70.68 101.65 135.28 201.742 229.862 265.392 296.362 329.992">HOKUSPOKUS</tspan></text>
<text
   id="text294"
   style="font-variant:normal;font-weight:normal;font-stretch:normal;font-size:11px;font-family:'PP Grafier';-inkscape-font-specification:PPGrafier-Regular;writing-mode:lr-tb;fill:#ffffff;fill-opacity:1;fill-rule:nonzero;stroke:none"
   transform="matrix(1,0,0,-1,198.2437,37.0459)"><tspan
     id="tspan292"
     y="0"
     x="0 11.66 23.540001 29.183001 37.871899 47.6619 56.241901">OH 2022</tspan></text>
<g
   id="g296"><g
     clip-path="url(#clipPath302)"
     id="g298"><g
       transform="translate(203.1387,36.8262)"
       id="g304"><path
         id="path306"
         style="fill:none;stroke:#ffffff;stroke-width:0.25;stroke-linecap:butt;stroke-linejoin:miter;stroke-miterlimit:4;stroke-dasharray:none;stroke-opacity:1"
         d="M 0,0 C 2.541,0 4.235,1.693 4.235,4.234 4.235,6.775 2.541,8.47 0,8.47 -2.541,8.47 -4.235,6.775 -4.235,4.234 -4.235,1.693 -2.541,0 0,0 Z m 0,0.55 c -1.87,0 -2.915,1.331 -2.915,3.684 C -2.915,6.589 -1.87,7.92 0,7.92 1.87,7.92 2.915,6.589 2.915,4.234 2.915,1.881 1.87,0.55 0,0.55 Z" /></g><g
       transform="translate(219.0889,37.0459)"
       id="g308"><path
         id="path310"
         style="fill:none;stroke:#ffffff;stroke-width:0.25;stroke-linecap:butt;stroke-linejoin:miter;stroke-miterlimit:4;stroke-dasharray:none;stroke-opacity:1"
         d="M 0,0 V 0.44 H -0.88 L -1.1,0.649 V 7.37 l 0.22,0.22 H 0 V 8.03 H -8.69 V 7.59 h 0.88 L -7.59,7.37 V 0.66 L -7.81,0.44 H -8.69 V 0 Z m -6.49,7.37 0.22,0.22 h 3.85 L -2.2,7.37 V 4.477 h -4.29 z m 0,-6.71 V 3.982 H -2.2 V 0.649 L -2.42,0.44 h -3.85 z" /></g><g
       transform="translate(232.0464,37.9258)"
       id="g312"><path
         id="path314"
         style="fill:none;stroke:#ffffff;stroke-width:0.25;stroke-linecap:butt;stroke-linejoin:miter;stroke-miterlimit:4;stroke-dasharray:none;stroke-opacity:1"
         d="m 0,0 h -2.717 v 0.11 c 2.53,2.002 3.707,3.411 3.707,4.994 0,1.452 -0.902,2.266 -2.497,2.266 -1.518,0 -2.409,-0.836 -2.475,-2.309 l -0.044,-1.101 1.21,0.22 v 0.99 c 0,1.122 0.44,1.76 1.232,1.76 0.869,0 1.364,-0.671 1.364,-1.859 0,-1.803 -1.287,-3.387 -3.96,-5.51 V -0.88 H 0.77 L 1.1,2.09 0.748,2.156 Z" /></g><g
       transform="translate(239.856,36.8262)"
       id="g316"><path
         id="path318"
         style="fill:none;stroke:#ffffff;stroke-width:0.25;stroke-linecap:butt;stroke-linejoin:miter;stroke-miterlimit:4;stroke-dasharray:none;stroke-opacity:1"
         d="M 0,0 C 1.914,0 3.08,1.605 3.08,4.234 3.08,6.863 1.914,8.47 0,8.47 -1.914,8.47 -3.08,6.863 -3.08,4.234 -3.08,1.605 -1.914,0 0,0 Z m 0,0.439 c -1.199,0 -1.87,1.365 -1.87,3.795 0,2.432 0.671,3.795 1.87,3.795 1.199,0 1.87,-1.363 1.87,-3.795 C 1.87,1.804 1.199,0.439 0,0.439 Z" /></g><g
       transform="translate(250.5259,37.9258)"
       id="g320"><path
         id="path322"
         style="fill:none;stroke:#ffffff;stroke-width:0.25;stroke-linecap:butt;stroke-linejoin:miter;stroke-miterlimit:4;stroke-dasharray:none;stroke-opacity:1"
         d="m 0,0 h -2.717 v 0.11 c 2.53,2.002 3.707,3.411 3.707,4.994 0,1.452 -0.902,2.266 -2.497,2.266 -1.518,0 -2.409,-0.836 -2.475,-2.309 l -0.044,-1.101 1.21,0.22 v 0.99 c 0,1.122 0.44,1.76 1.232,1.76 0.869,0 1.364,-0.671 1.364,-1.859 0,-1.803 -1.287,-3.387 -3.96,-5.51 V -0.88 H 0.77 L 1.1,2.09 0.748,2.156 Z" /></g><g
       transform="translate(259.106,37.9258)"
       id="g324"><path
         id="path326"
         style="fill:none;stroke:#ffffff;stroke-width:0.25;stroke-linecap:butt;stroke-linejoin:miter;stroke-miterlimit:4;stroke-dasharray:none;stroke-opacity:1"
         d="m 0,0 h -2.717 v 0.11 c 2.53,2.002 3.707,3.411 3.707,4.994 0,1.452 -0.902,2.266 -2.497,2.266 -1.518,0 -2.409,-0.836 -2.475,-2.309 l -0.044,-1.101 1.21,0.22 v 0.99 c 0,1.122 0.44,1.76 1.232,1.76 0.869,0 1.364,-0.671 1.364,-1.859 0,-1.803 -1.287,-3.387 -3.96,-5.51 V -0.88 H 0.77 L 1.1,2.09 0.748,2.156 Z" /></g><g
       transform="translate(182.7681,163.3186)"
       id="g328"><path
         id="path330"
         style="fill:#ffffff;fill-opacity:1;fill-rule:nonzero;stroke:none"
         d="M 0,0 C 0.139,0.091 0.279,0.182 0.418,0.274 2.159,-1.735 3.9,-3.743 5.026,-5.043 3.785,-3.798 1.892,-1.899 0,0 m -26.283,-44.855 0.041,-0.198 h 11.522 c -0.002,0.066 -0.003,0.132 -0.005,0.198 z m -92.543,-13.832 c -0.038,-0.183 -0.076,-0.365 -0.113,-0.547 4.318,0.276 8.636,0.553 12.955,0.83 -0.007,0.12 -0.013,0.24 -0.019,0.36 -4.275,-0.214 -8.549,-0.429 -12.823,-0.643 m 138.11,13.099 c 4.404,-5.806 4.79,-6.106 6.853,-5.539 -2.361,1.909 -4.607,3.724 -6.853,5.539 m 122.22,6.234 c 0.079,0.186 0.158,0.373 0.237,0.56 -7.719,0.696 -15.439,1.393 -23.159,2.089 -0.01,-0.123 -0.02,-0.246 -0.03,-0.369 7.651,-0.76 15.301,-1.52 22.952,-2.28 M 19.05,-54.027 c 10e-4,0.195 0.002,0.391 0.003,0.586 H -1.419 c 0,-0.195 0,-0.391 0,-0.586 z m -48.769,8.873 c -0.007,0.193 -0.013,0.386 -0.019,0.579 -7.098,-0.214 -14.197,-0.428 -21.295,-0.642 0.008,-0.238 0.015,-0.476 0.023,-0.713 7.097,0.259 14.194,0.517 21.291,0.776 m 173.488,7.067 c -5.116,1.886 -19.377,3.371 -23.699,2.572 7.706,-0.836 15.628,-1.696 23.699,-2.572 m 39.808,-16.078 c 0,0.36 0,0.719 0,1.079 -8.75,-0.006 -17.501,-0.753 -26.251,-0.457 0,-0.207 0,-0.415 -0.001,-0.622 z M 22.031,9.887 C 25.902,1.008 29.773,-7.87 33.379,-16.141 31.674,-7.08 26.852,1.4 22.031,9.887 M 166.026,3.566 c -0.017,0.259 -0.034,0.519 -0.05,0.779 -5.071,2.852 -9.841,-0.129 -14.731,-0.839 2.359,-0.398 4.717,-0.905 7.066,-0.865 2.576,0.045 5.143,0.595 7.715,0.925 m 4.454,5.123 c 0.022,0.216 0.044,0.432 0.067,0.648 C 167.69,10.5 164.843,9.624 162.034,8.955 158.053,8.006 154.102,6.934 150.145,5.89 148.02,5.329 145.909,4.716 143.792,4.126 l 0.114,-0.418 c 8.858,1.66 17.716,3.32 26.574,4.981 m -0.258,-7.876 c 0.027,0.212 0.054,0.425 0.081,0.637 -2.01,0.222 -4.018,0.605 -6.03,0.621 -2.201,0.017 -4.412,-0.245 -6.607,-0.492 -5.212,-0.588 -10.417,-1.239 -15.625,-1.865 1.262,-0.896 2.564,-1.558 3.793,-1.444 8.138,0.755 16.26,1.676 24.388,2.543 m -38.316,-17.559 c 0.044,-0.165 0.088,-0.329 0.131,-0.494 13.516,0 27.031,0.021 40.546,-0.019 2.418,-0.007 4.838,-0.234 7.252,-0.423 2.581,-0.201 5.157,-0.477 7.735,-0.721 -2.419,2.281 -5.01,3.416 -8.188,2.411 -0.879,-0.278 -1.886,-0.18 -2.835,-0.196 -11.506,-0.193 -23.013,-0.386 -34.52,-0.551 -3.373,-0.048 -6.747,-0.007 -10.121,-0.007 M -87.713,-57.423 c 19.912,0.822 39.823,1.645 59.054,2.439 -19.272,0.477 -39.183,-0.428 -59.054,-2.439 m 143.311,4.821 c 7.153,10.701 16.457,18.504 27.321,24.57 -10.264,-3.671 -25.182,-15.708 -29.442,-23.586 0.629,-0.292 1.247,-0.578 2.121,-0.984 m 41,37.212 c 13.539,2.106 26.943,4.438 40.42,6.217 13.432,1.773 26.937,2.99 40.41,4.451 -0.029,0.22 -0.059,0.439 -0.088,0.659 -26.99,-2.97 -54.363,-3.194 -80.742,-11.327 M 13.132,25.808 c 0.24,0.145 0.48,0.29 0.72,0.435 C 8.854,34.846 3.635,43.331 -1.069,52.092 -4.587,58.643 -15.865,74.392 -19.126,75.954 -9.395,58.297 3.705,43.239 13.132,25.808 m 168.875,-38.811 c 0.023,0.267 0.045,0.534 0.068,0.802 -1.227,0.165 -2.461,0.512 -3.68,0.466 -9.599,-0.36 -19.203,-0.663 -28.79,-1.24 -11.694,-0.703 -23.418,-1.397 -34.897,-3.908 -8.009,-1.752 -15.917,-3.966 -23.871,-5.973 0.053,-0.227 0.106,-0.454 0.159,-0.681 0.59,0.139 1.177,0.291 1.77,0.415 10.534,2.206 20.982,5.082 31.624,6.436 12.527,1.594 25.218,1.927 37.845,2.69 6.008,0.363 12.033,0.45 18.05,0.684 0.577,0.022 1.148,0.202 1.722,0.309 m -52.395,-39.373 c 0.007,0.072 0.014,0.143 0.022,0.215 1.749,-0.12 3.5,-0.364 5.247,-0.329 2.208,0.044 4.411,0.44 6.619,0.464 4.862,0.053 9.725,-0.044 14.588,-0.057 5.339,-0.014 10.679,-0.003 16.018,-0.003 -4.899,2.636 -10.153,1.024 -15.146,1.729 -3.299,0.467 -6.228,-0.885 -9.356,-0.522 -0.103,0.012 -0.203,0.057 -0.304,0.088 -2.706,0.853 -5.412,1.707 -8.258,2.604 -0.173,-0.283 -0.423,-0.692 -0.737,-1.207 -4.465,0.943 -9.326,-0.615 -13.595,2.304 -0.269,-1.826 -1.376,-2.082 -2.658,-2.084 -2.471,-0.003 -5.054,0.438 -7.382,-0.141 -2.279,-0.567 -4.305,-0.633 -6.47,0.049 -0.89,0.28 -1.825,0.417 -2.777,0.627 -0.081,-0.576 -0.146,-1.04 -0.233,-1.66 -1.372,0.393 -2.662,0.763 -3.944,1.132 -0.833,-2.292 -2.416,-2.05 -4.054,-1.35 -2.337,0.998 -4.387,0.376 -6.315,-0.983 -5.145,2.068 -10.165,-0.753 -15.259,-0.071 0.391,-0.351 0.794,-0.52 1.187,-0.499 6.828,0.364 13.648,-0.255 20.504,0.291 9.371,0.746 18.792,0.363 28.168,-0.578 1.365,-0.137 2.756,-0.019 4.135,-0.019 m -65.181,2.242 c 0.675,0.256 1.345,0.529 2.027,0.765 7.184,2.483 14.237,5.51 21.589,7.31 10.672,2.614 21.654,1.503 32.512,1.026 7.06,-0.309 14.112,-0.974 21.144,-1.712 4.818,-0.506 9.628,-1.239 14.381,-2.176 8.073,-1.591 16.084,-3.489 24.149,-5.124 3.709,-0.752 7.483,-1.186 11.228,-1.764 0.05,0.304 0.1,0.608 0.15,0.912 -19.478,3.712 -38.908,7.707 -58.456,11.001 -8.375,1.411 -16.936,2.21 -25.549,0.961 -6.676,-0.969 -13.469,-1.112 -20.155,-2.027 -8.349,-1.142 -16.171,-3.926 -23.02,-9.172 M -70.773,40.305 c 0.553,-0.385 0.933,-0.712 1.366,-0.941 9.973,-5.301 19.87,-10.754 29.949,-15.848 17.89,-9.042 33.83,-20.69 47.888,-34.952 1.145,-1.162 2.322,-2.294 3.484,-3.439 -0.393,1.181 -1.109,2.046 -1.91,2.823 -3.564,3.455 -7.107,6.932 -10.74,10.313 -10.383,9.663 -21.633,18.24 -33.278,26.308 -1.268,0.879 -3.037,1.109 -4.164,2.104 -3.248,2.87 -6.536,5.454 -11.089,5.878 -0.826,0.077 -1.604,0.915 -2.354,1.47 -0.588,0.435 -1.018,1.154 -1.655,1.44 -4.42,1.981 -8.872,3.89 -13.32,5.807 -1.518,0.654 -2.836,0.331 -4.177,-0.963 m -33.123,-51.873 c 3.922,0 7.187,0.092 10.445,-0.021 5.489,-0.19 10.993,-0.302 16.454,-0.822 10.61,-1.011 21.178,-2.485 31.796,-3.381 8.685,-0.733 17.18,-2.519 25.444,-4.94 8.269,-2.422 16.639,-4.898 24.241,-9.22 0.7,-0.397 1.437,-0.728 2.156,-1.089 -0.147,0.661 -0.495,0.998 -0.902,1.233 -1.554,0.898 -3.064,1.909 -4.704,2.618 -11.267,4.869 -22.76,9.071 -34.772,11.761 -5.466,1.225 -10.926,2.29 -16.541,2.666 -3.971,0.265 -7.909,1.063 -11.855,1.667 -3.644,0.557 -7.325,1.845 -10.909,1.606 -5.684,-0.379 -11.161,0.695 -16.684,1.318 -4.943,0.557 -9.444,0.247 -14.169,-3.396 m 46.64,59.728 c 26.636,-17.553 50.064,-37.981 72.021,-60.369 -0.139,0.348 -0.195,0.632 -0.348,0.847 -8.696,12.213 -18.843,23.201 -30.158,32.913 -11.449,9.826 -23.715,18.7 -35.635,27.977 -0.395,0.308 -0.908,0.466 -1.294,0.658 -1.407,-0.622 -2.657,-1.174 -4.586,-2.026 M -79.264,33.323 c 7.569,-2.933 14.503,-5.483 21.325,-8.302 6.728,-2.781 13.444,-5.629 19.98,-8.825 6.635,-3.244 13.163,-6.751 19.52,-10.51 6.214,-3.675 12.155,-7.813 18.215,-11.747 0.141,0.206 0.283,0.412 0.424,0.619 -4.193,3.535 -8.183,7.353 -12.618,10.552 -12.892,9.3 -26.55,17.304 -41.26,23.45 -3.798,1.586 -7.642,3.203 -11.134,5.347 -4.844,2.975 -9.203,1.492 -14.452,-0.584 M 161.754,11.385 c -0.048,0.237 -0.096,0.473 -0.143,0.71 -2.281,0.205 -4.674,0.041 -6.82,0.692 -4.369,1.325 -8.506,1.961 -12.736,-0.483 -1.612,-0.932 -3.543,-1.389 -5.384,-1.831 C 119.118,6.25 102.995,-1.719 86.539,-8.775 c -4.723,-2.025 -9.051,-5.004 -13.458,-7.711 -1.711,-1.051 -3.14,-2.56 -4.697,-3.86 3.203,1.135 6.187,2.489 8.914,4.244 15.635,10.063 33.499,14.181 51.017,19.188 5.574,1.593 11.326,2.552 16.962,3.942 5.515,1.359 10.986,2.897 16.477,4.357 M -80.183,21.527 c 5.234,-1.474 10.056,-2.667 14.77,-4.195 9.043,-2.932 17.937,-6.346 27.049,-9.031 16.007,-4.716 30.559,-12.174 43.901,-22.099 1.893,-1.409 3.689,-2.951 5.529,-4.431 -0.11,0.778 -0.511,1.238 -0.917,1.693 -5.08,5.689 -11.724,9.346 -17.99,13.398 -7.083,4.581 -14.765,8.229 -21.887,12.754 -8.57,5.443 -17.786,9.147 -27.468,11.966 -7.567,2.204 -15.057,3.252 -22.987,-0.055 M 57.221,-23.147 c 3.934,3.704 7.549,7.063 11.112,10.475 7.043,6.743 14.825,12.535 23.161,17.536 7.786,4.671 15.642,9.262 23.711,13.414 7.402,3.808 15.128,6.986 22.715,10.433 3.622,1.645 7.253,3.267 10.881,4.9 l -0.148,0.64 c -3.755,-0.254 -7.552,-0.968 -11.255,-0.636 -3.84,0.344 -6.633,-1.516 -9.689,-3.032 -1.131,-0.561 -2.165,-1.319 -3.282,-1.913 C 119.019,25.795 113.298,23.392 108.239,20 95.388,11.382 81.7,3.842 70.966,-7.646 70.751,-7.876 70.511,-8.092 70.254,-8.275 64.829,-12.129 60.937,-17.32 57.221,-23.147 m 121.814,12.443 c 0.051,0.275 0.102,0.551 0.153,0.826 -0.951,0.397 -2.138,0.557 -2.809,1.231 -2.622,2.635 -5.798,2.123 -8.952,1.86 -0.838,-0.069 -1.655,-0.35 -2.492,-0.45 -14.147,-1.699 -28.303,-3.329 -42.443,-5.089 -13.342,-1.66 -26.435,-4.43 -39.179,-8.832 -10.642,-3.676 -19.673,-9.678 -27.222,-17.971 -1.14,-1.252 -2.15,-2.623 -3.22,-3.938 5.192,4.222 9.395,9.51 15.717,12.117 -2.036,-2.317 -4.301,-4.359 -6.492,-6.478 -2.28,-2.205 -4.56,-4.419 -6.706,-6.752 -1.974,-2.145 -4.044,-4.257 -5.173,-7.11 9.552,10.625 19.959,20.151 32.478,27.557 0.299,-0.18 0.803,-0.484 1.39,-0.838 8.386,4.116 17.57,5.82 26.594,8.003 9.048,2.188 18.23,3.553 27.556,4.01 9.808,0.481 19.599,1.291 29.404,1.821 3.788,0.204 7.597,0.033 11.396,0.033 M 26.58,-48.919 c -1.187,1.267 -1.838,2.029 -2.557,2.72 -5.365,5.151 -11.546,9.16 -17.814,13.116 -5.968,3.767 -12.282,6.618 -18.994,8.618 -10.535,3.14 -21.201,5.564 -32.217,6.493 -7.863,0.662 -15.642,2.302 -23.504,2.982 -8.836,0.763 -17.722,0.95 -26.588,1.35 -1.042,0.047 -2.304,0.196 -3.107,-0.291 -3.469,-2.104 -6.888,-4.324 -9.895,-7.473 4.052,0 7.846,-0.556 11.405,0.12 6.555,1.245 13.139,1.912 19.762,2.114 7.594,0.232 15.198,0.078 22.798,0.08 2.749,0.001 5.543,0.273 8.238,-0.119 4.893,-0.713 9.811,-1.526 14.565,-2.848 7.729,-2.149 15.328,-4.763 22.994,-7.142 7.017,-2.178 13.631,-5.232 19.763,-9.254 4.911,-3.221 9.672,-6.668 15.151,-10.466 M -98.659,-5.014 c 0.196,-0.308 0.392,-0.617 0.588,-0.925 0.782,-0.127 1.561,-0.327 2.348,-0.368 4.636,-0.244 9.285,-0.314 13.908,-0.7 8.825,-0.737 17.656,-1.47 26.447,-2.523 15.485,-1.855 30.38,-6.108 45.1,-11.186 5.536,-1.909 10.675,-4.444 15.773,-7.188 0.377,-0.202 0.798,-0.322 1.65,-0.659 -0.485,0.61 -0.581,0.824 -0.746,0.925 -9.659,5.925 -19.77,10.966 -30.394,14.882 -10.91,4.021 -22.119,7.062 -33.56,9.196 -6.845,1.277 -13.708,2.458 -20.547,3.769 -9.485,1.82 -11.013,1.515 -18.407,-3.985 -0.661,-0.492 -1.437,-0.829 -2.16,-1.238 M 50.009,-28.929 c 0.239,-0.15 0.479,-0.3 0.719,-0.45 2.008,3.029 3.953,6.102 6.039,9.076 2.545,3.627 4.733,7.679 7.914,10.649 7.173,6.698 14.541,13.279 22.441,19.074 6.436,4.721 13.768,8.217 20.687,12.283 12.03,7.07 24.542,13.183 37.293,18.824 0.44,0.194 0.838,0.481 1.256,0.725 -3.387,0.139 -6.66,0.06 -9.883,-0.382 -4.971,-0.681 -10.2,-0.26 -14.723,-3.065 -2.153,-1.336 -4.286,-2.71 -6.361,-4.162 C 107.364,28.026 99.506,22.195 90.949,17.328 86.315,14.693 81.915,11.361 78.105,7.633 72.098,1.756 66.272,-4.406 61.133,-11.039 56.855,-16.561 53.675,-22.933 50.009,-28.929 m -163.195,-27.138 c -0.003,-0.167 -0.006,-0.335 -0.009,-0.502 6.867,0.245 13.736,0.455 20.601,0.749 4.009,0.171 8.012,0.486 12.018,0.723 9.492,0.561 18.978,1.348 28.478,1.608 10.891,0.298 21.795,0.112 32.693,0.172 1.794,0.01 3.585,0.245 5.379,0.299 9.884,0.295 19.692,2.2 29.675,1.456 -0.914,0.506 -1.846,0.997 -2.832,1.156 -5.412,0.875 -10.814,2.064 -16.264,2.392 -7.489,0.45 -15.017,0.264 -22.529,0.281 -6.857,0.016 -13.762,0.447 -20.561,-0.201 -14.716,-1.402 -29.381,-3.341 -44.059,-5.132 -7.54,-0.921 -15.061,-1.996 -22.59,-3.001 m 0.436,26.97 c 1.684,0 2.843,-0.077 3.989,0.012 12.316,0.955 24.616,2.311 36.949,2.791 9.476,0.369 18.997,-0.26 28.49,-0.634 4.531,-0.179 9.069,-0.617 13.559,-1.25 14.908,-2.1 28.786,-7.454 42.363,-13.706 0.773,-0.356 1.545,-0.712 2.318,-1.069 -6.678,4.988 -13.776,9.08 -21.704,11.638 -5.126,1.655 -10.143,3.651 -15.277,5.275 -3.614,1.143 -7.301,2.454 -11.031,2.757 -11.153,0.909 -22.345,1.877 -33.519,1.851 -12.769,-0.03 -25.536,-1.084 -38.3,-1.764 -0.858,-0.046 -1.815,-0.529 -2.499,-1.087 -1.708,-1.39 -3.285,-2.941 -5.338,-4.814 m 186.022,15.888 c 0.183,-0.23 0.365,-0.461 0.548,-0.691 27.481,15.116 56.579,26.071 86.95,33.863 -2.896,0.238 -5.746,0.216 -8.596,0.242 -5.587,0.051 -11.208,-0.311 -16.647,1.525 -0.727,0.246 -1.698,0.098 -2.461,-0.155 -1.699,-0.566 -3.358,-1.267 -4.998,-1.994 -7.054,-3.128 -14.061,-6.365 -21.153,-9.404 C 101.343,7.79 96.018,5.079 91.398,1.064 89.251,-0.802 86.78,-2.289 84.544,-4.06 80.75,-7.063 77.025,-10.155 73.272,-13.209 m 118.177,-34.377 c 0.048,0.123 0.096,0.246 0.144,0.369 -2.25,1.128 -4.508,2.238 -6.747,3.386 -14.759,7.566 -29.505,15.158 -44.289,22.676 -1.177,0.599 -2.624,1.042 -3.913,0.972 -3.897,-0.21 -7.776,-0.723 -11.665,-1.091 -2.761,-0.261 -5.527,-0.477 -8.291,-0.714 0.009,-0.11 0.019,-0.22 0.028,-0.331 2.919,-0.287 5.838,-0.575 8.757,-0.863 0.032,-0.257 0.064,-0.514 0.096,-0.771 -5.389,-0.491 -10.695,-1.267 -15.945,-3.799 -0.811,0.357 -2.059,1.64 -3.384,0.187 1.147,-0.7 2.294,-1.4 3.808,-2.324 2.801,0.191 6.062,0.413 9.324,0.635 0.012,-0.183 0.025,-0.365 0.037,-0.548 -2.394,-0.364 -4.788,-0.727 -7.182,-1.091 0.007,-0.074 0.014,-0.148 0.021,-0.222 2.115,0 4.23,0 6.344,0 2.008,0 4.015,0 6.022,0 -0.004,-0.296 -0.008,-0.593 -0.012,-0.889 -1.867,0 -3.734,0.014 -5.601,-0.004 -2.01,-0.02 -4.035,0.07 -6.024,-0.151 -1.69,-0.189 -3.338,-0.753 -5.005,-1.151 0.041,-0.228 0.083,-0.455 0.124,-0.683 14.256,1.088 28.289,-0.404 42.146,-3.667 12.958,-3.052 25.886,-6.225 38.828,-9.345 0.793,-0.191 1.586,-0.387 2.379,-0.581 M -33.512,-4.338 c 7.105,-0.389 13.66,-3.493 21.167,-2.718 -0.569,0.471 -0.839,0.772 -1.173,0.957 -4.231,2.347 -8.371,4.893 -12.739,6.951 -4.576,2.156 -9.289,4.101 -14.096,5.663 -6.293,2.045 -12.77,3.513 -19.104,5.438 -4.731,1.439 -9.363,3.207 -13.963,4.802 -7.236,-3.796 -14.233,-7.468 -21.621,-11.344 5.96,-1.68 11.68,-0.953 16.936,-3.398 2.781,-1.293 6.118,-1.396 9.208,-2.017 8.376,-1.681 16.753,-3.355 25.131,-5.021 0.821,-0.163 1.659,-0.363 2.486,-0.352 2.168,0.028 4.337,0.122 6.498,0.29 0.451,0.035 0.868,0.501 1.27,0.749 m -87.954,-50.234 c 0.134,-0.132 0.268,-0.263 0.402,-0.395 20.288,3.254 40.576,6.507 60.864,9.76 -0.033,0.215 -0.066,0.43 -0.099,0.644 -3.77,-0.579 -7.541,-1.158 -11.311,-1.737 2.073,1.915 4.82,1.674 7.225,2.816 4.825,2.291 10.229,3.098 15.71,2.857 3.692,-0.163 7.398,-0.021 11.097,0.036 0.591,0.01 1.177,0.289 1.766,0.443 -0.039,0.23 -0.077,0.46 -0.116,0.691 h -17.597 c 0.004,0.216 0.008,0.432 0.012,0.648 h 11.847 v 2.761 c 1.391,0.203 2.827,0.412 4.387,0.639 -1.648,0.311 -3.122,0.589 -4.596,0.867 0.018,0.197 0.035,0.395 0.053,0.592 1.548,0.152 3.095,0.305 4.643,0.458 -3.906,1.112 -8.008,0.817 -11.656,2.815 1.172,-0.081 2.343,-0.162 3.514,-0.243 0,0.182 10e-4,0.363 10e-4,0.544 h -11.245 c 0.779,0.323 1.308,0.542 2.057,0.852 -1.232,1.223 -2.419,1.345 -3.885,1.18 -1.743,-0.196 -3.535,-0.055 -5.298,0.058 -1.98,0.126 -3.954,0.56 -5.928,0.545 -3.16,-0.024 -6.32,-0.283 -9.477,-0.487 -3.055,-0.197 -6.123,-0.321 -9.149,-0.743 -1.153,-0.16 -2.534,-0.794 -3.24,-1.672 -2.529,-3.145 -5.937,-5.213 -9.003,-7.672 -6.9,-5.535 -13.974,-10.852 -20.978,-16.257 M 98.367,79.881 C 98.21,80.03 98.052,80.18 97.895,80.33 95.196,78.894 92.339,77.688 89.834,75.969 85.84,73.229 82.283,69.814 78.166,67.297 73.487,64.437 70.335,60.054 66.265,56.616 c -0.94,-0.795 -1.65,-1.922 -2.292,-3 C 60.461,47.717 57.195,41.663 53.486,35.893 46.857,25.584 43.979,13.862 40.45,2.385 c -1.238,-4.024 -2.037,-8.19 -2.9,-12.32 -0.47,-2.25 -0.655,-4.56 -0.976,-6.896 0.818,-0.333 1.345,-0.547 1.998,-0.813 v -25.131 c 0.243,-0.014 0.486,-0.028 0.729,-0.042 -0.927,5.911 1.469,11.261 2.793,16.741 2.98,12.339 7.266,24.295 12.251,35.954 8.095,18.934 18.729,36.429 30.956,52.969 2.449,3.313 4.934,6.601 7.438,9.872 1.846,2.411 3.75,4.776 5.628,7.162 M 65.885,4.422 C 65.927,4.098 65.968,3.773 66.009,3.448 65.652,2.415 65.486,1.254 64.897,0.377 c -1.136,-1.689 -2.511,-3.218 -3.786,-4.814 0.833,0.068 1.28,0.462 1.711,0.872 4.203,4.005 8.323,8.1 12.622,11.999 7.198,6.528 14.355,13.111 22.692,18.246 5.304,3.268 10.536,6.661 15.699,10.147 6.493,4.382 13.05,8.611 20.485,11.27 1.675,0.599 3.315,1.299 4.971,1.952 C 130.628,49.012 122.127,47.448 113.579,46.2 106.697,45.196 100.511,43.267 95.087,38.411 89.13,33.079 82.439,28.557 75.99,23.786 72.35,21.092 69.966,17.358 67.199,13.918 65.906,12.31 64.599,10.866 65.996,8.983 64.821,6.791 62.295,5.711 62.873,3.014 c 0.18,-0.003 0.36,-0.006 0.54,-0.009 0.824,0.473 1.648,0.945 2.472,1.417 m 24.159,-20.437 c 1.216,0.346 2.427,0.71 3.648,1.036 7.536,2.009 14.983,4.531 22.635,5.885 10.28,1.818 20.714,2.787 31.093,4.017 8.225,0.975 16.468,1.794 24.703,2.683 -2.513,0.815 -5.118,1.492 -7.642,1.268 -9.151,-0.812 -18.274,-1.925 -27.407,-2.927 -11.04,-1.211 -22.012,-2.834 -32.571,-6.415 -4.879,-1.655 -9.623,-3.711 -14.427,-5.585 -3.879,-0.756 -7.184,-2.709 -10.582,-4.466 0.108,-0.253 0.217,-0.505 0.325,-0.757 3.52,1.196 7.039,2.392 10.712,3.64 -0.496,0.248 -0.772,0.386 -1.11,0.555 0.222,0.38 0.423,0.723 0.623,1.066 M -15.46,33.024 c 1.091,-1.109 2.182,-2.219 3.273,-3.328 0.868,-0.9 1.694,-1.846 2.611,-2.693 4.461,-4.12 8.965,-8.192 13.396,-12.342 0.554,-0.519 0.772,-1.395 1.146,-2.106 -1.087,0.852 -2.174,1.704 -3.261,2.556 -0.09,-0.098 -0.18,-0.196 -0.27,-0.293 4.748,-6.243 9.495,-12.487 14.243,-18.73 0.175,0.131 0.35,0.263 0.525,0.394 -2.419,3.456 -4.84,6.911 -7.258,10.369 -1.32,1.889 -2.633,3.782 -3.95,5.674 0.788,-0.641 1.706,-1.174 2.344,-1.94 6.109,-7.338 11.044,-15.463 15.767,-23.725 5.152,-9.013 9.899,-18.211 12.774,-28.255 0.036,-0.124 0.334,-0.173 0.475,-0.24 0.959,4.299 -0.502,8.359 -1.579,12.371 -1.877,6.992 -4.667,13.643 -7.869,20.175 -8.533,17.41 -21.156,31.604 -35.121,44.623 -8.026,7.482 -16.883,14.086 -25.509,20.905 -3.405,2.692 -7.339,4.464 -12.362,4.072 1.191,-0.975 1.994,-1.829 2.966,-2.396 7.666,-4.476 13.307,-11.392 20.24,-16.747 0.319,-0.246 0.511,-0.659 0.761,-0.994 -0.864,0.304 -1.729,0.609 -2.594,0.913 -0.084,-0.142 -0.167,-0.284 -0.251,-0.427 3.168,-2.612 6.336,-5.224 9.503,-7.836 M -10.9,9.36 c -3.455,3.246 -6.774,6.656 -10.398,9.702 -5.736,4.819 -11.809,9.24 -17.496,14.113 -6.626,5.677 -14.004,10.162 -21.493,14.524 -0.908,0.529 -1.705,1.252 -2.553,1.885 0.08,0.285 0.161,0.569 0.242,0.854 h 8.142 c 0.061,0.205 0.122,0.409 0.182,0.614 -1.765,1.391 -3.53,2.781 -5.936,4.677 4.918,1.876 9.447,2.155 13.78,3.176 -0.071,-1.507 -1.113,-1.81 -2.353,-2.046 -2.353,-0.447 -4.682,-1.015 -7.588,-1.658 3.325,-2.525 6.284,-4.839 9.312,-7.059 4.772,-3.499 9.754,-6.733 14.36,-10.436 16.587,-13.336 32.408,-27.45 45.461,-44.446 6.658,-8.668 12.591,-17.733 17.546,-27.438 -0.36,-0.474 -0.646,-0.85 -1.133,-1.491 0.957,-1.037 1.909,-2.069 3.07,-3.328 0.065,-0.778 0.168,-2.006 0.334,-3.984 -1.698,2.207 -2.945,3.828 -4.193,5.448 -0.131,-0.089 -0.263,-0.178 -0.395,-0.267 2.549,-4.204 5.098,-8.407 7.646,-12.61 0.25,0.064 0.5,0.129 0.75,0.194 -0.356,2.209 -0.548,4.46 -1.101,6.618 -1.289,5.026 -3.917,9.495 -6.112,14.148 -3.295,6.985 -6.603,13.943 -11.247,20.178 C 14.012,-4.016 10.19,1.31 6.321,6.6 c -7.078,9.675 -14.986,18.58 -24.064,26.451 -4.228,3.666 -8.37,7.469 -12.217,11.526 -5.047,5.323 -10.504,10.111 -16.503,14.304 -1.139,0.946 -2.278,1.892 -3.417,2.838 0.096,0.274 0.193,0.548 0.289,0.823 2.982,0.31 5.959,0.71 8.949,0.863 0.689,0.035 1.474,-0.709 2.126,-1.21 5.53,-4.246 11.095,-8.45 16.536,-12.807 4.04,-3.236 8.032,-6.552 11.829,-10.066 5.034,-4.662 9.842,-9.567 14.787,-14.327 0.75,-0.721 1.777,-1.148 2.566,-1.836 1.455,-1.269 3.511,-2.149 3.149,-4.702 -0.059,-0.415 0.386,-0.96 0.703,-1.362 C 14.842,12.288 18.649,7.496 22.463,2.71 22.559,2.588 22.794,2.577 23.748,2.223 20.235,9.248 17.156,15.818 13.713,22.192 8.884,31.134 3.424,39.672 -2.995,47.606 c -1.916,2.367 -2.918,5.473 -4.339,8.24 -0.212,-0.071 -0.424,-0.142 -0.636,-0.213 0.017,-0.329 0.034,-0.658 0.051,-0.987 -2.305,2.071 -3.016,5.095 -4.57,7.612 -1.607,2.603 -3.414,5.097 -5.3,7.508 -1.94,2.479 -4.08,4.8 -6.51,7.628 1.966,0.498 3.597,0.911 5.708,1.445 1.393,-1.329 3.171,-2.566 4.348,-4.228 4.508,-6.364 8.98,-12.766 13.177,-19.337 8.07,-12.637 15.98,-25.376 22.293,-39.027 2.79,-6.035 5.729,-12.001 9.078,-17.901 -1.006,4.278 -1.956,8.569 -3.034,12.829 -1.14,4.508 -2.332,9.006 -3.63,13.47 -1.268,4.363 -2.63,8.701 -4.076,13.008 -1.481,4.409 -3.015,8.805 -4.706,13.136 -1.652,4.233 -3.355,8.464 -5.36,12.535 C 7.447,67.49 4.942,71.43 2.745,75.529 0.663,79.415 -2.71,82.698 -3.35,88.175 -0.878,86.318 0.928,84.836 1.999,82.716 15.362,56.25 25.457,28.637 31.227,-0.502 32.065,-4.73 33.221,-8.895 34.74,-12.994 33.3,-1.208 32.234,10.64 30.315,22.347 28.381,34.137 27.138,46.151 22.181,57.261 20.872,69.247 15.29,80.045 12.533,91.932 13.535,91.448 14.377,91.041 15.207,90.64 26.201,59.63 33.755,27.909 36.23,-5.098 c 0.311,1.034 0.656,2.06 0.928,3.105 3.262,12.515 7.583,24.664 13.224,36.292 3.831,7.897 8.681,15.208 13.683,22.441 7.234,10.459 18.204,16.07 28.329,22.832 3.177,2.121 6.773,3.091 10.367,4.103 0.246,0.069 0.57,-0.136 0.742,-0.183 C 82.236,56.101 61.794,28.254 50.629,-5.204 c 0.365,0.532 0.803,1.029 1.086,1.603 4.732,9.595 11.204,17.961 18.749,25.427 4.561,4.514 9.684,8.479 14.697,12.513 3.456,2.781 7.187,5.218 10.74,7.883 3.687,2.765 7.627,4.751 12.301,5.36 10.161,1.322 20.286,2.919 30.446,4.252 2.441,0.321 4.961,0.048 7.589,-0.32 -3.251,-3.124 -6.963,-5.468 -10.79,-7.758 6.977,-0.811 13.799,2.886 20.588,0.32 0.066,-0.334 0.132,-0.667 0.198,-1 -5.646,-2.32 -11.292,-4.64 -16.938,-6.96 0.027,-0.185 0.054,-0.371 0.081,-0.557 3.626,0 7.256,0.117 10.876,-0.033 3.48,-0.145 6.994,1.386 11.16,-0.061 -3.256,-3.534 -7.372,-4.545 -10.757,-6.602 -3.35,-2.036 -7.218,-3.22 -11.462,-5.035 10.278,-1.011 20.011,-1.967 29.745,-2.924 0.018,-0.341 0.036,-0.681 0.054,-1.021 -5.041,-2.47 -10.952,-1.935 -16.478,-4.134 7.895,-3.054 16.078,-0.784 23.739,-2.49 0.035,-0.291 0.07,-0.582 0.105,-0.873 -0.934,-0.576 -1.868,-1.153 -3.04,-1.876 0.544,-0.602 1.105,-1.221 2.197,-2.427 -3.188,-0.653 -5.856,-1.2 -9.221,-1.89 2.264,-0.991 3.93,-1.72 5.715,-2.502 -0.184,-0.457 -0.321,-0.796 -0.517,-1.283 1.459,-0.523 2.914,-1.044 4.369,-1.565 0.027,-0.23 0.053,-0.461 0.079,-0.691 -1.156,-0.243 -2.313,-0.486 -4.207,-0.883 2.382,-0.472 4.102,-0.872 5.842,-1.141 1.65,-0.254 1.593,-0.224 2.526,-2.274 0.203,-0.445 1.066,-0.588 1.642,-1.424 -1.467,-0.211 -2.935,-0.422 -4.402,-0.634 -0.04,-0.16 -0.08,-0.32 -0.12,-0.48 3.502,-1.319 7.004,-2.637 10.745,-4.046 -0.227,-0.446 -0.433,-0.849 -0.645,-1.264 0.686,-0.717 1.382,-1.444 2.322,-2.427 -0.975,-0.314 -1.623,-0.523 -2.379,-0.767 0.199,-0.235 0.333,-0.528 0.557,-0.637 2.753,-1.348 5.545,-2.62 8.27,-4.022 0.95,-0.489 1.742,-1.281 2.607,-1.935 -0.071,-0.276 -0.142,-0.551 -0.213,-0.827 -0.838,-0.089 -1.708,-0.369 -2.51,-0.238 -12.325,2.013 -24.701,3.045 -37.208,2.524 -4.213,-0.176 -8.451,0.29 -12.678,0.442 -0.584,0.021 -1.172,-0.081 -2.482,-0.182 22.552,-13.594 46.552,-22.975 68.694,-36.383 -0.629,-1.3 -1.117,-2.307 -1.543,-3.187 -5.323,0 -10.386,-0.013 -15.448,0.009 -1.161,0.006 -2.321,0.134 -3.482,0.203 -8.117,0.482 -16.273,0.624 -24.341,1.54 -8.542,0.97 -17.081,1.084 -25.639,1.193 -4.549,0.057 -9.1,-0.051 -13.649,0.024 -8.247,0.135 -16.492,0.448 -24.74,0.498 -4.962,0.03 -9.925,-0.359 -14.889,-0.446 -4.001,-0.069 -8.005,0.003 -12.006,0.066 -5.575,0.088 -11.149,0.289 -16.723,0.287 -1.051,-10e-4 -2.297,-0.49 -3.12,-1.161 -3.194,-2.608 -7.092,-3.005 -10.885,-3.686 -2.065,-0.371 -4.193,-0.448 -6.298,-0.526 -1.566,-0.057 -3.141,0.069 -4.709,0.164 -1.755,0.107 -3.518,0.198 -5.256,0.442 -0.786,0.11 -1.664,0.407 -2.253,0.909 -1.351,1.152 -2.549,2.483 -4.149,4.079 -7.207,0 -14.69,0.107 -22.169,-0.026 -9.517,-0.17 -19.031,-0.494 -28.544,-0.822 -11.094,-0.384 -22.191,-0.743 -33.277,-1.297 -14.035,-0.701 -28.057,-1.677 -42.094,-2.351 -5.911,-0.284 -11.844,-0.117 -17.767,-0.114 -2.24,0.001 -4.395,0.385 -6.309,1.856 0.242,1.904 1.252,3.144 2.604,4.24 5.571,4.517 11.136,9.041 16.66,13.614 4.308,3.566 8.552,7.21 12.977,10.949 -7.008,0.049 -13.819,-1.121 -20.645,-0.678 l -0.379,0.751 c 2.109,2.131 4.217,4.261 6.411,6.478 -0.411,0.356 -0.858,0.743 -1.307,1.132 0.323,1.135 0.644,2.261 1.047,3.675 2.044,1.342 4.318,2.836 7.179,4.715 -2.777,0.18 -4.874,0.316 -6.972,0.453 -0.087,0.275 -0.174,0.551 -0.262,0.827 2.057,1.315 4.114,2.629 6.352,4.06 -0.592,0.409 -1.122,0.776 -1.823,1.261 4.915,3.13 9.67,6.159 14.425,9.187 -0.065,0.234 -0.13,0.467 -0.195,0.701 -2.96,0.333 -5.919,0.666 -8.986,1.011 -0.008,2.255 1.563,2.732 2.784,3.358 6.398,3.278 12.832,6.483 19.25,9.723 0.274,0.138 0.506,0.36 1.148,0.827 -3.918,1.081 -7.532,2.077 -11.145,3.074 -0.022,0.284 -0.044,0.569 -0.066,0.853 1.512,0.517 3.006,1.097 4.539,1.539 3.045,0.877 6.207,1.432 9.142,2.578 3.172,1.24 6.128,1.321 9.199,-0.057 0.746,-0.335 1.575,-0.487 2.366,-0.723 0.076,0.211 0.153,0.422 0.229,0.633 -5.069,1.822 -10.145,3.626 -15.204,5.479 -1.629,0.596 -3.211,1.319 -5.113,2.108 3.168,2.913 6.887,3.059 10.22,4.337 -0.484,1.028 -0.912,1.94 -1.579,3.359 2.902,1.366 5.696,2.681 8.532,4.015 8.747,-5.036 17.476,-9.596 25.706,-14.927 9.035,-5.852 17.607,-12.418 26.387,-18.665 0.851,-0.605 1.743,-1.153 2.615,-1.728 2.449,-3.216 5.472,-5.755 8.791,-7.942 0.187,0.228 0.374,0.455 0.56,0.683 C -4.661,4.525 -7.78,6.943 -10.9,9.36" /></g><g
       transform="translate(161.65,202.6495)"
       id="g332"><path
         id="path334"
         style="fill:#ffffff;fill-opacity:1;fill-rule:nonzero;stroke:none"
         d="m 0,0 c 0.55,-0.28 1.201,-0.453 1.635,-0.858 3.246,-3.035 6.448,-6.117 9.462,-9.563 -0.722,0.262 -1.444,0.524 -2.166,0.786 C 7.84,-8.526 6.749,-7.416 5.658,-6.306 3.772,-4.204 1.886,-2.102 0,0" /></g><g
       transform="translate(248.6535,167.7409)"
       id="g336"><path
         id="path338"
         style="fill:#ffffff;fill-opacity:1;fill-rule:nonzero;stroke:none"
         d="M 0,0 C 1.554,1.629 2.819,3.644 5.486,3.843 4.3,1.599 2.923,-0.433 0.123,-0.974 0.082,-0.649 0.041,-0.325 0,0" /></g></g></g></g></svg>
