<?xml version="1.0" encoding="UTF-8" standalone="no"?>
<svg
   xmlns:dc="http://purl.org/dc/elements/1.1/"
   xmlns:cc="http://creativecommons.org/ns#"
   xmlns:rdf="http://www.w3.org/1999/02/22-rdf-syntax-ns#"
   xmlns:svg="http://www.w3.org/2000/svg"
   xmlns="http://www.w3.org/2000/svg"
   xmlns:sodipodi="http://sodipodi.sourceforge.net/DTD/sodipodi-0.dtd"
   xmlns:inkscape="http://www.inkscape.org/namespaces/inkscape"
   version="1.1"
   id="Layer_1"
   x="0px"
   y="0px"
   viewBox="0 0 179.8 99.8"
   enable-background="new 0 0 226.8 226.8"
   xml:space="preserve"
   sodipodi:docname="B-SM.svg"
   width="179.8"
   height="99.800003"
   inkscape:version="1.0.2 (e86c8708, 2021-01-15)"><metadata
   id="metadata900"><rdf:RDF><cc:Work
       rdf:about=""><dc:format>image/svg+xml</dc:format><dc:type
         rdf:resource="http://purl.org/dc/dcmitype/StillImage" /><dc:title></dc:title></cc:Work></rdf:RDF></metadata><defs
   id="defs898" /><sodipodi:namedview
   pagecolor="#ffffff"
   bordercolor="#666666"
   borderopacity="1"
   objecttolerance="10"
   gridtolerance="10"
   guidetolerance="10"
   inkscape:pageopacity="0"
   inkscape:pageshadow="2"
   inkscape:window-width="1467"
   inkscape:window-height="861"
   id="namedview896"
   showgrid="false"
   inkscape:zoom="2.6781792"
   inkscape:cx="77.20915"
   inkscape:cy="77.417294"
   inkscape:window-x="0"
   inkscape:window-y="25"
   inkscape:window-maximized="0"
   inkscape:current-layer="Layer_1" />
<path
   fill="#e2231a"
   d="m 0.34752475,87.80198 c 0.6,0.1 0.90000005,0.1 1.50000005,0.1 0.3,0 0.8,0 1.4,-0.1 0.7,0 1.3,0 1.6,0 2.3,0 3.4,0.8 3.4,2.4 0,1.5 -0.9,2.5 -2.7,2.8 2.2,0.3 3.2,1.3 3.2,3.1 0,2 -1.3,3 -3.7,3 -0.3,0 -0.9,0 -1.5,0 -0.6,0 -1.1,-0.1 -1.5,-0.1 -0.6,0 -1,0 -1.60000005,0.1 v -0.4 c 1.00000005,-0.1 1.30000005,-0.7 1.30000005,-2.7 v -5.2 c 0,-2 -0.3,-2.6 -1.30000005,-2.7 v -0.3 m 2.40000005,5 c 0.3,0 0.4,0 0.7,0 2.2,0 3.3,-0.7 3.3,-2.2 0,-1.4 -1,-2.2 -2.6,-2.2 -0.5,0 -0.8,0 -1.3,0.2 v 4.2 z m 0,3.1 c 0,2.3 0.2,2.6 1.5,2.6 2,0 2.8,-0.7 2.8,-2.3 0,-1.9 -1.2,-2.8 -3.8,-2.8 -0.1,0 -0.3,0 -0.6,0 v 2.5 z"
   id="path833" />
<path
   fill="#e2231a"
   d="m 12.547525,96.10198 c 0,2 0.3,2.6 1.3,2.7 v 0.4 c -0.7,-0.1 -1.2,-0.1 -1.8,-0.1 -0.8,0 -1.2,0 -1.9,0.1 v -0.4 c 1,-0.1 1.3,-0.7 1.3,-2.7 v -2 c 0,-2 -0.3,-2.7 -1.3,-2.7 v -0.4 c 0.7,0.1 1.1,0.1 1.6,0.1 0.3,0 0.7,0 1.3,-0.1 0.4,0 0.9,0 1.1,0 1.6,0 2.3,0.6 2.3,1.9 0,1.1 -0.5,1.8 -1.8,2.1 0.4,0.2 0.6,0.3 1.1,1.1 l 1,1.5 c 0.5,0.8 0.9,1.1 1.4,1.3 v 0.3 h -1.2 c -0.5,0 -0.6,-0.1 -0.9,-0.6 l -1.4,-2.2 c -0.3,-0.5 -0.8,-0.9 -1.1,-1.2 -0.2,0 -0.4,0 -0.4,0 -0.2,0 -0.3,0 -0.5,0 v 0.9 m -0.1,-1.5 c 0.3,0 0.5,0 0.8,0 1.2,0 2,-0.6 2,-1.5 0,-1 -0.7,-1.6 -1.9,-1.6 -0.3,0 -0.5,0 -0.8,0.1 v 3 z"
   id="path835" />
<path
   fill="#e2231a"
   d="m 20.547525,96.40198 -0.2,0.4 c -0.2,0.5 -0.3,0.8 -0.3,1.1 0,0.6 0.2,0.8 1,0.9 v 0.4 c -0.8,-0.1 -1.1,-0.1 -1.5,-0.1 -0.4,0 -0.6,0 -1.5,0.1 v -0.3 c 0.4,-0.2 0.6,-0.5 0.8,-0.9 0.3,-0.5 0.7,-1.3 0.9,-1.9 l 1.4,-3.4 c 0.2,-0.4 0.3,-0.7 0.3,-0.9 0,-0.4 -0.2,-0.5 -0.8,-0.5 v -0.3 c 0.2,0 0.4,0 0.4,0 0.6,0 1.1,-0.1 1.6,-0.2 0.2,0.7 0.2,0.8 0.6,1.6 l 1.6,4 c 0.6,1.5 0.9,2 1.5,2.4 v 0.3 c -0.7,-0.1 -1.1,-0.1 -1.5,-0.1 -0.5,0 -0.9,0 -1.6,0.1 v -0.4 c 0.7,-0.1 0.9,-0.3 0.9,-0.8 0,-0.3 -0.1,-0.6 -0.3,-1.2 l -0.2,-0.4 h -3.1 m 1.6,-4 -1.4,3.4 h 2.7 z"
   id="path837" />
<path
   fill="#e2231a"
   d="m 30.547525,96.10198 c 0,2 0.3,2.6 1.2,2.7 v 0.4 c -0.7,-0.1 -1.2,-0.1 -1.8,-0.1 -0.6,0 -1.1,0 -1.8,0.1 v -0.4 c 1,0 1.3,-0.7 1.3,-2.7 v -4.5 c -1.6,0 -2.1,0.3 -2.4,1.4 l -0.3,-0.1 c 0.2,-0.8 0.2,-1.2 0.2,-1.9 0.5,0.1 1.1,0.1 2.1,0.1 h 2.2 c 0.8,0 1.3,0 2,-0.1 0,0.7 0.1,1.1 0.2,1.9 l -0.4,0.1 c -0.4,-1.1 -0.7,-1.3 -2.5,-1.4 v 4.5"
   id="path839" />
<path
   fill="#e2231a"
   d="m 35.447525,94.00198 c 0,-2 -0.3,-2.7 -1.3,-2.7 v -0.3 c 0.8,0.1 1.3,0.1 1.8,0.1 0.6,0 1,0 1.9,-0.1 v 0.3 c -1,0.1 -1.3,0.7 -1.3,2.7 v 2 c 0,2 0.3,2.7 1.3,2.7 v 0.4 c -0.8,-0.1 -1.2,-0.1 -1.9,-0.1 -0.4,0 -0.9,0 -1.8,0.1 v -0.4 c 1,0 1.3,-0.7 1.3,-2.7 v -2"
   id="path841" />
<path
   fill="#e2231a"
   d="m 43.947525,93.40198 c -0.2,-1.3 -0.9,-2 -2,-2 -0.9,0 -1.4,0.5 -1.4,1.3 0,0.8 0.2,1 2,1.7 1.7,0.7 2.1,1.1 2.1,2.3 0,1.6 -1.1,2.5 -3.1,2.5 -0.8,0 -1.5,-0.1 -2.3,-0.4 0.1,-0.5 0.1,-0.8 0.1,-1.2 0,-0.4 0,-0.7 -0.1,-1.3 h 0.4 c 0.2,1.5 0.9,2.3 2.2,2.3 1,0 1.6,-0.6 1.6,-1.6 0,-0.8 -0.4,-1.2 -1.6,-1.7 -1.2,-0.5 -1.4,-0.6 -1.7,-0.9 -0.4,-0.3 -0.6,-0.8 -0.6,-1.4 0,-1.4 1,-2.2 2.8,-2.2 0.7,0 1.3,0.1 2,0.3 0,0.4 -0.1,0.6 -0.1,1.1 0,0.3 0,0.6 0.1,1.1 h -0.4"
   id="path843" />
<path
   fill="#e2231a"
   d="m 52.747525,96.90198 c -0.4,1 -0.6,1.5 -0.7,2.3 -0.5,0 -0.6,0 -1.2,-0.1 -0.5,0 -1.2,0 -1.5,0 h -1.6 c -0.6,0 -1.1,0 -1.5,0 v -0.4 c 1,-0.1 1.2,-0.7 1.2,-2.7 v -2 c 0,-2 -0.3,-2.6 -1.2,-2.7 v -0.3 c 0.7,0.1 1.2,0.1 1.7,0.1 0.6,0 1,0 1.9,-0.1 v 0.3 c -1,0.1 -1.3,0.7 -1.3,2.7 v 2.7 c 0,1.5 0.2,1.8 1.2,1.8 1.3,0 2.2,-0.6 2.7,-1.8 l 0.3,0.2"
   id="path845" />
<path
   fill="#e2231a"
   d="m 55.047525,96.40198 -0.2,0.4 c -0.2,0.5 -0.3,0.8 -0.3,1.1 0,0.6 0.2,0.8 1,0.9 v 0.4 c -0.8,-0.1 -1.1,-0.1 -1.5,-0.1 -0.4,0 -0.6,0 -1.5,0.1 v -0.3 c 0.4,-0.2 0.6,-0.5 0.8,-0.9 0.3,-0.5 0.7,-1.3 0.9,-1.9 l 1.4,-3.4 c 0.2,-0.4 0.3,-0.7 0.3,-0.9 0,-0.4 -0.2,-0.5 -0.8,-0.5 v -0.3 c 0.2,0 0.4,0 0.4,0 0.6,0 1.1,-0.1 1.6,-0.2 0.2,0.7 0.2,0.8 0.6,1.6 l 1.6,4 c 0.6,1.5 0.9,2 1.5,2.4 v 0.3 c -0.7,-0.1 -1.1,-0.1 -1.5,-0.1 -0.5,0 -0.9,0 -1.6,0.1 v -0.4 c 0.7,-0.1 0.9,-0.3 0.9,-0.8 0,-0.3 -0.1,-0.6 -0.3,-1.2 l -0.2,-0.4 h -3.1 m 1.6,-4 -1.4,3.4 h 2.8 z"
   id="path847" />
<path
   fill="#e2231a"
   d="m 66.747525,94.10198 c 0.2,-0.4 0.4,-1 0.5,-1.3 0.1,-0.3 0.1,-0.4 0.1,-0.6 0,-0.5 -0.3,-0.7 -1,-0.8 v -0.4 c 0.6,0.1 1,0.1 1.6,0.1 0.5,0 0.9,0 1.5,-0.1 v 0.3 c -0.3,0.2 -0.5,0.4 -0.9,1 -0.3,0.5 -0.9,1.7 -1.1,2.2 l -0.9,2.4 c -0.3,0.8 -0.6,1.6 -0.8,2.3 h -0.8 l -2.2,-5.1 c -0.7,-1.7 -1.2,-2.5 -1.7,-2.8 v -0.3 c 0.7,0.1 1.1,0.1 1.6,0.1 0.5,0 0.9,0 1.6,-0.1 v 0.4 c -0.6,0.1 -0.9,0.3 -0.9,0.8 0,0.3 0.1,0.7 0.4,1.5 l 1.8,4 1.2,-3.6"
   id="path849" />
<path
   fill="#e2231a"
   d="m 71.447525,96.40198 -0.2,0.4 c -0.2,0.5 -0.3,0.8 -0.3,1.1 0,0.6 0.2,0.8 1,0.9 v 0.4 c -0.8,-0.1 -1.1,-0.1 -1.5,-0.1 -0.4,0 -0.6,0 -1.5,0.1 v -0.3 c 0.4,-0.2 0.6,-0.5 0.8,-0.9 0.3,-0.5 0.7,-1.3 0.9,-1.9 l 1.4,-3.4 c 0.2,-0.4 0.3,-0.7 0.3,-0.9 0,-0.4 -0.2,-0.5 -0.8,-0.5 v -0.3 c 0.2,0 0.4,0 0.4,0 0.6,0 1.1,-0.1 1.6,-0.2 0.2,0.7 0.2,0.8 0.6,1.6 l 1.6,4 c 0.6,1.5 0.9,2 1.5,2.4 v 0.3 c -0.7,-0.1 -1.1,-0.1 -1.5,-0.1 -0.5,0 -0.9,0 -1.6,0.1 v -0.4 c 0.7,-0.1 0.9,-0.3 0.9,-0.8 0,-0.3 -0.1,-0.6 -0.3,-1.2 l -0.1,-0.4 h -3.2 m 1.6,-4 -1.4,3.4 h 2.7 z"
   id="path851" />
<path
   fill="#e2231a"
   d="m 85.047525,94.60198 c -1.7,0.4 -2.7,0.7 -4.1,1.3 v -1.3 c 1.4,-0.3 2.1,-0.5 4.1,-1.3 v 1.3"
   id="path853" />
<path
   fill="#e2231a"
   d="m 95.947525,91.00198 c -0.4,-1.8 -1.3,-2.7 -2.7,-2.7 -1.3,0 -2.1,0.7 -2.1,1.9 0,0.6 0.3,1.1 0.7,1.5 0.3,0.2 0.6,0.4 0.9,0.5 l 0.3,0.1 0.3,0.2 0.3,0.2 c 2.2,1 2.9,1.8 2.9,3.2 0,2.1 -1.5,3.4 -4.1,3.4 -1,0 -2.2,-0.2 -3,-0.5 0,-0.5 0.1,-0.9 0.1,-1.4 0,-0.4 0,-0.8 -0.1,-1.5 h 0.5 c 0.2,1.7 1.2,2.7 2.8,2.7 1.6,0 2.6,-0.9 2.6,-2.4 0,-0.8 -0.3,-1.3 -1,-1.8 -0.3,-0.2 -0.8,-0.5 -1.1,-0.6 l -0.7,-0.3 -0.3,-0.2 c -1.7,-0.8 -2.3,-1.5 -2.3,-2.7 0,-1.8 1.5,-2.9 3.8,-2.9 0.8,0 1.7,0.1 2.7,0.4 -0.1,0.5 -0.1,0.8 -0.1,1.4 0,0.3 0,0.8 0.1,1.6 h -0.5"
   id="path855" />
<path
   fill="#e2231a"
   d="m 101.74752,96.10198 c 0,2 0.3,2.6 1.2,2.7 v 0.4 c -0.7,-0.1 -1.2,-0.1 -1.8,-0.1 -0.6,0 -1.1,0 -1.799995,0.1 v -0.4 c 0.999995,0 1.299995,-0.7 1.299995,-2.7 v -4.5 c -1.599995,0 -2.099995,0.3 -2.399995,1.4 l -0.3,-0.1 c 0.2,-0.8 0.2,-1.2 0.2,-1.9 0.5,0.1 1.1,0.1 2.099995,0.1 h 2.2 c 0.8,0 1.3,0 2,-0.1 0,0.7 0,1.1 0.2,1.9 l -0.4,0.1 c -0.4,-1.1 -0.7,-1.3 -2.5,-1.4 v 4.5"
   id="path857" />
<path
   fill="#e2231a"
   d="m 107.14752,96.40198 -0.2,0.4 c -0.2,0.5 -0.3,0.8 -0.3,1.1 0,0.6 0.2,0.8 1,0.9 v 0.4 c -0.8,-0.1 -1.1,-0.1 -1.5,-0.1 -0.4,0 -0.6,0 -1.5,0.1 v -0.3 c 0.4,-0.2 0.6,-0.5 0.8,-0.9 0.3,-0.5 0.7,-1.3 0.9,-1.9 l 1.4,-3.4 c 0.2,-0.4 0.3,-0.7 0.3,-0.9 0,-0.4 -0.2,-0.5 -0.8,-0.5 v -0.3 c 0.2,0 0.4,0 0.4,0 0.6,0 1.1,-0.1 1.6,-0.2 0.2,0.7 0.2,0.8 0.6,1.6 l 1.6,4 c 0.6,1.5 0.9,2 1.5,2.4 v 0.3 c -0.7,-0.1 -1.1,-0.1 -1.5,-0.1 -0.5,0 -0.9,0 -1.6,0.1 v -0.4 c 0.7,-0.1 0.9,-0.3 0.9,-0.8 0,-0.3 -0.1,-0.6 -0.3,-1.2 l -0.2,-0.4 h -3.1 m 1.6,-4 -1.4,3.4 h 2.7 z"
   id="path859" />
<path
   fill="#e2231a"
   d="m 116.14752,96.10198 c 0,2 0.3,2.6 1.3,2.7 v 0.4 c -0.7,-0.1 -1.2,-0.1 -1.8,-0.1 -0.8,0 -1.2,0 -1.9,0.1 v -0.4 c 1,-0.1 1.3,-0.7 1.3,-2.7 v -2 c 0,-2 -0.3,-2.7 -1.3,-2.7 v -0.4 c 0.7,0.1 1.1,0.1 1.5,0.1 0.3,0 0.7,0 1.3,-0.1 0.4,0 0.9,0 1.1,0 1.6,0 2.3,0.6 2.3,1.9 0,1.1 -0.5,1.8 -1.8,2.1 0.4,0.2 0.6,0.3 1.1,1.1 l 1,1.5 c 0.5,0.8 0.9,1.1 1.4,1.3 v 0.3 h -1.2 c -0.5,0 -0.6,-0.1 -0.9,-0.6 l -1.4,-2.2 c -0.3,-0.5 -0.8,-0.9 -1.1,-1.2 -0.2,0 -0.4,0 -0.4,0 -0.2,0 -0.3,0 -0.5,0 v 0.9 m 0,-1.5 c 0.3,0 0.5,0 0.8,0 1.2,0 2,-0.6 2,-1.5 0,-1 -0.7,-1.6 -1.9,-1.6 -0.3,0 -0.5,0 -0.8,0.1 v 3 z"
   id="path861" />
<path
   fill="#e2231a"
   d="m 124.74752,94.50198 h 1.1 c 1.1,0 1.5,-0.2 1.6,-0.9 h 0.3 c -0.1,0.4 -0.1,0.7 -0.1,1.2 0,0.5 0,0.7 0.1,1.2 h -0.3 c -0.1,-0.6 -0.5,-0.9 -1.6,-0.9 h -1.1 v 1 c 0,2.2 0.1,2.4 1.2,2.4 1.3,0 2.3,-0.6 2.8,-1.8 l 0.4,0.1 c -0.3,0.8 -0.6,1.4 -0.8,2.3 -0.8,-0.1 -1.9,-0.1 -2.8,-0.1 h -1.9 c -0.1,0 -0.4,0 -0.8,0 -0.2,0 -0.2,0 -0.4,0 v -0.4 c 1,-0.1 1.3,-0.7 1.3,-2.7 v -2 c 0,-2 -0.3,-2.6 -1.3,-2.7 v -0.2 c 0.3,0 0.4,0 0.8,0 0.1,0 0.2,0 0.5,0 h 1.8 c 0.5,0 1.3,0 1.8,0 0.3,0 0.4,0 0.8,-0.1 0,0.7 0.1,1.2 0.2,1.9 l -0.3,0.1 c -0.4,-1.1 -0.9,-1.4 -2.5,-1.4 h -0.7 v 3 m -0.6,-4.8 c 1.4,-1 2.1,-1.6 3.1,-2.7 0.4,0.4 0.5,0.6 0.8,1 -0.9,0.8 -2.2,1.6 -3.5,2.2 z"
   id="path863" />
<path
   fill="#e2231a"
   d="m 144.14752,90.50198 c 0.4,-0.9 0.7,-1.9 0.9,-2.7 0.5,0.1 0.9,0.1 1.3,0.1 0.5,0 0.8,0 1.2,-0.1 v 0.4 c -0.7,0.1 -1.1,0.7 -1.1,1.8 0,0.3 0,0.9 0.1,1.6 v 0.8 l 0.1,1.7 c 0.1,0.8 0.2,1.9 0.2,2.6 0.2,1.4 0.5,2 1.3,2.2 v 0.3 c -0.5,-0.1 -0.9,-0.1 -1.7,-0.1 -0.8,0 -1.3,0 -2,0.1 v -0.4 c 0.7,-0.1 1.1,-0.6 1.1,-1.5 0,-0.1 0,-0.4 0,-0.7 0,-0.3 0,-0.6 0,-0.6 l -0.4,-6.4 -2.8,6.8 c -0.3,0.7 -0.6,1.7 -0.9,2.7 h -1 l -3.7,-9.5 -0.4,5.6 c 0,0.6 -0.1,1.2 -0.1,1.6 0,1.3 0.3,1.8 1.2,2 v 0.3 c -0.7,-0.1 -1.1,-0.1 -1.8,-0.1 -0.5,0 -1,0 -1.7,0.1 v -0.3 c 1,-0.1 1.3,-0.8 1.5,-3.4 l 0.3,-4.1 c 0.1,-0.7 0.1,-1.1 0.1,-1.4 0,-1.1 -0.3,-1.6 -1,-1.7 v -0.4 c 0.5,0.1 0.8,0.1 1.3,0.1 0.4,0 0.7,0 1.2,-0.1 0.2,0.9 0.4,1.5 0.8,2.4 l 2.8,7.4 3.2,-7.1"
   id="path865" />
<path
   fill="#e2231a"
   d="m 151.94752,94.50198 h 1.1 c 1.1,0 1.5,-0.2 1.6,-0.9 h 0.3 c -0.1,0.4 -0.1,0.7 -0.1,1.2 0,0.5 0,0.7 0.1,1.2 h -0.3 c -0.1,-0.6 -0.5,-0.9 -1.6,-0.9 h -1.1 v 1 c 0,2.2 0.1,2.4 1.2,2.4 1.3,0 2.3,-0.6 2.8,-1.8 l 0.4,0.1 c -0.3,0.8 -0.6,1.4 -0.8,2.3 -0.8,-0.1 -1.9,-0.1 -2.8,-0.1 h -1.9 c -0.1,0 -0.4,0 -0.8,0 -0.2,0 -0.2,0 -0.4,0 v -0.4 c 1,-0.1 1.3,-0.7 1.3,-2.7 v -2 c 0,-2 -0.3,-2.6 -1.3,-2.7 v -0.2 c 0.3,0 0.4,0 0.8,0 0.1,0 0.2,0 0.5,0 h 1.8 c 0.5,0 1.3,0 1.8,0 0.3,0 0.4,0 0.8,-0.1 0,0.7 0.1,1.2 0.2,1.9 l -0.3,0.1 c -0.4,-1.1 -0.9,-1.4 -2.5,-1.4 h -0.7 v 3"
   id="path867" />
<path
   fill="#e2231a"
   d="m 162.14752,93.40198 c -0.2,-1.3 -0.9,-2 -2,-2 -0.9,0 -1.4,0.5 -1.4,1.3 0,0.8 0.2,1 2,1.7 1.7,0.7 2.1,1.1 2.1,2.3 0,1.6 -1.1,2.5 -3.1,2.5 -0.8,0 -1.5,-0.1 -2.3,-0.4 0.1,-0.5 0.1,-0.8 0.1,-1.2 0,-0.4 0,-0.7 -0.1,-1.3 h 0.4 c 0.2,1.5 0.9,2.3 2.2,2.3 1,0 1.6,-0.6 1.6,-1.6 0,-0.8 -0.4,-1.2 -1.6,-1.7 -1.2,-0.5 -1.4,-0.6 -1.7,-0.9 -0.4,-0.3 -0.6,-0.8 -0.6,-1.4 0,-1.4 1,-2.2 2.8,-2.2 0.7,0 1.3,0.1 2,0.3 -0.1,0.4 -0.1,0.6 -0.1,1.1 0,0.3 0,0.6 0.1,1.1 h -0.4"
   id="path869" />
<path
   fill="#e2231a"
   d="m 167.64752,96.10198 c 0,2 0.3,2.6 1.2,2.7 v 0.4 c -0.7,-0.1 -1.2,-0.1 -1.8,-0.1 -0.6,0 -1.1,0 -1.8,0.1 v -0.4 c 1,0 1.3,-0.7 1.3,-2.7 v -4.5 c -1.5,0 -2.1,0.3 -2.4,1.4 l -0.3,-0.1 c 0.2,-0.8 0.2,-1.2 0.2,-1.9 0.5,0.1 1.1,0.1 2.1,0.1 h 2.2 c 0.8,0 1.3,0 2,-0.1 0,0.7 0,1.1 0.2,1.9 l -0.4,0.1 c -0.4,-1.1 -0.7,-1.3 -2.5,-1.4 v 4.5"
   id="path871" />
<path
   fill="#e2231a"
   d="m 179.44752,95.00198 c 0,2.8 -1.4,4.3 -4.1,4.3 -2.5,0 -3.9,-1.4 -3.9,-4 0,-2.9 1.5,-4.4 4.2,-4.4 2.5,-0.1 3.8,1.3 3.8,4.1 m -6.6,0.1 c 0,2.3 1,3.6 2.7,3.6 1.7,0 2.7,-1.3 2.7,-3.5 0,-2.5 -0.9,-3.8 -2.7,-3.8 -1.7,0 -2.7,1.4 -2.7,3.7 z"
   id="path873" />
<path
   fill="#e2231a"
   d="m 130.54752,78.30198 c 0,-0.7 0,-2.5 0,-3.2 -0.2,0 -1.8,0 -4.1,0 -8.1,0 -25.5,0 -26.3,0 0.2,1 0.3,2.1 0.3,3.2 0.9,0 29.2,0 30.1,0"
   id="path875" />
<path
   fill="#e2231a"
   d="m 103.94752,49.80198 c 0,0.3 -0.2,0.5 -0.5,0.5 h -9.199995 c -0.3,0 -0.5,-0.2 -0.5,-0.5 0,0 0,-2.9 0,-3.6 -0.8,0 -7.4,0 -8.2,0 0,0.8 0,3.6 0,3.6 0,0.3 -0.2,0.5 -0.5,0.5 h -9.2 c -0.3,0 -0.5,-0.2 -0.5,-0.5 0,0 0,-2.9 0,-3.6 -0.4,0 -2.3,0 -4.1,0 0,0 -3.3,0 -4.1,0 0,0.8 0,3.6 0,3.6 0,0.3 -0.2,0.5 -0.5,0.5 h -9.2 c -0.3,0 -0.5,-0.2 -0.5,-0.5 0,0 0,-2.9 0,-3.6 -0.7,0 -3.2,0 -3.2,0 -2.1,0 -4.5,0 -5,0 0,0.8 0,6.5 0,7.3 0.1,0 1.6,0 4.1,0 h 73.599995 c 2.5,0 4,0 4.1,0 0,-0.8 0,-6.5 0,-7.3 -0.5,0 -2.9,0 -5,0 0,0 -2.5,0 -3.2,0 0,0.8 0,3.6 0,3.6 0,0.3 -0.2,0.5 -0.5,0.5 h -9.2 c -0.3,0 -0.5,-0.2 -0.5,-0.5 0,0 0,-2.9 0,-3.6 -0.8,0 -4.1,0 -4.1,0 -1.8,0 -3.7,0 -4.1,0 0,0.7 0,3.6 0,3.6"
   id="path877" />
<path
   fill="#e2231a"
   d="m 75.347525,21.30198 c -0.7,0 -2.8,0 -3.5,0 0,0.8 0,3.6 0,3.6 0,0.3 -0.2,0.5 -0.5,0.5 h -4.4 c -0.3,0 -0.5,-0.2 -0.5,-0.5 0,0 0,-2.9 0,-3.6 -0.8,0 -7.1,0 -7.9,0 0,0.8 0,3.6 0,3.6 0,0.3 -0.2,0.5 -0.5,0.5 h -4.4 c -0.3,0 -0.5,-0.2 -0.5,-0.5 0,0 0,-2.9 0,-3.6 -0.7,0 -2.8,0 -3.5,0 0,0.8 0,6.5 0,7.3 0.2,0 1.8,0 4.1,0 h 17.5 c 2.3,0 3.9,0 4.1,0 0,-0.9 0,-6.5 0,-7.3"
   id="path879" />
<path
   fill="#e2231a"
   d="m 129.64752,21.30198 c -0.7,0 -2.8,0 -3.5,0 0,0.8 0,3.6 0,3.6 0,0.3 -0.2,0.5 -0.5,0.5 h -4.4 c -0.3,0 -0.5,-0.2 -0.5,-0.5 0,0 0,-2.9 0,-3.6 -0.8,0 -7.1,0 -7.9,0 0,0.8 0,3.6 0,3.6 0,0.3 -0.2,0.5 -0.5,0.5 h -4.4 c -0.3,0 -0.5,-0.2 -0.5,-0.5 0,0 0,-2.9 0,-3.6 -0.7,0 -2.8,0 -3.5,0 0,0.8 0,6.5 0,7.3 0.2,0 1.8,0 4.1,0 h 17.5 c 2.3,0 3.9,0 4.1,0 0,-0.9 0,-6.5 0,-7.3"
   id="path881" />
<path
   fill="#e2231a"
   d="m 102.94752,0.6019802 c -0.7,0 -2.9,0 -3.599995,0 0,0.8 0,3.6 0,3.6 0,0.3 -0.2,0.5 -0.5,0.5 h -4.6 c -0.3,0 -0.5,-0.2 -0.5,-0.5 0,0 0,-2.9 0,-3.6 -0.8,0 -7.4,0 -8.2,0 0,0.8 0,3.6 0,3.6 0,0.3 -0.2,0.5 -0.5,0.5 h -4.6 c -0.3,0 -0.5,-0.2 -0.5,-0.5 0,0 0,-2.9 0,-3.6 -0.7,0 -2.9,0 -3.6,0 0,0.8 0,6.5 0,7.3 0.2,0 1.4,0 3.2,0 h 20.2 c 1.799995,0 2.999995,0 3.199995,0 0,-0.9 0,-6.5 0,-7.3"
   id="path883" />
<path
   fill="#e2231a"
   d="m 48.747525,78.30198 c 0.9,0 29.2,0 30.1,0 0,-1.1 0.1,-2.1 0.3,-3.2 h -26.3 c -1.9,0 -3.7,0 -4.1,0 0,0.7 0,2.5 0,3.2"
   id="path885" />
<path
   fill="#e2231a"
   d="m 99.247525,9.8019802 h -19.2 c 0,5.0999998 0,36.5999998 0,38.3999998 0.7,0 3,0 3.7,0 0,-0.8 0,-3.7 0,-3.7 0,-0.3 0.2,-0.5 0.5,-0.5 h 10.8 c 0.3,0 0.5,0.2 0.5,0.5 0,0 0,2.9 0,3.7 0.7,0 3,0 3.7,0 0,-0.8 0,-32.2 0,-38.3999998 z m -7.2,29.4999998 h -4.8 v -5.7 c 0,-1.3 0.9,-2.3 2.3,-2.8 h 0.2 0.2 c 1.4,0.4 2.2,1.4 2.2,2.8 v 5.7 z m 0,-17.9 h -4.8 v -4.8 h 4.8 z"
   id="path887" />
<path
   fill="#e2231a"
   d="m 54.247525,30.50198 c 0,3.4 0,12.8 0,13.6 0.7,0 4.2,0 4.2,0 0.3,0 0.5,0.2 0.5,0.5 0,0 0,2.9 0,3.7 0.8,0 5.4,0 6.2,0 0,-0.8 0,-3.7 0,-3.7 0,-0.3 0.2,-0.5 0.5,-0.5 0,0 4.3,0 5.1,0 0,-0.8 0,-10.2 0,-13.6 z m 10.2,12 h -4.4 v -5.1 c 0,-1.2 0.8,-2.1 2,-2.5 h 0.2 0.2 c 1.3,0.4 2,1.3 2,2.5 z"
   id="path889" />
<path
   fill="#e2231a"
   d="m 108.54752,30.50198 c 0,3.4 0,12.8 0,13.6 0.7,0 5.1,0 5.1,0 0.3,0 0.5,0.2 0.5,0.5 0,0 0,2.9 0,3.7 0.8,0 5.4,0 6.2,0 0,-0.8 0,-3.7 0,-3.7 0,-0.3 0.2,-0.5 0.5,-0.5 0,0 3.5,0 4.3,0 0,-0.8 0,-10.2 0,-13.6 z m 10.7,12 h -4.4 v -5.1 c 0,-1.2 0.8,-2.1 2,-2.5 h 0.2 0.2 c 1.3,0.4 2,1.3 2,2.5 z"
   id="path891" />
<path
   fill="#e2231a"
   d="m 53.347525,55.40198 c 0,3.4 0,14.3 0,17.7 h 26.3 c 1.5,-5.4 5.2,-9.7 9.9,-11.4 0.1,0 0.2,0 0.3,0 4.7,1.7 8.3,6 9.9,11.4 h 26.299995 c 0,-3.4 0,-14.3 0,-17.7 z m 19.4,13 h -3 v -8.5 h 3 z m 36.799995,0 h -3 v -8.5 h 3 z"
   id="path893" />
</svg>
