<?xml version="1.0" encoding="UTF-8" standalone="no"?>
<svg
   xmlns:dc="http://purl.org/dc/elements/1.1/"
   xmlns:cc="http://creativecommons.org/ns#"
   xmlns:rdf="http://www.w3.org/1999/02/22-rdf-syntax-ns#"
   xmlns:svg="http://www.w3.org/2000/svg"
   xmlns="http://www.w3.org/2000/svg"
   xmlns:sodipodi="http://sodipodi.sourceforge.net/DTD/sodipodi-0.dtd"
   xmlns:inkscape="http://www.inkscape.org/namespaces/inkscape"
   viewBox="0 0 578.70135 208.30667"
   height="208.30667"
   width="578.70135"
   xml:space="preserve"
   id="svg2"
   version="1.1"
   sodipodi:docname="BK.svg"
   inkscape:version="1.0.2 (e86c8708, 2021-01-15)"><sodipodi:namedview
     pagecolor="#ffffff"
     bordercolor="#666666"
     borderopacity="1"
     objecttolerance="10"
     gridtolerance="10"
     guidetolerance="10"
     inkscape:pageopacity="0"
     inkscape:pageshadow="2"
     inkscape:window-width="1667"
     inkscape:window-height="933"
     id="namedview850"
     showgrid="false"
     inkscape:zoom="0.94913193"
     inkscape:cx="398.16265"
     inkscape:cy="174.6698"
     inkscape:window-x="0"
     inkscape:window-y="25"
     inkscape:window-maximized="0"
     inkscape:current-layer="svg2" /><metadata
     id="metadata8"><rdf:RDF><cc:Work
         rdf:about=""><dc:format>image/svg+xml</dc:format><dc:type
           rdf:resource="http://purl.org/dc/dcmitype/StillImage" /><dc:title></dc:title></cc:Work></rdf:RDF></metadata><defs
     id="defs6"><clipPath
       id="clipPath18"
       clipPathUnits="userSpaceOnUse"><path
         id="path16"
         d="M 0,0 H 595.276 V 317.48 H 0 Z" /></clipPath></defs><g
     transform="matrix(1.3333333,0,0,-1.3333333,-107.46662,320.05443)"
     id="g10"><g
       id="g12"><g
         clip-path="url(#clipPath18)"
         id="g14"><path
           id="path20"
           style="fill:#ef3120;fill-opacity:1;fill-rule:nonzero;stroke:none"
           d="m 177.926,231.626 h -12.058 v -91.555 h 12.058 z m -32.857,-21.97 h 12.058 v 21.971 h -12.058 z m -1.349,-25.504 c -3.386,2.278 -7.845,3.647 -13.025,3.629 h -0.797 c -0.505,-0.032 -5.431,0.04 -11.072,-2.729 -2.8,-1.395 -5.812,-3.62 -8.076,-7.021 -2.279,-3.388 -3.647,-7.845 -3.63,-13.027 v -24.933 h 12.058 v 24.933 c 0.018,3.194 0.741,5.017 1.605,6.339 1.272,1.939 3.398,3.108 5.546,3.753 1.049,0.315 2.036,0.479 2.715,0.558 0.337,0.037 0.598,0.057 0.75,0.064 0.077,0.005 0.126,0.005 0.143,0.005 h 0.758 c 3.194,-0.017 5.015,-0.74 6.337,-1.604 1.939,-1.273 3.108,-3.399 3.753,-5.547 0.315,-1.049 0.479,-2.035 0.558,-2.712 0.037,-0.34 0.057,-0.601 0.064,-0.753 0.005,-0.076 0.005,-0.125 0.005,-0.143 v -24.893 h 12.06 l -0.002,24.933 c -0.032,0.504 0.04,5.431 -2.729,11.071 -1.395,2.8 -3.62,5.813 -7.021,8.077 m -19.455,25.504 h 12.058 v 21.971 h -12.058 z m -20.8,0 h 12.058 v 21.971 H 103.465 Z M 82.664,140.071 h 12.058 v 91.555 H 82.664 Z" /><g
           transform="translate(291.2537,198.3112)"
           id="g22"><path
             id="path24"
             style="fill:#69b628;fill-opacity:1;fill-rule:nonzero;stroke:none"
             d="m 0,0 c 0.125,5.186 -2.451,11.733 -8.79,16.165 l -3.154,2.28 c -0.508,0.275 -5.161,3.915 -12.46,4.035 -2.564,0.007 -5.474,-0.553 -8.263,-2.037 -2.792,-1.475 -5.369,-3.826 -7.492,-6.97 l -2.386,-3.519 c -0.269,-0.506 -3.658,-5.198 -3.756,-12.398 -0.126,-5.183 2.451,-11.731 8.79,-16.165 l 3.156,-2.281 c 0.508,-0.274 5.158,-3.914 12.457,-4.034 h 0.05 c 2.552,0 5.443,0.564 8.21,2.039 2.794,1.473 5.37,3.821 7.495,6.965 l 2.389,3.522 C -3.487,-11.89 -0.098,-7.198 0,0 m -12.06,0 c 0.01,-1.406 -0.414,-2.938 -0.89,-4.064 -0.236,-0.56 -0.471,-1.013 -0.629,-1.296 -0.078,-0.14 -0.14,-0.238 -0.169,-0.287 h 10e-4 l -2.376,-3.502 c -1.213,-1.774 -2.275,-2.606 -3.164,-3.082 -0.89,-0.467 -1.695,-0.626 -2.611,-0.634 -1.278,-0.012 -2.754,0.42 -3.85,0.919 -0.548,0.245 -0.994,0.493 -1.274,0.659 -0.137,0.084 -0.236,0.148 -0.282,0.179 h -0.001 l -3.14,2.271 c -3.419,2.621 -3.672,4.346 -3.797,6.393 -0.01,1.406 0.415,2.94 0.891,4.064 0.236,0.559 0.471,1.013 0.628,1.296 0.081,0.14 0.14,0.238 0.169,0.287 v 0 l 2.376,3.504 c 1.213,1.774 2.275,2.607 3.161,3.083 0.891,0.466 1.696,0.626 2.613,0.633 1.279,0.012 2.754,-0.42 3.851,-0.92 0.547,-0.246 0.994,-0.494 1.273,-0.661 0.14,-0.083 0.236,-0.147 0.286,-0.179 v 10e-4 l 3.138,-2.271 C -12.44,3.774 -12.184,2.047 -12.06,0 m -27.609,15.882 5.686,21.22 -11.648,3.121 -5.686,-21.22 z m -11.46,-3.619 c -0.034,0.504 0.037,4.833 -2.432,9.876 -1.244,2.501 -3.245,5.212 -6.31,7.252 -3.052,2.053 -7.061,3.275 -11.644,3.256 h -3.417 c -0.505,-0.032 -4.833,0.039 -9.873,-2.43 -2.504,-1.247 -5.215,-3.245 -7.256,-6.31 -2.052,-3.052 -3.275,-7.061 -3.255,-11.644 V 7.795 c 0.032,-0.502 -0.039,-4.83 2.43,-9.873 1.247,-2.501 3.245,-5.213 6.31,-7.253 3.03,-2.038 7.006,-3.258 11.549,-3.258 0.032,0 0.063,0 0.095,0 h 3.417 c 0.505,0.034 4.833,-0.036 9.873,2.432 2.504,1.245 5.215,3.246 7.256,6.31 2.054,3.052 3.274,7.062 3.257,11.642 z M -63.187,7.795 c -0.017,-2.594 -0.593,-3.968 -1.232,-4.952 -0.936,-1.436 -2.557,-2.352 -4.286,-2.869 -0.838,-0.252 -1.634,-0.387 -2.176,-0.448 -0.269,-0.032 -0.475,-0.046 -0.59,-0.052 -0.056,-0.002 -0.09,-0.004 -0.1,-0.004 h -3.361 c -2.597,0.019 -3.97,0.592 -4.955,1.232 -1.436,0.935 -2.349,2.56 -2.868,4.284 -0.252,0.838 -0.387,1.636 -0.448,2.177 -0.032,0.269 -0.047,0.475 -0.052,0.59 -0.001,0.02 -0.001,0.037 -0.003,0.051 v 4.459 c 0.018,2.596 0.591,3.97 1.23,4.955 0.936,1.435 2.56,2.349 4.287,2.868 0.837,0.252 1.634,0.387 2.175,0.448 0.269,0.032 0.475,0.047 0.59,0.052 0.019,0.001 0.036,0.001 0.05,0.003 h 3.411 c 2.597,-0.018 3.97,-0.591 4.955,-1.23 1.436,-0.936 2.352,-2.56 2.868,-4.286 0.252,-0.838 0.387,-1.634 0.449,-2.176 0.032,-0.269 0.046,-0.475 0.051,-0.59 0.003,-0.056 0.005,-0.091 0.005,-0.1 z m -16.324,-42.419 c -0.042,-0.251 -0.241,-1.482 -0.241,-3.335 0.017,-2.694 0.377,-6.827 2.798,-11.055 2.368,-4.252 7.26,-8.139 14.016,-9.283 l 3.404,-0.623 c 0.271,-0.049 1.612,-0.28 3.618,-0.283 2.734,0.017 6.831,0.393 10.991,2.84 4.183,2.392 7.91,7.29 8.951,13.933 l 0.763,4.493 c 0.042,0.256 0.239,1.484 0.241,3.335 -0.017,2.697 -0.379,6.827 -2.801,11.055 -2.365,4.253 -7.26,8.141 -14.013,9.284 l -3.402,0.621 10e-4,10e-4 c -0.266,0.047 -1.61,0.281 -3.621,0.283 -2.734,-0.017 -6.834,-0.394 -10.991,-2.84 -4.187,-2.392 -7.91,-7.29 -8.951,-13.935 z m 23.238,15.052 -0.503,-2.754 0.008,0.049 -0.591,-3.224 z m -11.422,-18.387 c 0,0.48 0.027,0.871 0.051,1.11 0.008,0.086 0.015,0.153 0.02,0.197 0.002,0.01 0.003,0.017 0.004,0.022 l 0.761,4.474 c 0.724,3.729 1.908,4.711 3.235,5.602 1.355,0.839 3.374,1.156 4.818,1.136 0.517,0.003 0.946,-0.031 1.211,-0.058 0.133,-0.013 0.224,-0.027 0.266,-0.033 l 3.379,-0.614 c 3.773,-0.781 4.814,-2.036 5.749,-3.473 0.881,-1.465 1.189,-3.576 1.172,-5.006 0,-0.483 -0.027,-0.877 -0.049,-1.115 -0.013,-0.121 -0.023,-0.202 -0.028,-0.239 h 0.001 l -0.756,-4.451 c -0.727,-3.724 -1.91,-4.707 -3.239,-5.597 -1.353,-0.84 -3.374,-1.157 -4.816,-1.14 -0.52,0 -0.95,0.033 -1.216,0.06 -0.126,0.014 -0.216,0.025 -0.261,0.03 l -0.026,0.005 c -0.003,10e-4 -0.005,10e-4 -0.005,10e-4 l -3.343,0.611 c -3.78,0.78 -4.822,2.035 -5.757,3.475 -0.878,1.462 -1.189,3.573 -1.171,5.003" /></g><g
           transform="translate(387.9636,194.4113)"
           id="g26"><path
             id="path28"
             style="fill:#fab20b;fill-opacity:1;fill-rule:nonzero;stroke:none"
             d="m 0,0 16.16,6.694 -4.614,11.14 -16.147,-6.69 c -2.794,4.4 -6.469,8.016 -10.697,10.702 l 6.684,16.146 -11.139,4.614 -6.679,-16.129 c -2.474,0.553 -5.018,0.838 -7.586,0.837 -2.507,0 -5.037,-0.305 -7.549,-0.865 l -6.693,16.158 -11.14,-4.615 6.688,-16.148 c -4.4,-2.792 -8.015,-6.467 -10.702,-10.696 l -16.145,6.685 -4.613,-11.141 16.128,-6.679 c -0.552,-2.474 -0.838,-5.017 -0.836,-7.585 -0.002,-2.506 0.303,-5.037 0.864,-7.551 l -16.156,-6.69 4.613,-11.141 16.147,6.688 c 2.794,-4.4 6.47,-8.015 10.7,-10.701 l -6.688,-16.144 11.141,-4.614 6.681,16.13 c 2.473,-0.552 5.015,-0.837 7.582,-0.836 2.507,0 5.038,0.306 7.551,0.866 l 6.693,-16.161 11.141,4.615 -6.688,16.149 c 4.399,2.793 8.014,6.468 10.699,10.696 l 16.146,-6.688 4.614,11.139 -16.131,6.684 c 0.552,2.474 0.837,5.016 0.836,7.584 C 0.865,-5.041 0.56,-2.511 0,0 M -11.193,-7.547 C -11.201,-16.5 -16.49,-24.999 -25.28,-28.63 l 0.001,-0.002 c -2.873,-1.186 -5.817,-1.74 -8.717,-1.74 -8.951,0.007 -17.449,5.296 -21.081,14.083 -1.193,2.872 -1.744,5.812 -1.747,8.717 0.007,8.95 5.299,17.452 14.09,21.082 2.868,1.19 5.808,1.746 8.716,1.746 8.949,-0.008 17.451,-5.3 21.084,-14.089 1.183,-2.865 1.739,-5.81 1.741,-8.714" /></g><g
           transform="translate(505.5676,178.1665)"
           id="g30"><path
             id="path32"
             style="fill:#38a7e4;fill-opacity:1;fill-rule:nonzero;stroke:none"
             d="M 0,0 9.059,7.959 H 9.056 c -0.234,0.259 -3.13,3.54 -8.14,6.911 -4.998,3.343 -12.242,6.89 -21.121,6.91 -7.355,0.033 -15.597,-2.628 -23.41,-9.167 -6.526,-5.374 -11.935,-6.875 -16.639,-6.908 -5.611,-0.017 -10.66,2.417 -14.378,5.074 -1.845,1.312 -3.323,2.647 -4.305,3.624 -0.491,0.487 -0.858,0.886 -1.092,1.144 -0.116,0.129 -0.195,0.221 -0.241,0.274 -0.01,0.013 -0.02,0.024 -0.025,0.033 -0.005,0.005 -0.007,0.009 -0.01,0.011 -0.002,0.003 -0.003,0.005 -0.004,0.006 l -0.002,10e-4 -1.6,-1.327 -7.754,-6.28 c 0.231,-0.278 3.045,-3.742 8.035,-7.307 4.972,-3.536 12.284,-7.291 21.376,-7.311 0.043,-0.001 0.086,-0.001 0.13,-0.001 7.55,0 16.015,2.833 24.215,9.692 6.015,4.952 11.111,6.348 15.704,6.383 5.508,0.021 10.629,-2.319 14.402,-4.862 1.875,-1.26 3.388,-2.535 4.399,-3.469 0.506,-0.467 0.884,-0.848 1.123,-1.094 0.12,-0.123 0.205,-0.213 0.253,-0.266 0.012,-0.014 0.022,-0.024 0.029,-0.032 l 0.012,-0.016 1.37,1.233 z m 1.362,34.9 7.697,6.763 H 9.056 c -0.234,0.259 -3.13,3.539 -8.14,6.913 -4.998,3.341 -12.242,6.888 -21.121,6.908 -7.355,0.035 -15.597,-2.626 -23.41,-9.167 -6.526,-5.374 -11.935,-6.875 -16.639,-6.908 -5.611,-0.017 -10.66,2.417 -14.378,5.073 -1.845,1.313 -3.323,2.651 -4.305,3.625 -0.491,0.489 -0.858,0.886 -1.092,1.144 -0.116,0.128 -0.195,0.224 -0.241,0.276 -0.01,0.013 -0.018,0.022 -0.025,0.031 -0.004,0.004 -0.007,0.008 -0.01,0.01 -0.002,0.004 -0.003,0.006 -0.004,0.007 h -0.002 l -1.566,-1.298 -7.788,-6.308 c 0.231,-0.275 3.045,-3.74 8.035,-7.307 4.972,-3.536 12.284,-7.291 21.376,-7.312 h 0.12 c 7.553,0 16.021,2.831 24.225,9.694 6.015,4.951 11.111,6.346 15.704,6.381 5.508,0.02 10.629,-2.319 14.402,-4.862 1.875,-1.26 3.388,-2.535 4.399,-3.469 0.506,-0.467 0.884,-0.848 1.123,-1.094 0.12,-0.123 0.205,-0.214 0.251,-0.266 C -0.013,33.716 0,33.702 0.007,33.693 L 0.013,33.686 1.362,34.9 0,33.703 1.383,34.919 Z m -83.304,-54.085 1.646,1.333 c -0.004,0.004 -0.012,0.015 -0.015,0.017 z m 1.646,1.333 -9.369,-7.588 c 0.231,-0.277 3.045,-3.741 8.035,-7.305 4.972,-3.536 12.284,-7.292 21.376,-7.312 h 0.13 c 7.548,-10e-4 16.015,2.833 24.215,9.692 6.015,4.953 11.111,6.348 15.704,6.383 5.508,0.02 10.629,-2.319 14.402,-4.862 1.875,-1.26 3.388,-2.535 4.399,-3.469 0.506,-0.467 0.884,-0.848 1.123,-1.095 0.12,-0.125 0.205,-0.216 0.253,-0.266 0.016,-0.017 0.028,-0.031 0.035,-0.039 l 0.006,-0.009 1.424,1.282 7.622,6.694 -0.003,0.002 c -0.234,0.258 -3.13,3.539 -8.14,6.91 -4.998,3.344 -12.242,6.888 -21.121,6.908 -7.351,0.035 -15.597,-2.626 -23.41,-9.164 -6.526,-5.375 -11.933,-6.875 -16.639,-6.908 -5.611,-0.017 -10.66,2.418 -14.378,5.071 -1.845,1.315 -3.323,2.65 -4.305,3.626 -0.491,0.487 -0.858,0.884 -1.092,1.143 -0.116,0.13 -0.195,0.223 -0.241,0.275 -0.014,0.018 -0.018,0.023 -0.026,0.031" /></g><g
           transform="translate(82.8188,85.6889)"
           id="g34"><path
             id="path36"
             style="fill:#18468b;fill-opacity:1;fill-rule:nonzero;stroke:none"
             d="m 0,0 h 12.947 c 6.143,0 10.187,2.488 10.187,7.465 v 0.078 c 0,3.655 -1.944,5.482 -5.093,6.687 1.944,1.089 3.577,2.8 3.577,5.871 v 0.078 c 0,1.866 -0.622,3.383 -1.867,4.627 -1.555,1.555 -4.004,2.411 -7.115,2.411 H 0 Z m 5.832,16.213 v 5.755 h 5.91 c 2.527,0 3.927,-1.011 3.927,-2.8 V 19.09 c 0,-2.021 -1.672,-2.877 -4.316,-2.877 z m 0,-10.964 v 5.988 h 6.921 c 3.071,0 4.432,-1.128 4.432,-2.955 V 8.204 c 0,-2.022 -1.594,-2.955 -4.238,-2.955 z M 28.627,0 h 5.988 V 8.709 H 39.32 L 45.152,0 h 6.998 l -6.648,9.72 c 3.46,1.283 5.832,4.044 5.832,8.437 v 0.078 c 0,2.566 -0.817,4.705 -2.333,6.221 -1.789,1.789 -4.471,2.761 -7.932,2.761 H 28.627 Z m 5.988,13.997 v 7.815 h 5.949 c 2.916,0 4.704,-1.322 4.704,-3.888 v -0.078 c 0,-2.294 -1.672,-3.849 -4.588,-3.849 z M 55.412,0 h 6.104 l 2.489,6.104 H 75.513 L 78.002,0 h 6.26 L 72.597,27.411 h -5.521 z m 10.731,11.392 3.616,8.826 3.616,-8.826 z M 91.248,0 h 5.988 v 21.695 h 8.281 v 5.522 h -22.55 v -5.522 h 8.281 z m 18.702,0 h 5.988 v 27.217 h -5.988 z m 22.585,-0.389 c 5.871,0 9.993,3.033 9.993,8.437 v 0.078 c 0,4.744 -3.111,6.726 -8.632,8.165 -4.704,1.205 -5.871,1.789 -5.871,3.577 v 0.078 c 0,1.322 1.206,2.372 3.5,2.372 2.294,0 4.665,-1.011 7.076,-2.683 l 3.11,4.51 c -2.76,2.216 -6.143,3.46 -10.109,3.46 -5.56,0 -9.525,-3.266 -9.525,-8.203 v -0.078 c 0,-5.405 3.538,-6.921 9.02,-8.321 4.549,-1.166 5.482,-1.944 5.482,-3.46 V 7.465 c 0,-1.594 -1.477,-2.566 -3.927,-2.566 -3.11,0 -5.676,1.283 -8.126,3.305 l -3.538,-4.238 c 3.266,-2.916 7.426,-4.355 11.547,-4.355 M 148.064,0 h 19.557 v 5.443 h -13.569 v 21.774 h -5.988 z m 22.784,0 h 6.104 l 2.489,6.104 h 11.508 L 193.438,0 h 6.26 l -11.665,27.411 h -5.521 z m 10.731,11.392 3.616,8.826 3.616,-8.826 z m 28.017,-11.586 h 5.288 l 11.004,27.411 h -6.455 l -7.115,-19.169 -7.115,19.169 h -6.61 z m 29.359,-0.195 c 5.871,0 9.993,3.033 9.993,8.437 v 0.078 c 0,4.744 -3.111,6.726 -8.632,8.165 -4.704,1.205 -5.871,1.789 -5.871,3.577 v 0.078 c 0,1.322 1.205,2.372 3.499,2.372 2.294,0 4.666,-1.011 7.077,-2.683 l 3.11,4.51 c -2.76,2.216 -6.143,3.46 -10.109,3.46 -5.56,0 -9.526,-3.266 -9.526,-8.203 v -0.078 c 0,-5.405 3.539,-6.921 9.021,-8.321 4.549,-1.166 5.482,-1.944 5.482,-3.46 V 7.465 c 0,-1.594 -1.478,-2.566 -3.927,-2.566 -3.111,0 -5.677,1.283 -8.126,3.305 l -3.538,-4.238 c 3.266,-2.916 7.426,-4.355 11.547,-4.355 M 254.484,0 h 5.988 v 8.32 l 3.149,3.266 L 272.058,0 h 7.193 l -11.586,15.669 11.081,11.548 h -7.232 L 260.472,15.319 v 11.898 h -5.988 z m 37.586,0 h 5.988 v 10.848 l 10.459,16.369 h -6.804 l -6.61,-10.926 -6.493,10.926 h -6.999 L 292.07,10.731 Z m 0.583,29.355 h 4.511 l 5.287,3.888 -5.093,2.216 z M 324.445,0 h 5.987 v 8.32 l 3.15,3.266 L 342.019,0 h 7.193 l -11.587,15.669 11.081,11.548 h -7.232 L 330.432,15.319 v 11.898 h -5.987 z m 28.662,0 h 5.988 V 8.709 H 363.8 L 369.632,0 h 6.998 l -6.648,9.72 c 3.46,1.283 5.832,4.044 5.832,8.437 v 0.078 c 0,2.566 -0.817,4.705 -2.333,6.221 -1.788,1.789 -4.471,2.761 -7.932,2.761 h -12.442 z m 5.988,13.997 v 7.815 h 5.949 c 2.916,0 4.704,-1.322 4.704,-3.888 v -0.078 c 0,-2.294 -1.671,-3.849 -4.587,-3.849 z M 379.892,0 h 6.104 l 2.489,6.104 h 11.508 L 402.482,0 h 6.26 l -11.665,27.411 h -5.521 z m 10.731,11.392 3.616,8.826 3.616,-8.826 z M 419.85,-0.389 c 2.955,0 5.404,0.856 7.076,2.527 1.633,1.633 2.566,4.044 2.566,7.271 v 17.808 h -6.143 V 9.681 c 0,-3.149 -1.4,-4.51 -3.655,-4.51 -1.905,0 -3.421,1.011 -4.977,2.722 l -3.771,-4.199 c 1.866,-2.217 4.666,-4.083 8.904,-4.083" /></g></g></g></g></svg>
