<?xml version="1.0" encoding="UTF-8" standalone="no"?>
<svg
   xmlns:dc="http://purl.org/dc/elements/1.1/"
   xmlns:cc="http://creativecommons.org/ns#"
   xmlns:rdf="http://www.w3.org/1999/02/22-rdf-syntax-ns#"
   xmlns:svg="http://www.w3.org/2000/svg"
   xmlns="http://www.w3.org/2000/svg"
   xmlns:sodipodi="http://sodipodi.sourceforge.net/DTD/sodipodi-0.dtd"
   xmlns:inkscape="http://www.inkscape.org/namespaces/inkscape"
   viewBox="0 0 789.3781 122.48347"
   height="122.48347"
   width="789.37811"
   xml:space="preserve"
   id="svg2"
   version="1.1"
   sodipodi:docname="Skubla.svg"
   inkscape:version="1.0.2 (e86c8708, 2021-01-15)"><sodipodi:namedview
     pagecolor="#ffffff"
     bordercolor="#666666"
     borderopacity="1"
     objecttolerance="10"
     gridtolerance="10"
     guidetolerance="10"
     inkscape:pageopacity="0"
     inkscape:pageshadow="2"
     inkscape:window-width="1625"
     inkscape:window-height="885"
     id="namedview935"
     showgrid="false"
     fit-margin-top="0"
     fit-margin-left="0"
     fit-margin-right="0"
     fit-margin-bottom="0"
     inkscape:zoom="0.76350625"
     inkscape:cx="557.68985"
     inkscape:cy="393.49918"
     inkscape:window-x="214"
     inkscape:window-y="89"
     inkscape:window-maximized="0"
     inkscape:current-layer="svg2" /><metadata
     id="metadata8"><rdf:RDF><cc:Work
         rdf:about=""><dc:format>image/svg+xml</dc:format><dc:type
           rdf:resource="http://purl.org/dc/dcmitype/StillImage" /><dc:title></dc:title></cc:Work></rdf:RDF></metadata><defs
     id="defs6"><clipPath
       id="clipPath22"
       clipPathUnits="userSpaceOnUse"><path
         id="path20"
         d="M 0,595.28 H 841.89 V 0 H 0 Z" /></clipPath></defs><g
     transform="matrix(1.3333333,0,0,-1.3333333,-167.28853,457.67679)"
     id="g10"><g
       transform="translate(236.6177,255.1579)"
       id="g12"><path
         id="path14"
         style="fill:#7c7d80;fill-opacity:1;fill-rule:nonzero;stroke:none"
         d="m 0,0 h -5.176 l -0.94,-2.665 h -0.863 l 4,11.056 h 0.782 L 1.882,-2.665 H 0.942 L 0,0 m -4.863,0.782 h 4.626 l -2.351,6.512 z" /></g><g
       id="g16"><g
         clip-path="url(#clipPath22)"
         id="g18"><g
           transform="translate(250.4175,253.5134)"
           id="g24"><path
             id="path26"
             style="fill:#7c7d80;fill-opacity:1;fill-rule:nonzero;stroke:none"
             d="m 0,0 c -0.628,-0.629 -1.568,-1.021 -2.745,-1.021 h -3.684 v 11.056 h 3.684 C -1.568,10.035 -0.628,9.723 0,9.017 1.177,7.916 1.099,6.192 1.099,4.702 1.099,3.213 1.177,1.092 0,0 m -0.548,8.47 c -0.628,0.621 -1.49,0.858 -2.353,0.858 h -2.664 v -9.565 h 2.664 c 0.863,0 1.725,0.156 2.353,0.861 0.863,0.861 0.783,2.825 0.783,4.078 0,1.179 0.08,2.821 -0.783,3.768" /></g><g
           transform="translate(259.9854,252.4929)"
           id="g28"><path
             id="path30"
             style="fill:#7c7d80;fill-opacity:1;fill-rule:nonzero;stroke:none"
             d="m 0,0 -3.608,11.056 h 0.863 L 0.392,1.485 3.449,11.056 H 4.313 L 0.705,0 Z" /></g><g
           transform="translate(275.7471,253.5134)"
           id="g32"><path
             id="path34"
             style="fill:#7c7d80;fill-opacity:1;fill-rule:nonzero;stroke:none"
             d="m 0,0 c -0.785,-0.709 -1.727,-1.103 -2.747,-1.103 -1.096,0 -2.036,0.394 -2.823,1.103 -1.018,1.018 -1.018,2.035 -1.018,4.548 0,2.43 0,3.449 1.018,4.469 0.787,0.706 1.727,1.096 2.823,1.096 1.02,0 1.962,-0.39 2.747,-1.096 C 1.02,7.997 1.02,6.978 1.02,4.548 1.02,2.035 1.02,1.018 0,0 m -0.707,8.545 c -0.548,0.546 -1.255,0.863 -2.04,0.863 -0.861,0 -1.568,-0.317 -2.116,-0.863 -0.783,-0.783 -0.864,-1.646 -0.864,-3.997 0,-2.354 0.081,-3.295 0.864,-4.083 0.548,-0.546 1.255,-0.782 2.116,-0.782 0.785,0 1.492,0.236 2.04,0.782 0.785,0.788 0.861,1.729 0.861,4.083 0,2.351 -0.076,3.214 -0.861,3.997" /></g><g
           transform="translate(286.8042,258.6853)"
           id="g36"><path
             id="path38"
             style="fill:#7c7d80;fill-opacity:1;fill-rule:nonzero;stroke:none"
             d="m 0,0 -2.668,-3.212 v -2.98 H -3.529 V 4.863 h 0.861 v -6.901 l 5.567,6.901 h 1.02 L 0.548,0.63 4.546,-6.192 H 3.528 Z" /></g><g
           transform="translate(302.4077,255.1579)"
           id="g40"><path
             id="path42"
             style="fill:#7c7d80;fill-opacity:1;fill-rule:nonzero;stroke:none"
             d="m 0,0 h -5.177 l -0.941,-2.665 h -0.861 l 3.997,11.056 h 0.783 L 1.881,-2.665 H 0.937 L 0,0 m -4.864,0.782 h 4.627 L -2.591,7.294 -4.864,0.782 m 1.569,8.707 1.489,2.273 h 1.021 L -2.432,9.489 Z" /></g><g
           transform="translate(311.7378,252.4929)"
           id="g44"><path
             id="path46"
             style="fill:#7c7d80;fill-opacity:1;fill-rule:nonzero;stroke:none"
             d="m 0,0 h -0.863 v 10.349 h -3.293 v 0.707 H 3.293 V 10.349 H 0 Z" /></g><g
           transform="translate(323.5781,252.4109)"
           id="g48"><path
             id="path50"
             style="fill:#7c7d80;fill-opacity:1;fill-rule:nonzero;stroke:none"
             d="m 0,0 c -1.648,0 -2.745,0.474 -3.684,1.492 l 0.546,0.55 C -2.118,1.021 -1.335,0.709 0,0.709 c 1.725,0 2.823,0.858 2.823,2.354 0,0.628 -0.156,1.173 -0.55,1.489 C 1.805,4.945 1.566,5.021 0.628,5.181 L -0.63,5.335 c -0.86,0.154 -1.488,0.394 -1.958,0.863 -0.626,0.468 -0.861,1.177 -0.861,2.036 0,1.807 1.253,2.982 3.371,2.982 1.409,0 2.275,-0.391 3.214,-1.175 L 2.588,9.491 c -0.628,0.628 -1.413,1.02 -2.666,1.02 -1.649,0 -2.589,-0.864 -2.589,-2.277 0,-0.624 0.157,-1.093 0.549,-1.41 C -1.727,6.512 -1.096,6.198 -0.47,6.12 L 0.783,5.963 C 1.805,5.805 2.273,5.569 2.745,5.181 3.293,4.707 3.685,3.924 3.685,3.063 3.685,1.176 2.273,0 0,0" /></g><g
           transform="translate(336.9062,258.6853)"
           id="g52"><path
             id="path54"
             style="fill:#7c7d80;fill-opacity:1;fill-rule:nonzero;stroke:none"
             d="m 0,0 -2.588,-3.212 v -2.98 H -3.447 V 4.863 h 0.859 v -6.901 l 5.57,6.901 H 4.001 L 0.55,0.63 l 4,-6.822 H 3.61 Z" /></g><g
           transform="translate(352.5894,255.1579)"
           id="g56"><path
             id="path58"
             style="fill:#7c7d80;fill-opacity:1;fill-rule:nonzero;stroke:none"
             d="m 0,0 h -5.174 l -0.942,-2.665 h -0.942 l 4.079,11.056 h 0.785 L 1.803,-2.665 H 0.942 L 0,0 m -4.939,0.782 h 4.628 l -2.275,6.512 z" /></g><g
           transform="translate(370.9395,258.6853)"
           id="g60"><path
             id="path62"
             style="fill:#7c7d80;fill-opacity:1;fill-rule:nonzero;stroke:none"
             d="m 0,0 -2.667,-3.212 v -2.98 H -3.449 V 4.863 h 0.782 V -2.038 L 2.979,4.863 H 3.921 L 0.548,0.63 4.546,-6.192 H 3.527 Z" /></g><g
           transform="translate(386.5444,255.1579)"
           id="g64"><path
             id="path66"
             style="fill:#7c7d80;fill-opacity:1;fill-rule:nonzero;stroke:none"
             d="m 0,0 h -5.098 l -1.02,-2.665 h -0.861 l 4.078,11.056 h 0.702 L 1.882,-2.665 H 1.021 L 0,0 m -4.861,0.782 h 4.624 L -2.59,7.294 Z" /></g><g
           transform="translate(394.7769,262.1374)"
           id="g68"><path
             id="path70"
             style="fill:#7c7d80;fill-opacity:1;fill-rule:nonzero;stroke:none"
             d="M 0,0 V -9.645 H -0.864 V 1.411 H 0 l 6.351,-9.57 v 9.57 H 7.214 V -9.645 H 6.351 Z" /></g><g
           transform="translate(412.3413,252.4109)"
           id="g72"><path
             id="path74"
             style="fill:#7c7d80;fill-opacity:1;fill-rule:nonzero;stroke:none"
             d="m 0,0 c -1.096,0 -2.038,0.394 -2.823,1.103 -0.939,1.017 -1.018,2.035 -1.018,4.547 0,2.43 0.079,3.45 1.018,4.469 0.785,0.706 1.727,1.097 2.823,1.097 1.96,0 3.372,-1.255 3.763,-3.214 H 2.902 C 2.588,9.572 1.492,10.511 0,10.511 -0.785,10.511 -1.57,10.193 -2.116,9.647 -2.901,8.864 -2.979,8.002 -2.979,5.65 -2.979,3.297 -2.901,2.355 -2.116,1.567 -1.57,1.021 -0.785,0.709 0,0.709 c 1.492,0 2.588,1.018 2.902,2.51 H 3.763 C 3.372,1.257 1.96,0 0,0" /></g><g
           transform="translate(422.5352,263.5486)"
           id="g76"><path
             id="path78"
             style="fill:#7c7d80;fill-opacity:1;fill-rule:nonzero;stroke:none"
             d="M 0,0 H 6.666 V -0.707 H 0.785 V -5.098 H 5.806 V -5.881 H 0.785 v -4.391 h 5.881 v -0.784 H 0 Z" /></g><g
           transform="translate(435.3975,263.5486)"
           id="g80"><path
             id="path82"
             style="fill:#7c7d80;fill-opacity:1;fill-rule:nonzero;stroke:none"
             d="m 0,0 h 0.783 v -10.272 h 5.881 v -0.784 H 0 Z" /></g><g
           transform="translate(453.3516,255.1579)"
           id="g84"><path
             id="path86"
             style="fill:#7c7d80;fill-opacity:1;fill-rule:nonzero;stroke:none"
             d="m 0,0 h -5.177 l -0.938,-2.665 h -0.862 l 3.998,11.056 h 0.783 L 1.882,-2.665 H 0.939 L 0,0 m -4.86,0.782 h 4.623 L -2.588,7.294 -4.86,0.782 m 1.568,8.707 1.487,2.273 h 1.023 l -1.65,-2.273 z" /></g><g
           transform="translate(464.6445,257.5915)"
           id="g88"><path
             id="path90"
             style="fill:#7c7d80;fill-opacity:1;fill-rule:nonzero;stroke:none"
             d="M 0,0 H -3.059 V -5.099 H -3.922 V 5.957 h 4.235 c 1.803,0 3.136,-1.019 3.136,-2.98 C 3.449,1.331 2.429,0.309 0.939,0 L 3.527,-5.099 H 2.586 L 0,0 M 0.156,5.25 H -3.059 V 0.782 h 3.215 c 1.411,0 2.43,0.627 2.43,2.195 0,1.569 -1.019,2.273 -2.43,2.273" /></g><path
           id="path92"
           style="fill:#7c7d80;fill-opacity:1;fill-rule:evenodd;stroke:none"
           d="m 474.523,263.549 h 0.784 v -11.056 h -0.784 z" /><g
           transform="translate(487.8525,255.1579)"
           id="g94"><path
             id="path96"
             style="fill:#7c7d80;fill-opacity:1;fill-rule:nonzero;stroke:none"
             d="m 0,0 h -5.174 l -0.941,-2.665 h -0.941 l 4.077,11.056 h 0.785 L 1.885,-2.665 H 0.941 L 0,0 m -4.939,0.782 h 4.627 l -2.276,6.512 z" /></g><path
           id="path98"
           style="fill:#7c7d80;fill-opacity:1;fill-rule:evenodd;stroke:none"
           d="m 503.064,264.725 h 0.785 v -13.33 h -0.785 z" /><g
           transform="translate(518.748,263.5486)"
           id="g100"><path
             id="path102"
             style="fill:#7c7d80;fill-opacity:1;fill-rule:nonzero;stroke:none"
             d="m 0,0 h 0.863 v -10.272 h 5.803 v -0.784 H 0 Z" /></g><g
           transform="translate(536.7041,255.1579)"
           id="g104"><path
             id="path106"
             style="fill:#7c7d80;fill-opacity:1;fill-rule:nonzero;stroke:none"
             d="m 0,0 h -5.174 l -0.941,-2.665 h -0.862 l 4.076,11.056 h 0.707 L 1.884,-2.665 H 0.944 L 0,0 m -4.862,0.782 h 4.628 l -2.352,6.512 z" /></g><g
           transform="translate(551.1328,252.4929)"
           id="g108"><path
             id="path110"
             style="fill:#7c7d80;fill-opacity:1;fill-rule:nonzero;stroke:none"
             d="M 0,0 -2.667,9.645 -5.255,0 h -0.859 l -2.747,11.056 h 0.863 l 2.352,-9.571 2.587,9.571 h 0.865 L 0.392,1.485 2.667,11.056 H 3.608 L 0.783,0 Z" /></g><g
           transform="translate(568.6973,258.2937)"
           id="g112"><path
             id="path114"
             style="fill:#7c7d80;fill-opacity:1;fill-rule:nonzero;stroke:none"
             d="M 0,0 H 4.941 V -0.785 H 0 V -5.801 H -0.861 V 5.255 H 5.803 V 4.548 H 0 Z" /></g><path
           id="path116"
           style="fill:#7c7d80;fill-opacity:1;fill-rule:evenodd;stroke:none"
           d="m 580.304,263.549 h 0.782 v -11.056 h -0.782 z" /><g
           transform="translate(591.9863,257.5915)"
           id="g118"><path
             id="path120"
             style="fill:#7c7d80;fill-opacity:1;fill-rule:nonzero;stroke:none"
             d="M 0,0 H -2.979 V -5.099 H -3.841 V 5.957 h 4.235 c 1.802,0 3.134,-1.019 3.134,-2.98 C 3.528,1.331 2.511,0.309 1.021,0 L 3.685,-5.099 H 2.667 L 0,0 M 0.234,5.25 H -2.979 V 0.782 h 3.213 c 1.415,0 2.433,0.627 2.433,2.195 0,1.569 -1.018,2.273 -2.433,2.273" /></g><g
           transform="translate(610.335,261.5886)"
           id="g122"><path
             id="path124"
             style="fill:#7c7d80;fill-opacity:1;fill-rule:nonzero;stroke:none"
             d="M 0,0 -3.372,-7.53 H -4.155 L -7.606,0 V -9.096 H -8.468 V 1.96 h 0.862 L -3.764,-6.59 0,1.96 H 0.863 V -9.096 H 0 Z" /></g><g
           transform="translate(403.9326,293.8571)"
           id="g126"><path
             id="path128"
             style="fill:#58a951;fill-opacity:1;fill-rule:evenodd;stroke:none"
             d="M 0,0 C -0.131,0.127 -0.393,0.127 -0.393,0 -2.832,-3.145 -5.475,-5.623 -8.228,-7.524 H 9.24 C 6.289,-5.104 3.117,-2.587 0,0" /></g><g
           transform="translate(366.9331,302.5193)"
           id="g130"><path
             id="path132"
             style="fill:#58a951;fill-opacity:1;fill-rule:evenodd;stroke:none"
             d="m 0,0 c 0,-10.108 7.606,-15.88 16.792,-15.88 6.297,0 12.859,2.49 17.452,8.527 0.266,0.262 0.266,0.525 0.134,0.66 C 26.241,0 15.351,9.182 10.099,14.823 c 0,0 -0.523,0.132 -0.523,0 C 4.717,10.885 0,7.217 0,0" /></g><g
           transform="translate(381.229,322.9802)"
           id="g134"><path
             id="path136"
             style="fill:#58a951;fill-opacity:1;fill-rule:evenodd;stroke:none"
             d="M 0,0 C 0,0 0.266,-0.254 0.528,0 7.09,4.731 10.5,9.98 10.5,15.359 c 0,1.46 -0.254,3.066 -0.809,4.578 H -6.732 C -7.207,18.594 -7.476,17.025 -7.476,15.228 -7.476,9.849 -4.72,4.204 0,0" /></g><g
           transform="translate(417.3188,316.5603)"
           id="g138"><path
             id="path140"
             style="fill:#58a951;fill-opacity:1;fill-rule:evenodd;stroke:none"
             d="m 0,0 c -3.807,-6.696 -6.3,-12.338 -9.052,-16.01 -0.135,0 0,-0.529 0,-0.529 4.883,-3.593 11.051,-8.239 14.6,-11.3 V 4.19 C 5.277,4.137 5.036,4.092 4.855,4.062 2.227,3.402 1.179,1.834 0,0" /></g><g
           transform="translate(397.2393,338.6013)"
           id="g142"><path
             id="path144"
             style="fill:#58a951;fill-opacity:1;fill-rule:evenodd;stroke:none"
             d="m 0,0 c 0,-5.772 -3.017,-9.579 -13.775,-17.059 -0.263,-0.13 -0.263,-0.527 -0.132,-0.659 2.625,-2.889 14.697,-13.247 22.176,-19.019 0.258,-0.266 0.394,-0.266 0.528,0 2.23,2.889 5.244,9.05 6.951,14.168 0.79,1.962 0.655,3.541 -1.048,4.196 -1.048,0.525 -2.89,0.787 -5.379,1.184 -0.524,0.13 -0.262,1.568 0.131,1.837 1.31,0 4.724,-0.393 9.448,-0.393 2.809,0 5.066,0.107 6.728,0.209 V 4.316 H -0.698 C -0.252,2.988 0,1.546 0,0" /></g><g
           transform="translate(375.0674,319.0461)"
           id="g146"><path
             id="path148"
             style="fill:#58a951;fill-opacity:1;fill-rule:evenodd;stroke:none"
             d="m 0,0 c 0.258,0.134 0.258,0.266 0.127,0.4 -3.799,4.458 -6.689,8.924 -6.689,15.61 0,2.895 0.723,5.56 1.97,7.861 H -8.78 V -6.917 C -6.555,-4.897 -3.677,-2.661 0,0" /></g><g
           transform="translate(458.7422,311.924)"
           id="g150"><path
             id="path152"
             style="fill:#7c7d80;fill-opacity:1;fill-rule:nonzero;stroke:none"
             d="m 0,0 h -10.396 v -15.143 h -2.701 V 20.545 H 0 c 6.14,0 10.728,-3.68 10.728,-10.309 C 10.728,3.765 6.14,0 0,0 m -0.326,18.095 h -10.07 V 2.375 h 10.07 c 4.913,0 8.35,2.539 8.35,7.861 0,5.402 -3.437,7.859 -8.35,7.859" /></g><g
           transform="translate(499.7793,305.4592)"
           id="g154"><path
             id="path156"
             style="fill:#7c7d80;fill-opacity:1;fill-rule:nonzero;stroke:none"
             d="m 0,0 h -16.619 l -3.111,-8.678 h -2.949 L -9.497,27.01 h 2.373 L 6.058,-8.678 H 3.11 L 0,0 M -15.802,2.375 H -0.82 l -7.533,21.039 z" /></g><g
           transform="translate(531.7266,313.2346)"
           id="g158"><path
             id="path160"
             style="fill:#7c7d80;fill-opacity:1;fill-rule:nonzero;stroke:none"
             d="m 0,0 h -9.824 v -16.454 h -2.7 V 19.235 H 1.063 C 6.877,19.235 11.3,15.883 11.3,9.662 11.3,4.257 8.104,0.901 3.027,0 l 8.681,-16.454 H 8.514 L 0,0 M 0.736,16.785 H -9.824 V 2.377 h 10.56 c 4.584,0 7.862,2.289 7.862,7.203 0,4.993 -3.278,7.205 -7.862,7.205" /></g><g
           transform="translate(568.5879,296.781)"
           id="g162"><path
             id="path164"
             style="fill:#7c7d80;fill-opacity:1;fill-rule:nonzero;stroke:none"
             d="m 0,0 h -2.703 v 33.238 h -10.642 v 2.45 H 10.64 v -2.45 H 0 Z" /></g><g
           transform="translate(596.1152,327.8073)"
           id="g166"><path
             id="path168"
             style="fill:#7c7d80;fill-opacity:1;fill-rule:nonzero;stroke:none"
             d="M 0,0 V -31.026 H -2.702 V 4.662 H 0 L 20.629,-26.281 V 4.662 h 2.703 v -35.688 h -2.703 z" /></g><g
           transform="translate(637.5576,332.4695)"
           id="g170"><path
             id="path172"
             style="fill:#7c7d80;fill-opacity:1;fill-rule:nonzero;stroke:none"
             d="M 0,0 H 21.694 V -2.45 H 2.702 V -16.533 H 18.91 v -2.371 H 2.702 v -14.412 h 18.992 v -2.372 H 0 Z" /></g><g
           transform="translate(687.2725,313.2346)"
           id="g174"><path
             id="path176"
             style="fill:#7c7d80;fill-opacity:1;fill-rule:nonzero;stroke:none"
             d="m 0,0 h -9.825 v -16.454 h -2.784 V 19.235 H 1.062 c 5.813,0 10.235,-3.352 10.235,-9.573 C 11.297,4.257 8.022,0.901 3.026,0 l 8.6,-16.454 H 8.513 L 0,0 M 0.653,16.785 H -9.825 V 2.377 H 0.653 c 4.669,0 7.86,2.289 7.86,7.203 0,4.993 -3.191,7.205 -7.86,7.205" /></g><path
           id="path178"
           style="fill:#7c7d80;fill-opacity:1;fill-rule:evenodd;stroke:none"
           d="m 714.798,332.469 h 2.702 v -35.688 h -2.702 z" /><g
           transform="translate(137.3374,296.3581)"
           id="g180"><path
             id="path182"
             style="fill:#7c7d80;fill-opacity:1;fill-rule:nonzero;stroke:none"
             d="m 0,0 c -5.241,0 -8.597,1.478 -11.871,4.668 l 1.885,1.964 c 3.19,-3.192 5.892,-4.255 10.15,-4.255 5.649,0 9.169,2.7 9.169,7.369 0,2.209 -0.573,3.93 -1.967,5.075 -1.308,1.065 -2.209,1.473 -5.157,1.884 l -4.175,0.654 c -2.701,0.409 -4.83,1.229 -6.383,2.619 -1.801,1.555 -2.784,3.767 -2.784,6.553 0,6.053 4.173,9.823 11.051,9.823 4.419,0 7.285,-1.229 10.314,-3.931 L 8.515,30.702 c -2.13,2.048 -4.503,3.275 -8.679,3.275 -5.238,0 -8.349,-2.78 -8.349,-7.367 0,-2.048 0.656,-3.601 1.882,-4.669 1.229,-1.062 3.354,-1.797 5.323,-2.209 l 3.847,-0.57 C 5.895,18.667 7.45,18.097 8.924,16.785 10.888,15.229 12.035,12.775 12.035,9.909 12.035,3.849 7.45,0 0,0" /></g><g
           transform="translate(176.1621,316.6648)"
           id="g184"><path
             id="path186"
             style="fill:#7c7d80;fill-opacity:1;fill-rule:nonzero;stroke:none"
             d="m 0,0 -8.513,-10.313 v -9.662 h -2.702 v 35.688 h 2.702 V -6.63 L 9.659,15.713 h 3.195 L 1.882,2.048 14.734,-19.975 h -3.191 z" /></g><g
           transform="translate(216.1328,296.3581)"
           id="g188"><path
             id="path190"
             style="fill:#7c7d80;fill-opacity:1;fill-rule:nonzero;stroke:none"
             d="M 0,0 C -7.121,0 -12.198,4.914 -12.198,11.874 V 36.02 h 2.702 V 12.203 c 0,-5.895 3.767,-9.826 9.496,-9.826 5.811,0 9.58,3.931 9.58,9.826 V 36.02 h 2.703 V 11.874 C 12.283,4.914 7.205,0 0,0" /></g><g
           transform="translate(259.6235,296.6897)"
           id="g192"><path
             id="path194"
             style="fill:#7c7d80;fill-opacity:1;fill-rule:nonzero;stroke:none"
             d="m 0,0 h -13.59 v 35.688 h 13.181 c 5.895,0 10.316,-3.435 10.316,-9.328 0,-3.764 -2.13,-6.875 -5.565,-8.024 3.844,-1.392 6.137,-4.501 6.137,-8.595 C 10.479,3.356 6.224,0 0,0 M -0.736,33.238 H -10.888 V 19.401 h 10.152 c 4.338,0 7.941,2.046 7.941,6.959 0,4.914 -3.603,6.878 -7.941,6.878 m 0.409,-16.21 H -10.888 V 2.373 h 10.561 c 4.914,0 8.104,2.699 8.104,7.368 0,4.587 -3.19,7.287 -8.104,7.287" /></g><g
           transform="translate(286.8247,332.3781)"
           id="g196"><path
             id="path198"
             style="fill:#7c7d80;fill-opacity:1;fill-rule:nonzero;stroke:none"
             d="m 0,0 h 2.7 v -33.316 h 18.994 v -2.372 H 0 Z" /></g><g
           transform="translate(340.5493,305.3679)"
           id="g200"><path
             id="path202"
             style="fill:#7c7d80;fill-opacity:1;fill-rule:nonzero;stroke:none"
             d="m 0,0 h -16.62 l -3.11,-8.678 h -2.946 L -9.499,27.01 h 2.375 L 6.056,-8.678 H 3.111 L 0,0 M -15.802,2.375 H -0.82 l -7.53,21.039 z" /></g><g
           transform="translate(136.1875,335.8806)"
           id="g204"><path
             id="path206"
             style="fill:#7c7d80;fill-opacity:1;fill-rule:nonzero;stroke:none"
             d="m 0,0 -6.231,7.377 h 2.87 L 1.312,1.885 5.985,7.377 h 2.87 L 2.704,0 Z" /></g></g></g></g></svg>
